<?xml version="1.0" encoding="utf-8"?>
<!-- Generator: Adobe Illustrator 23.1.0, SVG Export Plug-In . SVG Version: 6.00 Build 0)  -->
<svg version="1.1" id="Layer_1" xmlns="http://www.w3.org/2000/svg" xmlns:xlink="http://www.w3.org/1999/xlink" x="0px" y="0px"
	 viewBox="0 0 1920 1080" style="enable-background:new 0 0 1920 1080;" xml:space="preserve">
<g>
	<g>
		<circle style="fill:#FBB03B;" cx="389.656" cy="319.598" r="13.054"/>
	</g>
	<circle style="fill:#FBB03B;" cx="384.899" cy="367.984" r="10.087"/>
	<circle style="fill:#FBB03B;" cx="387.766" cy="393.893" r="13.054"/>
	<circle style="fill:#FBB03B;" cx="386.514" cy="346.226" r="10.087"/>
	<circle style="fill:#FBB03B;" cx="399.256" cy="421.349" r="11.867"/>
	<circle style="fill:#FBB03B;" cx="416.414" cy="441.329" r="12.461"/>
	<circle style="fill:#FBB03B;" cx="433.203" cy="460.181" r="10.68"/>
	<circle style="fill:#FBB03B;" cx="590.873" cy="306.766" r="8.9"/>
	<circle style="fill:#FBB03B;" cx="580.083" cy="289.072" r="10.087"/>
	<circle style="fill:#FBB03B;" cx="598.828" cy="435.904" r="10.68"/>
	<circle style="fill:#FBB03B;" cx="553.531" cy="486.33" r="12.461"/>
	<circle style="fill:#FBB03B;" cx="527.971" cy="494.077" r="9.494"/>
	<circle style="fill:#FBB03B;" cx="506.952" cy="494.717" r="7.12"/>
	<circle style="fill:#FBB03B;" cx="489.326" cy="492.373" r="6.527"/>
	<circle style="fill:#FBB03B;" cx="604.171" cy="347.366" r="10.087"/>
	<circle style="fill:#FBB03B;" cx="610.8" cy="371.419" r="11.274"/>
	<circle style="fill:#FBB03B;" cx="609.933" cy="393.556" r="9.494"/>
	<circle style="fill:#FBB03B;" cx="570.866" cy="472.535" r="8.307"/>
	<circle style="fill:#FBB03B;" cx="586.704" cy="457.982" r="11.274"/>
	<circle style="fill:#FBB03B;" cx="606.821" cy="414.555" r="9.494"/>
	<circle style="fill:#FBB03B;" cx="550.617" cy="254.392" r="11.867"/>
	<circle style="fill:#FBB03B;" cx="566.657" cy="272.864" r="9.494"/>
	<circle style="fill:#FBB03B;" cx="529.647" cy="245.65" r="8.9"/>
	<circle style="fill:#FBB03B;" cx="443.335" cy="245.198" r="10.087"/>
	<circle style="fill:#FBB03B;" cx="463.635" cy="238.55" r="8.9"/>
	<circle style="fill:#FBB03B;" cx="485.043" cy="235.284" r="8.9"/>
	<circle style="fill:#FBB03B;" cx="507.55" cy="237.279" r="9.494"/>
	<circle style="fill:#FBB03B;" cx="600.915" cy="324.082" r="9.494"/>
	<circle style="fill:#FBB03B;" cx="470.592" cy="486.646" r="9.494"/>
	<circle style="fill:#FBB03B;" cx="452.646" cy="473.793" r="9.494"/>
	<circle style="fill:#FBB03B;" cx="401.8" cy="293.767" r="7.714"/>
	<circle style="fill:#FBB03B;" cx="411.28" cy="275.053" r="9.494"/>
	<circle style="fill:#FBB03B;" cx="424.882" cy="257.486" r="8.9"/>
</g>
<g>
	<circle style="fill:#F15A24;" cx="429.454" cy="387.732" r="7.12"/>
	<circle style="fill:#F15A24;" cx="521.586" cy="280.134" r="4.747"/>
	<circle style="fill:#F15A24;" cx="575.381" cy="398.629" r="5.934"/>
	<circle style="fill:#F15A24;" cx="496.649" cy="455.634" r="4.747"/>
	<circle style="fill:#F15A24;" cx="435.005" cy="402.772" r="5.34"/>
	<circle style="fill:#F15A24;" cx="428.291" cy="323.178" r="4.747"/>
	<circle style="fill:#F15A24;" cx="510.357" cy="274.446" r="4.154"/>
	<circle style="fill:#F15A24;" cx="575.646" cy="347.967" r="4.154"/>
	<circle style="fill:#F15A24;" cx="456.273" cy="282.794" r="5.934"/>
	<circle style="fill:#F15A24;" cx="439.667" cy="300.721" r="3.56"/>
	<circle style="fill:#F15A24;" cx="422.815" cy="365.556" r="6.527"/>
	<circle style="fill:#F15A24;" cx="444.597" cy="290.989" r="5.34"/>
	<circle style="fill:#F15A24;" cx="423.731" cy="334.037" r="2.967"/>
	<circle style="fill:#F15A24;" cx="445.785" cy="422.343" r="5.934"/>
	<circle style="fill:#F15A24;" cx="432.492" cy="309.314" r="4.747"/>
	<circle style="fill:#F15A24;" cx="518.417" cy="455.373" r="2.967"/>
	<circle style="fill:#F15A24;" cx="485.411" cy="451.823" r="4.747"/>
	<circle style="fill:#F15A24;" cx="465.209" cy="439.708" r="5.934"/>
	<circle style="fill:#F15A24;" cx="534.302" cy="288.457" r="4.747"/>
	<circle style="fill:#F15A24;" cx="572.322" cy="337.817" r="4.154"/>
	<circle style="fill:#F15A24;" cx="546.269" cy="296.4" r="5.34"/>
	<circle style="fill:#F15A24;" cx="555.602" cy="305.831" r="5.34"/>
	<circle style="fill:#F15A24;" cx="578.493" cy="377.629" r="3.56"/>
	<circle style="fill:#F15A24;" cx="497.233" cy="272.501" r="5.34"/>
	<circle style="fill:#F15A24;" cx="468.309" cy="277.603" r="4.747"/>
	<circle style="fill:#F15A24;" cx="482.212" cy="274.299" r="5.934"/>
	<circle style="fill:#F15A24;" cx="579.291" cy="368.627" r="3.56"/>
	<circle style="fill:#F15A24;" cx="577.695" cy="386.632" r="3.56"/>
	<circle style="fill:#F15A24;" cx="579.34" cy="359.245" r="4.154"/>
	<circle style="fill:#F15A24;" cx="562.669" cy="317.877" r="4.154"/>
	<circle style="fill:#F15A24;" cx="568.249" cy="327.288" r="4.747"/>
	<circle style="fill:#F15A24;" cx="551.89" cy="441.288" r="4.747"/>
	<circle style="fill:#F15A24;" cx="540.972" cy="447.985" r="5.34"/>
	<circle style="fill:#F15A24;" cx="529.694" cy="451.679" r="4.154"/>
	<circle style="fill:#F15A24;" cx="509.404" cy="456.452" r="4.747"/>
	<circle style="fill:#F15A24;" cx="474.93" cy="446.514" r="4.747"/>
	<circle style="fill:#F15A24;" cx="421.756" cy="352.791" r="3.56"/>
	<circle style="fill:#F15A24;" cx="441.712" cy="411.814" r="4.154"/>
	<circle style="fill:#F15A24;" cx="455.866" cy="432.153" r="5.34"/>
	<circle style="fill:#F15A24;" cx="426.888" cy="376.085" r="3.56"/>
	<circle style="fill:#F15A24;" cx="423.312" cy="342.291" r="3.56"/>
	<circle style="fill:#F15A24;" cx="561.321" cy="431.955" r="5.934"/>
	<circle style="fill:#F15A24;" cx="567.388" cy="419.978" r="4.747"/>
	<circle style="fill:#F15A24;" cx="572.687" cy="411.374" r="4.154"/>
</g>
<g>
	<g>
		<circle style="fill:#FBB03B;" cx="463.648" cy="330.857" r="5.278"/>
	</g>
	<circle style="fill:#FBB03B;" cx="458.859" cy="361.808" r="4.078"/>
	<circle style="fill:#FBB03B;" cx="470.97" cy="400.927" r="5.278"/>
	<circle style="fill:#FBB03B;" cx="458.83" cy="341.084" r="4.078"/>
	<circle style="fill:#FBB03B;" cx="545.09" cy="360.592" r="4.798"/>
	<circle style="fill:#FBB03B;" cx="459.082" cy="350.741" r="5.038"/>
	<circle style="fill:#FBB03B;" cx="465.4" cy="390.069" r="4.318"/>
	<circle style="fill:#FBB03B;" cx="541.353" cy="340.187" r="3.598"/>
	<circle style="fill:#FBB03B;" cx="537.254" cy="331.556" r="4.078"/>
	<circle style="fill:#FBB03B;" cx="540.406" cy="397.361" r="4.318"/>
	<circle style="fill:#FBB03B;" cx="527.538" cy="415.005" r="5.038"/>
	<circle style="fill:#FBB03B;" cx="509.837" cy="418.323" r="3.838"/>
	<circle style="fill:#FBB03B;" cx="501.349" cy="417.848" r="2.879"/>
	<circle style="fill:#FBB03B;" cx="494.331" cy="416.29" r="2.639"/>
	<circle style="fill:#FBB03B;" cx="460.031" cy="371.193" r="4.078"/>
	<circle style="fill:#FBB03B;" cx="461.863" cy="381.113" r="4.558"/>
	<circle style="fill:#FBB03B;" cx="545.616" cy="378.435" r="3.838"/>
	<circle style="fill:#FBB03B;" cx="517.696" cy="418.218" r="3.359"/>
	<circle style="fill:#FBB03B;" cx="534.752" cy="405.831" r="4.558"/>
	<circle style="fill:#FBB03B;" cx="543.63" cy="386.785" r="3.838"/>
	<circle style="fill:#FBB03B;" cx="526.224" cy="315.432" r="4.798"/>
	<circle style="fill:#FBB03B;" cx="532.042" cy="323.432" r="3.838"/>
	<circle style="fill:#FBB03B;" cx="518.841" cy="309.683" r="3.598"/>
	<circle style="fill:#FBB03B;" cx="482.574" cy="309.487" r="4.078"/>
	<circle style="fill:#FBB03B;" cx="493.238" cy="306.778" r="3.598"/>
	<circle style="fill:#FBB03B;" cx="501.975" cy="306.209" r="3.598"/>
	<circle style="fill:#FBB03B;" cx="510.971" cy="307.797" r="3.838"/>
	<circle style="fill:#FBB03B;" cx="543.277" cy="350.506" r="3.838"/>
	<circle style="fill:#FBB03B;" cx="486.984" cy="413.33" r="3.838"/>
	<circle style="fill:#FBB03B;" cx="480.204" cy="407.527" r="3.838"/>
	<circle style="fill:#FBB03B;" cx="545.366" cy="369.684" r="3.119"/>
	<circle style="fill:#FBB03B;" cx="466.366" cy="321.134" r="3.838"/>
	<circle style="fill:#FBB03B;" cx="472.457" cy="314.532" r="3.598"/>
</g>
<g>
	<circle style="fill:#F15A24;" cx="504.474" cy="364.255" r="4.607"/>
	<circle style="fill:#F15A24;" cx="506.569" cy="373.229" r="3.456"/>
	<circle style="fill:#F15A24;" cx="496.26" cy="330.988" r="1.92"/>
	<circle style="fill:#F15A24;" cx="513.116" cy="396.023" r="3.839"/>
	<circle style="fill:#F15A24;" cx="499.905" cy="343.126" r="3.072"/>
	<circle style="fill:#F15A24;" cx="497.646" cy="336.007" r="2.304"/>
	<circle style="fill:#F15A24;" cx="509.023" cy="380.946" r="2.688"/>
	<circle style="fill:#F15A24;" cx="511.085" cy="387.69" r="3.456"/>
	<circle style="fill:#F15A24;" cx="502.814" cy="356.719" r="2.304"/>
	<circle style="fill:#F15A24;" cx="500.791" cy="350.99" r="2.304"/>
</g>
<g>
	<g>
		<g>
			<g>
				<path style="fill:#C7B299;" d="M851.554,295.503c7.661,0,7.674-11.906,0-11.906C843.893,283.596,843.88,295.503,851.554,295.503
					L851.554,295.503z"/>
			</g>
		</g>
		<g>
			<g>
				<path style="fill:#C7B299;" d="M862.198,281.673c7.661,0,7.674-11.906,0-11.906
					C854.537,269.767,854.525,281.673,862.198,281.673L862.198,281.673z"/>
			</g>
		</g>
		<g>
			<g>
				<path style="fill:#C7B299;" d="M871.567,268.521c7.661,0,7.674-11.906,0-11.906
					C863.906,256.615,863.893,268.521,871.567,268.521L871.567,268.521z"/>
			</g>
		</g>
		<g>
			<g>
				<path style="fill:#C7B299;" d="M883.188,254.991c7.661,0,7.674-11.906,0-11.906
					C875.527,243.084,875.514,254.991,883.188,254.991L883.188,254.991z"/>
			</g>
		</g>
		<g>
			<g>
				<path style="fill:#C7B299;" d="M895.108,240.484c7.661,0,7.674-11.906,0-11.906
					C887.447,228.578,887.434,240.484,895.108,240.484L895.108,240.484z"/>
			</g>
		</g>
		<g>
			<g>
				<path style="fill:#C7B299;" d="M907.327,225c7.661,0,7.674-11.906,0-11.906C899.666,213.094,899.654,225,907.327,225
					L907.327,225z"/>
			</g>
		</g>
		<g>
			<g>
				<path style="fill:#C7B299;" d="M921.957,215.596c7.661,0,7.674-11.906,0-11.906C914.296,203.69,914.283,215.596,921.957,215.596
					L921.957,215.596z"/>
			</g>
		</g>
		<g>
			<g>
				<path style="fill:#C7B299;" d="M936.965,208.444c7.661,0,7.674-11.906,0-11.906
					C929.304,196.537,929.291,208.444,936.965,208.444L936.965,208.444z"/>
			</g>
		</g>
		<g>
			<g>
				<path style="fill:#C7B299;" d="M953.548,199.637c7.661,0,7.674-11.906,0-11.906
					C945.886,187.731,945.874,199.637,953.548,199.637L953.548,199.637z"/>
			</g>
		</g>
		<g>
			<g>
				<path style="fill:#C7B299;" d="M967.28,193.162c7.661,0,7.674-11.906,0-11.906C959.619,181.256,959.606,193.162,967.28,193.162
					L967.28,193.162z"/>
			</g>
		</g>
		<g>
			<g>
				<path style="fill:#C7B299;" d="M983.344,189.537c7.661,0,7.674-11.906,0-11.906C975.683,177.631,975.67,189.537,983.344,189.537
					L983.344,189.537z"/>
			</g>
		</g>
		<g>
			<g>
				<path style="fill:#C7B299;" d="M999.407,185.913c7.661,0,7.674-11.906,0-11.906
					C991.746,174.006,991.734,185.913,999.407,185.913L999.407,185.913z"/>
			</g>
		</g>
		<g>
			<g>
				<path style="fill:#C7B299;" d="M1014.873,184.241c7.661,0,7.674-11.906,0-11.906
					C1007.212,172.335,1007.199,184.241,1014.873,184.241L1014.873,184.241z"/>
			</g>
		</g>
		<g>
			<g>
				<path style="fill:#C7B299;" d="M1029.96,180.317c7.661,0,7.674-11.906,0-11.906
					C1022.299,168.411,1022.286,180.317,1029.96,180.317L1029.96,180.317z"/>
			</g>
		</g>
		<g>
			<g>
				<path style="fill:#C7B299;" d="M1045.804,180.897c7.661,0,7.674-11.906,0-11.906
					C1038.143,168.991,1038.13,180.897,1045.804,180.897L1045.804,180.897z"/>
			</g>
		</g>
		<g>
			<g>
				<path style="fill:#C7B299;" d="M1060.671,181.179c7.661,0,7.674-11.906,0-11.906
					C1053.01,169.272,1052.998,181.179,1060.671,181.179L1060.671,181.179z"/>
			</g>
		</g>
		<g>
			<g>
				<path style="fill:#C7B299;" d="M1074.641,184.389c7.661,0,7.674-11.906,0-11.906
					C1066.98,172.483,1066.968,184.389,1074.641,184.389L1074.641,184.389z"/>
			</g>
		</g>
		<g>
			<g>
				<path style="fill:#C7B299;" d="M1091.62,191.726c7.661,0,7.674-11.906,0-11.906
					C1083.959,179.82,1083.946,191.726,1091.62,191.726L1091.62,191.726z"/>
			</g>
		</g>
		<g>
			<g>
				<path style="fill:#C7B299;" d="M1104.315,195.614c7.661,0,7.674-11.906,0-11.906
					C1096.654,183.708,1096.641,195.614,1104.315,195.614L1104.315,195.614z"/>
			</g>
		</g>
		<g>
			<g>
				<path style="fill:#C7B299;" d="M1117.388,201.755c7.661,0,7.674-11.906,0-11.906
					C1109.726,189.848,1109.714,201.755,1117.388,201.755L1117.388,201.755z"/>
			</g>
		</g>
		<g>
			<g>
				<path style="fill:#C7B299;" d="M1130.082,205.643c7.661,0,7.674-11.906,0-11.906
					C1122.421,193.736,1122.408,205.643,1130.082,205.643L1130.082,205.643z"/>
			</g>
		</g>
		<g>
			<g>
				<path style="fill:#C7B299;" d="M854.448,268.618c7.661,0,7.674-11.906,0-11.906
					C846.787,256.712,846.774,268.618,854.448,268.618L854.448,268.618z"/>
			</g>
		</g>
		<g>
			<g>
				<path style="fill:#C7B299;" d="M838.226,265.786c7.661,0,7.674-11.906,0-11.906
					C830.565,253.879,830.552,265.786,838.226,265.786L838.226,265.786z"/>
			</g>
		</g>
		<g>
			<g>
				<path style="fill:#C7B299;" d="M823.877,260.323c7.661,0,7.674-11.906,0-11.906
					C816.216,248.417,816.203,260.323,823.877,260.323L823.877,260.323z"/>
			</g>
		</g>
		<g>
			<g>
				<path style="fill:#C7B299;" d="M808.632,257.79c7.661,0,7.674-11.906,0-11.906C800.97,245.883,800.958,257.79,808.632,257.79
					L808.632,257.79z"/>
			</g>
		</g>
		<g>
			<g>
				<path style="fill:#C7B299;" d="M793.984,253.303c7.661,0,7.674-11.906,0-11.906C786.323,241.397,786.31,253.303,793.984,253.303
					L793.984,253.303z"/>
			</g>
		</g>
		<g>
			<g>
				<path style="fill:#C7B299;" d="M822.285,248.086c7.661,0,7.674-11.906,0-11.906C814.624,236.18,814.611,248.086,822.285,248.086
					L822.285,248.086z"/>
			</g>
		</g>
		<g>
			<g>
				<path style="fill:#C7B299;" d="M821.589,232.92c7.661,0,7.674-11.906,0-11.906C813.928,221.013,813.916,232.92,821.589,232.92
					L821.589,232.92z"/>
			</g>
		</g>
		<g>
			<g>
				<path style="fill:#C7B299;" d="M823.824,218.65c7.661,0,7.674-11.906,0-11.906C816.163,206.744,816.15,218.65,823.824,218.65
					L823.824,218.65z"/>
			</g>
		</g>
		<g>
			<g>
				<path style="fill:#C7B299;" d="M887.789,271.354c7.661,0,7.674-11.906,0-11.906
					C880.128,259.447,880.116,271.354,887.789,271.354L887.789,271.354z"/>
			</g>
		</g>
		<g>
			<g>
				<path style="fill:#C7B299;" d="M888.784,285.543c7.661,0,7.674-11.906,0-11.906C881.123,273.637,881.11,285.543,888.784,285.543
					L888.784,285.543z"/>
			</g>
		</g>
		<g>
			<g>
				<path style="fill:#C7B299;" d="M891.133,302.285c7.661,0,7.674-11.906,0-11.906
					C883.472,290.378,883.459,302.285,891.133,302.285L891.133,302.285z"/>
			</g>
		</g>
		<g>
			<g>
				<path style="fill:#C7B299;" d="M905.331,248.955c7.661,0,7.674-11.906,0-11.906C897.67,237.049,897.657,248.955,905.331,248.955
					L905.331,248.955z"/>
			</g>
		</g>
		<g>
			<g>
				<path style="fill:#C7B299;" d="M920.119,246.008c7.661,0,7.674-11.906,0-11.906
					C912.458,234.102,912.445,246.008,920.119,246.008L920.119,246.008z"/>
			</g>
		</g>
		<g>
			<g>
				<path style="fill:#C7B299;" d="M933.033,245.691c7.661,0,7.674-11.906,0-11.906
					C925.372,233.785,925.359,245.691,933.033,245.691L933.033,245.691z"/>
			</g>
		</g>
		<g>
			<g>
				<path style="fill:#C7B299;" d="M949.555,247.547c7.661,0,7.674-11.906,0-11.906
					C941.893,235.641,941.881,247.547,949.555,247.547L949.555,247.547z"/>
			</g>
		</g>
		<g>
			<g>
				<path style="fill:#C7B299;" d="M910.459,207.802c7.661,0,7.674-11.906,0-11.906
					C902.798,195.896,902.785,207.802,910.459,207.802L910.459,207.802z"/>
			</g>
		</g>
		<g>
			<g>
				<path style="fill:#C7B299;" d="M910.74,192.934c7.661,0,7.674-11.906,0-11.906C903.079,181.028,903.066,192.934,910.74,192.934
					L910.74,192.934z"/>
			</g>
		</g>
		<g>
			<g>
				<path style="fill:#C7B299;" d="M909.746,178.745c7.661,0,7.674-11.906,0-11.906
					C902.085,166.838,902.072,178.745,909.746,178.745L909.746,178.745z"/>
			</g>
		</g>
		<g>
			<g>
				<path style="fill:#C7B299;" d="M909.728,164.854c7.661,0,7.674-11.906,0-11.906
					C902.067,152.947,902.054,164.854,909.728,164.854L909.728,164.854z"/>
			</g>
		</g>
		<g>
			<g>
				<path style="fill:#C7B299;" d="M966.286,178.972c7.661,0,7.674-11.906,0-11.906
					C958.625,167.066,958.612,178.972,966.286,178.972L966.286,178.972z"/>
			</g>
		</g>
		<g>
			<g>
				<path style="fill:#C7B299;" d="M972.725,164.923c7.661,0,7.674-11.906,0-11.906
					C965.064,153.017,965.051,164.923,972.725,164.923L972.725,164.923z"/>
			</g>
		</g>
		<g>
			<g>
				<path style="fill:#C7B299;" d="M981.795,152.747c7.661,0,7.674-11.906,0-11.906
					C974.134,140.841,974.121,152.747,981.795,152.747L981.795,152.747z"/>
			</g>
		</g>
		<g>
			<g>
				<path style="fill:#C7B299;" d="M990.029,132.839c7.661,0,7.674-11.906,0-11.906
					C982.367,120.933,982.355,132.839,990.029,132.839L990.029,132.839z"/>
			</g>
		</g>
		<g>
			<g>
				<path style="fill:#C7B299;" d="M1006.182,198.669c7.661,0,7.674-11.906,0-11.906
					C998.52,186.762,998.508,198.669,1006.182,198.669L1006.182,198.669z"/>
			</g>
		</g>
		<g>
			<g>
				<path style="fill:#C7B299;" d="M1000.34,210.765c7.661,0,7.674-11.906,0-11.906
					C992.679,198.859,992.667,210.765,1000.34,210.765L1000.34,210.765z"/>
			</g>
		</g>
		<g>
			<g>
				<path style="fill:#C7B299;" d="M993.523,222.562c7.661,0,7.674-11.906,0-11.906
					C985.862,210.656,985.849,222.562,993.523,222.562L993.523,222.562z"/>
			</g>
		</g>
		<g>
			<g>
				<path style="fill:#C7B299;" d="M988.658,234.958c7.661,0,7.674-11.906,0-11.906
					C980.997,223.051,980.984,234.958,988.658,234.958L988.658,234.958z"/>
			</g>
		</g>
		<g>
			<g>
				<path style="fill:#C7B299;" d="M982.518,248.03c7.661,0,7.674-11.906,0-11.906C974.857,236.124,974.844,248.03,982.518,248.03
					L982.518,248.03z"/>
			</g>
		</g>
		<g>
			<g>
				<path style="fill:#C7B299;" d="M1010.563,219.236c7.661,0,7.674-11.906,0-11.906
					C1002.902,207.33,1002.889,219.236,1010.563,219.236L1010.563,219.236z"/>
			</g>
		</g>
		<g>
			<g>
				<path style="fill:#C7B299;" d="M1014.108,232.072c7.661,0,7.674-11.906,0-11.906
					C1006.447,220.165,1006.435,232.072,1014.108,232.072L1014.108,232.072z"/>
			</g>
		</g>
		<g>
			<g>
				<path style="fill:#C7B299;" d="M1019.229,243.253c7.661,0,7.674-11.906,0-11.906
					C1011.568,231.347,1011.555,243.253,1019.229,243.253L1019.229,243.253z"/>
			</g>
		</g>
		<g>
			<g>
				<path style="fill:#C7B299;" d="M1042.259,168.062c7.661,0,7.674-11.906,0-11.906
					C1034.597,156.156,1034.585,168.062,1042.259,168.062L1042.259,168.062z"/>
			</g>
		</g>
		<g>
			<g>
				<path style="fill:#C7B299;" d="M1056.967,161.886c7.661,0,7.674-11.906,0-11.906
					C1049.306,149.98,1049.294,161.886,1056.967,161.886L1056.967,161.886z"/>
			</g>
		</g>
		<g>
			<g>
				<path style="fill:#C7B299;" d="M1073.031,158.262c7.661,0,7.674-11.906,0-11.906
					C1065.37,146.355,1065.357,158.262,1073.031,158.262L1073.031,158.262z"/>
			</g>
		</g>
		<g>
			<g>
				<path style="fill:#C7B299;" d="M1087.142,154.039c7.661,0,7.674-11.906,0-11.906
					C1079.481,142.133,1079.468,154.039,1087.142,154.039L1087.142,154.039z"/>
			</g>
		</g>
		<g>
			<g>
				<path style="fill:#C7B299;" d="M1099.977,150.493c7.661,0,7.674-11.906,0-11.906
					C1092.316,138.587,1092.303,150.493,1099.977,150.493L1099.977,150.493z"/>
			</g>
		</g>
		<g>
			<g>
				<path style="fill:#C7B299;" d="M1064.005,145.884c7.661,0,7.674-11.906,0-11.906
					C1056.344,133.978,1056.331,145.884,1064.005,145.884L1064.005,145.884z"/>
			</g>
		</g>
		<g>
			<g>
				<path style="fill:#C7B299;" d="M1066.538,130.638c7.661,0,7.674-11.906,0-11.906
					C1058.877,118.732,1058.865,130.638,1066.538,130.638L1066.538,130.638z"/>
			</g>
		</g>
		<g>
			<g>
				<path style="fill:#C7B299;" d="M1082.172,201.65c7.661,0,7.674-11.906,0-11.906
					C1074.511,189.743,1074.498,201.65,1082.172,201.65L1082.172,201.65z"/>
			</g>
		</g>
		<g>
			<g>
				<path style="fill:#C7B299;" d="M1092.474,213.35c7.661,0,7.674-11.906,0-11.906C1084.813,201.443,1084.8,213.35,1092.474,213.35
					L1092.474,213.35z"/>
			</g>
		</g>
		<g>
			<g>
				<path style="fill:#C7B299;" d="M1097.973,226.783c7.661,0,7.674-11.906,0-11.906
					C1090.311,214.877,1090.299,226.783,1097.973,226.783L1097.973,226.783z"/>
			</g>
		</g>
		<g>
			<g>
				<path style="fill:#C7B299;" d="M1106.871,235.873c7.661,0,7.674-11.906,0-11.906
					C1099.21,223.966,1099.197,235.873,1106.871,235.873L1106.871,235.873z"/>
			</g>
		</g>
		<g>
			<g>
				<path style="fill:#C7B299;" d="M1119.323,188.462c7.661,0,7.674-11.906,0-11.906
					C1111.662,176.556,1111.649,188.462,1119.323,188.462L1119.323,188.462z"/>
			</g>
		</g>
		<g>
			<g>
				<path style="fill:#C7B299;" d="M1132.079,181.688c7.661,0,7.674-11.906,0-11.906
					C1124.417,169.781,1124.405,181.688,1132.079,181.688L1132.079,181.688z"/>
			</g>
		</g>
		<g>
			<g>
				<path style="fill:#C7B299;" d="M1147.685,172.582c7.661,0,7.674-11.906,0-11.906
					C1140.024,160.676,1140.011,172.582,1147.685,172.582L1147.685,172.582z"/>
			</g>
		</g>
		<g>
			<g>
				<path style="fill:#C7B299;" d="M837.303,307.159c7.661,0,7.674-11.906,0-11.906
					C829.642,295.253,829.629,307.159,837.303,307.159L837.303,307.159z"/>
			</g>
		</g>
	</g>
	<g>
		<g>
			<path style="fill:#FFFFFF;" d="M828.464,206.987c7.661,0,7.674-11.906,0-11.906C820.803,195.081,820.79,206.987,828.464,206.987
				L828.464,206.987z"/>
		</g>
	</g>
	<g>
		<g>
			<path style="fill:#FFFFFF;" d="M819.346,210.603c7.661,0,7.674-11.906,0-11.906C811.685,198.697,811.672,210.603,819.346,210.603
				L819.346,210.603z"/>
		</g>
	</g>
	<g>
		<g>
			<path style="fill:#FFFFFF;" d="M812.887,223.845c7.661,0,7.674-11.906,0-11.906C805.226,211.939,805.213,223.845,812.887,223.845
				L812.887,223.845z"/>
		</g>
	</g>
	<g>
		<g>
			<path style="fill:#FFFFFF;" d="M813.916,236.177c7.661,0,7.674-11.906,0-11.906C806.255,224.271,806.242,236.177,813.916,236.177
				L813.916,236.177z"/>
		</g>
	</g>
	<g>
		<g>
			<path style="fill:#FFFFFF;" d="M815.678,248.733c7.661,0,7.674-11.906,0-11.906C808.017,236.826,808.004,248.733,815.678,248.733
				L815.678,248.733z"/>
		</g>
	</g>
	<g>
		<g>
			<path style="fill:#FFFFFF;" d="M804.303,249.254c7.661,0,7.674-11.906,0-11.906C796.642,237.348,796.629,249.254,804.303,249.254
				L804.303,249.254z"/>
		</g>
	</g>
	<g>
		<g>
			<path style="fill:#FFFFFF;" d="M788.072,239.476c7.661,0,7.674-11.906,0-11.906C780.411,227.57,780.398,239.476,788.072,239.476
				L788.072,239.476z"/>
		</g>
	</g>
	<g>
		<g>
			<path style="fill:#FFFFFF;" d="M780.881,252.494c7.661,0,7.674-11.906,0-11.906C773.219,240.588,773.207,252.494,780.881,252.494
				L780.881,252.494z"/>
		</g>
	</g>
	<g>
		<g>
			<path style="fill:#FFFFFF;" d="M784.721,260.88c7.661,0,7.674-11.906,0-11.906C777.06,248.974,777.047,260.88,784.721,260.88
				L784.721,260.88z"/>
		</g>
	</g>
	<g>
		<g>
			<path style="fill:#FFFFFF;" d="M792.883,262.851c0.244,0.075,0.488,0.15,0.732,0.224c0.791,0.248,1.583,0.284,2.374,0.106
				c0.792-0.036,1.53-0.271,2.213-0.706c0.694-0.374,1.25-0.885,1.67-1.533c0.526-0.575,0.881-1.25,1.066-2.025
				c0.071-0.528,0.142-1.055,0.213-1.583c-0.003-1.075-0.274-2.076-0.813-3.005c-0.31-0.402-0.621-0.803-0.931-1.205
				c-0.743-0.738-1.618-1.248-2.627-1.531c-0.244-0.075-0.488-0.15-0.732-0.224c-0.791-0.248-1.583-0.284-2.374-0.106
				c-0.792,0.036-1.53,0.271-2.213,0.706c-0.694,0.374-1.25,0.885-1.67,1.533c-0.526,0.575-0.881,1.25-1.066,2.025
				c-0.071,0.528-0.142,1.055-0.213,1.583c0.003,1.075,0.274,2.076,0.813,3.005c0.31,0.402,0.621,0.803,0.931,1.205
				C790.999,262.058,791.875,262.568,792.883,262.851L792.883,262.851z"/>
		</g>
	</g>
	<g>
		<g>
			<path style="fill:#FFFFFF;" d="M807.424,267.834c7.661,0,7.674-11.906,0-11.906C799.763,255.928,799.751,267.834,807.424,267.834
				L807.424,267.834z"/>
		</g>
	</g>
	<g>
		<g>
			<path style="fill:#FFFFFF;" d="M821.504,268.942c7.661,0,7.674-11.906,0-11.906C813.843,257.036,813.831,268.942,821.504,268.942
				L821.504,268.942z"/>
		</g>
	</g>
	<g>
		<g>
			<path style="fill:#FFFFFF;" d="M831.817,274.504c7.661,0,7.674-11.906,0-11.906C824.156,262.598,824.143,274.504,831.817,274.504
				L831.817,274.504z"/>
		</g>
	</g>
	<g>
		<g>
			<path style="fill:#FFFFFF;" d="M842.743,275.447c7.661,0,7.674-11.906,0-11.906C835.082,263.541,835.069,275.447,842.743,275.447
				L842.743,275.447z"/>
		</g>
	</g>
	<g>
		<g>
			<path style="fill:#FFFFFF;" d="M856.315,275.599c7.661,0,7.674-11.906,0-11.906C848.654,263.693,848.641,275.599,856.315,275.599
				L856.315,275.599z"/>
		</g>
	</g>
	<g>
		<g>
			<path style="fill:#FFFFFF;" d="M848.332,285.971c7.661,0,7.674-11.906,0-11.906C840.671,274.065,840.658,285.971,848.332,285.971
				L848.332,285.971z"/>
		</g>
	</g>
	<g>
		<g>
			<path style="fill:#FFFFFF;" d="M841.919,291.216c7.661,0,7.674-11.906,0-11.906C834.258,279.31,834.245,291.216,841.919,291.216
				L841.919,291.216z"/>
		</g>
	</g>
	<g>
		<g>
			<path style="fill:#FFFFFF;" d="M830.274,300.467c7.661,0,7.674-11.906,0-11.906C822.612,288.561,822.6,300.467,830.274,300.467
				L830.274,300.467z"/>
		</g>
	</g>
	<g>
		<g>
			<path style="fill:#FFFFFF;" d="M827.925,313.366c7.661,0,7.674-11.906,0-11.906C820.264,301.46,820.251,313.366,827.925,313.366
				L827.925,313.366z"/>
		</g>
	</g>
	<g>
		<g>
			<path style="fill:#FFFFFF;" d="M839.702,319.376c7.661,0,7.674-11.906,0-11.906C832.041,307.47,832.029,319.376,839.702,319.376
				L839.702,319.376z"/>
		</g>
	</g>
	<g>
		<g>
			<path style="fill:#FFFFFF;" d="M851.123,310.858c7.661,0,7.674-11.906,0-11.906C843.462,298.952,843.449,310.858,851.123,310.858
				L851.123,310.858z"/>
		</g>
	</g>
	<g>
		<g>
			<path style="fill:#FFFFFF;" d="M857.642,300.037c7.661,0,7.674-11.906,0-11.906C849.981,288.131,849.968,300.037,857.642,300.037
				L857.642,300.037z"/>
		</g>
	</g>
	<g>
		<g>
			<path style="fill:#FFFFFF;" d="M867.09,290.114c7.661,0,7.674-11.906,0-11.906C859.429,278.208,859.416,290.114,867.09,290.114
				L867.09,290.114z"/>
		</g>
	</g>
	<g>
		<g>
			<path style="fill:#FFFFFF;" d="M877.435,277.261c7.661,0,7.674-11.906,0-11.906C869.774,265.355,869.761,277.261,877.435,277.261
				L877.435,277.261z"/>
		</g>
	</g>
	<g>
		<g>
			<path style="fill:#FFFFFF;" d="M881.335,288.068c7.661,0,7.674-11.906,0-11.906C873.674,276.162,873.661,288.068,881.335,288.068
				L881.335,288.068z"/>
		</g>
	</g>
	<g>
		<g>
			<path style="fill:#FFFFFF;" d="M881.632,300.176c7.661,0,7.674-11.906,0-11.906C873.971,288.269,873.958,300.176,881.632,300.176
				L881.632,300.176z"/>
		</g>
	</g>
	<g>
		<g>
			<path style="fill:#FFFFFF;" d="M884.858,313.18c7.661,0,7.674-11.906,0-11.906C877.197,301.274,877.185,313.18,884.858,313.18
				L884.858,313.18z"/>
		</g>
	</g>
	<g>
		<g>
			<path style="fill:#FFFFFF;" d="M899.611,312.091c7.661,0,7.674-11.906,0-11.906C891.95,300.185,891.938,312.091,899.611,312.091
				L899.611,312.091z"/>
		</g>
	</g>
	<g>
		<g>
			<path style="fill:#FFFFFF;" d="M906.13,301.27c7.661,0,7.674-11.906,0-11.906C898.469,289.364,898.456,301.27,906.13,301.27
				L906.13,301.27z"/>
		</g>
	</g>
	<g>
		<g>
			<path style="fill:#FFFFFF;" d="M902.349,295.306c7.661,0,7.674-11.906,0-11.906C894.688,283.4,894.676,295.306,902.349,295.306
				L902.349,295.306z"/>
		</g>
	</g>
	<g>
		<g>
			<path style="fill:#FFFFFF;" d="M897.717,284.274c7.661,0,7.674-11.906,0-11.906C890.056,272.368,890.044,284.274,897.717,284.274
				L897.717,284.274z"/>
		</g>
	</g>
	<g>
		<g>
			<path style="fill:#FFFFFF;" d="M895.566,275.605c7.661,0,7.674-11.906,0-11.906C887.905,263.698,887.893,275.605,895.566,275.605
				L895.566,275.605z"/>
		</g>
	</g>
	<g>
		<g>
			<path style="fill:#FFFFFF;" d="M894.313,264.005c7.661,0,7.674-11.906,0-11.906C886.651,252.099,886.639,264.005,894.313,264.005
				L894.313,264.005z"/>
		</g>
	</g>
	<g>
		<g>
			<path style="fill:#FFFFFF;" d="M902.804,254.59c7.661,0,7.674-11.906,0-11.906C895.143,242.684,895.13,254.59,902.804,254.59
				L902.804,254.59z"/>
		</g>
	</g>
	<g>
		<g>
			<path style="fill:#FFFFFF;" d="M916.376,254.742c7.661,0,7.674-11.906,0-11.906C908.715,242.835,908.702,254.742,916.376,254.742
				L916.376,254.742z"/>
		</g>
	</g>
	<g>
		<g>
			<path style="fill:#FFFFFF;" d="M929.948,254.893c7.661,0,7.674-11.906,0-11.906C922.287,242.987,922.274,254.893,929.948,254.893
				L929.948,254.893z"/>
		</g>
	</g>
	<g>
		<g>
			<path style="fill:#FFFFFF;" d="M945.209,254.761c7.661,0,7.674-11.906,0-11.906C937.548,242.855,937.535,254.761,945.209,254.761
				L945.209,254.761z"/>
		</g>
	</g>
	<g>
		<g>
			<path style="fill:#FFFFFF;" d="M958.167,259.531c7.661,0,7.674-11.906,0-11.906C950.506,247.625,950.493,259.531,958.167,259.531
				L958.167,259.531z"/>
		</g>
	</g>
	<g>
		<g>
			<path style="fill:#FFFFFF;" d="M962.937,246.573c7.661,0,7.674-11.906,0-11.906C955.276,234.666,955.263,246.573,962.937,246.573
				L962.937,246.573z"/>
		</g>
	</g>
	<g>
		<g>
			<path style="fill:#FFFFFF;" d="M956.392,236.557c7.661,0,7.674-11.906,0-11.906C948.731,224.651,948.718,236.557,956.392,236.557
				L956.392,236.557z"/>
		</g>
	</g>
	<g>
		<g>
			<path style="fill:#FFFFFF;" d="M943.328,237.362c7.661,0,7.674-11.906,0-11.906C935.667,225.456,935.654,237.362,943.328,237.362
				L943.328,237.362z"/>
		</g>
	</g>
	<g>
		<g>
			<path style="fill:#FFFFFF;" d="M930.937,235.97c7.661,0,7.674-11.906,0-11.906C923.276,224.064,923.263,235.97,930.937,235.97
				L930.937,235.97z"/>
		</g>
	</g>
	<g>
		<g>
			<path style="fill:#FFFFFF;" d="M920.519,235.984c7.661,0,7.674-11.906,0-11.906C912.858,224.077,912.845,235.984,920.519,235.984
				L920.519,235.984z"/>
		</g>
	</g>
	<g>
		<g>
			<path style="fill:#FFFFFF;" d="M911.117,237.91c7.661,0,7.674-11.906,0-11.906C903.456,226.004,903.443,237.91,911.117,237.91
				L911.117,237.91z"/>
		</g>
	</g>
	<g>
		<g>
			<path style="fill:#FFFFFF;" d="M924.557,222.801c7.661,0,7.674-11.906,0-11.906C916.896,210.895,916.883,222.801,924.557,222.801
				L924.557,222.801z"/>
		</g>
	</g>
	<g>
		<g>
			<path style="fill:#FFFFFF;" d="M939.864,214.672c7.661,0,7.674-11.906,0-11.906C932.203,202.766,932.19,214.672,939.864,214.672
				L939.864,214.672z"/>
		</g>
	</g>
	<g>
		<g>
			<path style="fill:#FFFFFF;" d="M955.23,208.964c7.661,0,7.674-11.906,0-11.906C947.569,197.058,947.556,208.964,955.23,208.964
				L955.23,208.964z"/>
		</g>
	</g>
	<g>
		<g>
			<path style="fill:#FFFFFF;" d="M968.459,205.005c7.661,0,7.674-11.906,0-11.906C960.798,193.099,960.785,205.005,968.459,205.005
				L968.459,205.005z"/>
		</g>
	</g>
	<g>
		<g>
			<path style="fill:#FFFFFF;" d="M981.12,197.668c7.661,0,7.674-11.906,0-11.906C973.459,185.762,973.447,197.668,981.12,197.668
				L981.12,197.668z"/>
		</g>
	</g>
	<g>
		<g>
			<path style="fill:#FFFFFF;" d="M992.66,193.993c7.661,0,7.674-11.906,0-11.906C984.999,182.087,984.986,193.993,992.66,193.993
				L992.66,193.993z"/>
		</g>
	</g>
	<g>
		<g>
			<path style="fill:#FFFFFF;" d="M991.552,208.073c7.661,0,7.674-11.906,0-11.906C983.891,196.167,983.878,208.073,991.552,208.073
				L991.552,208.073z"/>
		</g>
	</g>
	<g>
		<g>
			<path style="fill:#FFFFFF;" d="M982.612,218.953c7.661,0,7.674-11.906,0-11.906C974.951,207.047,974.938,218.953,982.612,218.953
				L982.612,218.953z"/>
		</g>
	</g>
	<g>
		<g>
			<path style="fill:#FFFFFF;" d="M980.428,228.698c7.661,0,7.674-11.906,0-11.906C972.767,216.792,972.754,228.698,980.428,228.698
				L980.428,228.698z"/>
		</g>
	</g>
	<g>
		<g>
			<path style="fill:#FFFFFF;" d="M976.839,240.416c7.661,0,7.674-11.906,0-11.906C969.178,228.51,969.165,240.416,976.839,240.416
				L976.839,240.416z"/>
		</g>
	</g>
	<g>
		<g>
			<path style="fill:#FFFFFF;" d="M977.196,254.945c7.661,0,7.674-11.906,0-11.906C969.534,243.039,969.522,254.945,977.196,254.945
				L977.196,254.945z"/>
		</g>
	</g>
	<g>
		<g>
			<path style="fill:#FFFFFF;" d="M990.543,255.829c7.661,0,7.674-11.906,0-11.906C982.882,243.923,982.869,255.829,990.543,255.829
				L990.543,255.829z"/>
		</g>
	</g>
	<g>
		<g>
			<path style="fill:#FFFFFF;" d="M997.735,242.811c7.661,0,7.674-11.906,0-11.906C990.074,230.905,990.061,242.811,997.735,242.811
				L997.735,242.811z"/>
		</g>
	</g>
	<g>
		<g>
			<path style="fill:#FFFFFF;" d="M1000.024,227.491c7.661,0,7.674-11.906,0-11.906
				C992.363,215.584,992.35,227.491,1000.024,227.491L1000.024,227.491z"/>
		</g>
	</g>
	<g>
		<g>
			<path style="fill:#FFFFFF;" d="M1007.81,238.687c7.661,0,7.674-11.906,0-11.906
				C1000.149,226.781,1000.136,238.687,1007.81,238.687L1007.81,238.687z"/>
		</g>
	</g>
	<g>
		<g>
			<path style="fill:#FFFFFF;" d="M1015.879,251.573c7.661,0,7.674-11.906,0-11.906
				C1008.218,239.667,1008.205,251.573,1015.879,251.573L1015.879,251.573z"/>
		</g>
	</g>
	<g>
		<g>
			<path style="fill:#FFFFFF;" d="M1029.227,252.457c7.661,0,7.674-11.906,0-11.906
				C1021.566,240.551,1021.553,252.457,1029.227,252.457L1029.227,252.457z"/>
		</g>
	</g>
	<g>
		<g>
			<path style="fill:#FFFFFF;" d="M1030.111,239.109c7.661,0,7.674-11.906,0-11.906
				C1022.45,227.203,1022.437,239.109,1030.111,239.109L1030.111,239.109z"/>
		</g>
	</g>
	<g>
		<g>
			<path style="fill:#FFFFFF;" d="M1023.117,230.558c7.661,0,7.674-11.906,0-11.906
				C1015.456,218.652,1015.443,230.558,1023.117,230.558L1023.117,230.558z"/>
		</g>
	</g>
	<g>
		<g>
			<path style="fill:#FFFFFF;" d="M1022.82,218.451c7.661,0,7.674-11.906,0-11.906
				C1015.159,206.545,1015.146,218.451,1022.82,218.451L1022.82,218.451z"/>
		</g>
	</g>
	<g>
		<g>
			<path style="fill:#FFFFFF;" d="M1016.782,209.392c7.661,0,7.674-11.906,0-11.906
				C1009.121,197.486,1009.109,209.392,1016.782,209.392L1016.782,209.392z"/>
		</g>
	</g>
	<g>
		<g>
			<path style="fill:#FFFFFF;" d="M1018.847,194.804c7.661,0,7.674-11.906,0-11.906
				C1011.186,182.898,1011.174,194.804,1018.847,194.804L1018.847,194.804z"/>
		</g>
	</g>
	<g>
		<g>
			<path style="fill:#FFFFFF;" d="M1033.033,190.337c7.661,0,7.674-11.906,0-11.906
				C1025.372,178.431,1025.359,190.337,1033.033,190.337L1033.033,190.337z"/>
		</g>
	</g>
	<g>
		<g>
			<path style="fill:#FFFFFF;" d="M1046.77,187.335c7.661,0,7.674-11.906,0-11.906
				C1039.109,175.429,1039.096,187.335,1046.77,187.335L1046.77,187.335z"/>
		</g>
	</g>
	<g>
		<g>
			<path style="fill:#FFFFFF;" d="M1061.358,189.4c7.661,0,7.674-11.906,0-11.906C1053.697,177.493,1053.684,189.4,1061.358,189.4
				L1061.358,189.4z"/>
		</g>
	</g>
	<g>
		<g>
			<path style="fill:#FFFFFF;" d="M1073.643,196.367c7.661,0,7.674-11.906,0-11.906
				C1065.982,184.461,1065.969,196.367,1073.643,196.367L1073.643,196.367z"/>
		</g>
	</g>
	<g>
		<g>
			<path style="fill:#FFFFFF;" d="M1079.351,211.733c7.661,0,7.674-11.906,0-11.906
				C1071.69,199.827,1071.677,211.733,1079.351,211.733L1079.351,211.733z"/>
		</g>
	</g>
	<g>
		<g>
			<path style="fill:#FFFFFF;" d="M1084.939,222.257c7.661,0,7.674-11.906,0-11.906
				C1077.278,210.351,1077.266,222.257,1084.939,222.257L1084.939,222.257z"/>
		</g>
	</g>
	<g>
		<g>
			<path style="fill:#FFFFFF;" d="M1091.993,233.229c7.661,0,7.674-11.906,0-11.906
				C1084.332,221.323,1084.319,233.229,1091.993,233.229L1091.993,233.229z"/>
		</g>
	</g>
	<g>
		<g>
			<path style="fill:#FFFFFF;" d="M1101.019,245.607c7.661,0,7.674-11.906,0-11.906
				C1093.358,233.701,1093.345,245.607,1101.019,245.607L1101.019,245.607z"/>
		</g>
	</g>
	<g>
		<g>
			<path style="fill:#FFFFFF;" d="M1115.547,245.25c7.661,0,7.674-11.906,0-11.906
				C1107.886,233.344,1107.874,245.25,1115.547,245.25L1115.547,245.25z"/>
		</g>
	</g>
	<g>
		<g>
			<path style="fill:#FFFFFF;" d="M1118.912,234.265c7.661,0,7.674-11.906,0-11.906
				C1111.251,222.358,1111.238,234.265,1118.912,234.265L1118.912,234.265z"/>
		</g>
	</g>
	<g>
		<g>
			<path style="fill:#FFFFFF;" d="M1111.635,224.025c7.661,0,7.674-11.906,0-11.906
				C1103.974,212.119,1103.961,224.025,1111.635,224.025L1111.635,224.025z"/>
		</g>
	</g>
	<g>
		<g>
			<path style="fill:#FFFFFF;" d="M1100.695,212.663c7.661,0,7.674-11.906,0-11.906
				C1093.034,200.757,1093.021,212.663,1100.695,212.663L1100.695,212.663z"/>
		</g>
	</g>
	<g>
		<g>
			<path style="fill:#FFFFFF;" d="M1091.877,191.779c-0.319,0.169-0.638,0.339-0.957,0.508c-0.694,0.374-1.25,0.885-1.67,1.533
				c-0.526,0.575-0.881,1.25-1.066,2.025c-0.248,0.791-0.283,1.583-0.106,2.374c0.036,0.792,0.271,1.53,0.707,2.213
				c0.31,0.402,0.62,0.803,0.931,1.205c0.743,0.738,1.618,1.248,2.627,1.531c0.527,0.071,1.055,0.142,1.583,0.213
				c1.075-0.003,2.076-0.274,3.005-0.813c0.319-0.169,0.638-0.339,0.957-0.508c0.694-0.374,1.25-0.885,1.67-1.533
				c0.526-0.575,0.881-1.25,1.066-2.025c0.248-0.791,0.283-1.583,0.106-2.374c-0.036-0.792-0.271-1.53-0.707-2.213
				c-0.31-0.402-0.62-0.803-0.931-1.205c-0.743-0.738-1.618-1.248-2.627-1.531c-0.527-0.071-1.055-0.142-1.583-0.213
				C1093.807,190.969,1092.806,191.24,1091.877,191.779L1091.877,191.779z"/>
		</g>
	</g>
	<g>
		<g>
			<path style="fill:#FFFFFF;" d="M1110.203,205.161c7.661,0,7.674-11.906,0-11.906
				C1102.541,193.255,1102.529,205.161,1110.203,205.161L1110.203,205.161z"/>
		</g>
	</g>
	<g>
		<g>
			<path style="fill:#FFFFFF;" d="M1120.74,209.991c7.661,0,7.674-11.906,0-11.906
				C1113.078,198.085,1113.066,209.991,1120.74,209.991L1120.74,209.991z"/>
		</g>
	</g>
	<g>
		<g>
			<path style="fill:#FFFFFF;" d="M1134.371,212.564c7.661,0,7.674-11.906,0-11.906
				C1126.71,200.658,1126.697,212.564,1134.371,212.564L1134.371,212.564z"/>
		</g>
	</g>
	<g>
		<g>
			<path style="fill:#FFFFFF;" d="M1144.281,211.594c7.661,0,7.674-11.906,0-11.906
				C1136.62,199.688,1136.607,211.594,1144.281,211.594L1144.281,211.594z"/>
		</g>
	</g>
	<g>
		<g>
			<path style="fill:#FFFFFF;" d="M1142.578,201.459c7.661,0,7.674-11.906,0-11.906
				C1134.917,189.553,1134.905,201.459,1142.578,201.459L1142.578,201.459z"/>
		</g>
	</g>
	<g>
		<g>
			<path style="fill:#FFFFFF;" d="M1135.42,196.062c7.661,0,7.674-11.906,0-11.906
				C1127.759,184.156,1127.746,196.062,1135.42,196.062L1135.42,196.062z"/>
		</g>
	</g>
	<g>
		<g>
			<path style="fill:#FFFFFF;" d="M1122.296,194.446c7.661,0,7.674-11.906,0-11.906
				C1114.635,182.54,1114.623,194.446,1122.296,194.446L1122.296,194.446z"/>
		</g>
	</g>
	<g>
		<g>
			<path style="fill:#FFFFFF;" d="M1140.638,181.639c7.661,0,7.674-11.906,0-11.906
				C1132.977,169.733,1132.965,181.639,1140.638,181.639L1140.638,181.639z"/>
		</g>
	</g>
	<g>
		<g>
			<path style="fill:#FFFFFF;" d="M1153.135,177.456c7.661,0,7.674-11.906,0-11.906
				C1145.474,165.55,1145.461,177.456,1153.135,177.456L1153.135,177.456z"/>
		</g>
	</g>
	<g>
		<g>
			<path style="fill:#FFFFFF;" d="M1162.642,169.954c7.661,0,7.674-11.906,0-11.906
				C1154.981,158.048,1154.969,169.954,1162.642,169.954L1162.642,169.954z"/>
		</g>
	</g>
	<g>
		<g>
			<path style="fill:#FFFFFF;" d="M1157.172,164.273c7.661,0,7.674-11.906,0-11.906
				C1149.511,152.367,1149.499,164.273,1157.172,164.273L1157.172,164.273z"/>
		</g>
	</g>
	<g>
		<g>
			<path style="fill:#FFFFFF;" d="M1148.1,159.892c7.661,0,7.674-11.906,0-11.906C1140.439,147.986,1140.426,159.892,1148.1,159.892
				L1148.1,159.892z"/>
		</g>
	</g>
	<g>
		<g>
			<path style="fill:#FFFFFF;" d="M1136.171,167.454c7.661,0,7.674-11.906,0-11.906
				C1128.51,155.547,1128.497,167.454,1136.171,167.454L1136.171,167.454z"/>
		</g>
	</g>
	<g>
		<g>
			<path style="fill:#FFFFFF;" d="M1127.561,172.026c7.661,0,7.674-11.906,0-11.906
				C1119.9,160.12,1119.887,172.026,1127.561,172.026L1127.561,172.026z"/>
		</g>
	</g>
	<g>
		<g>
			<path style="fill:#FFFFFF;" d="M1117.77,177.839c7.661,0,7.674-11.906,0-11.906
				C1110.109,165.933,1110.096,177.839,1117.77,177.839L1117.77,177.839z"/>
		</g>
	</g>
	<g>
		<g>
			<path style="fill:#FFFFFF;" d="M1106.065,184.668c7.661,0,7.674-11.906,0-11.906
				C1098.404,172.762,1098.391,184.668,1106.065,184.668L1106.065,184.668z"/>
		</g>
	</g>
	<g>
		<g>
			<path style="fill:#FFFFFF;" d="M1095.08,181.303c7.661,0,7.674-11.906,0-11.906
				C1087.418,169.397,1087.406,181.303,1095.08,181.303L1095.08,181.303z"/>
		</g>
	</g>
	<g>
		<g>
			<path style="fill:#FFFFFF;" d="M1087.023,178.836c7.661,0,7.674-11.906,0-11.906
				C1079.362,166.93,1079.35,178.836,1087.023,178.836L1087.023,178.836z"/>
		</g>
	</g>
	<g>
		<g>
			<path style="fill:#FFFFFF;" d="M1074.573,175.023c7.661,0,7.674-11.906,0-11.906
				C1066.912,163.116,1066.899,175.023,1074.573,175.023L1074.573,175.023z"/>
		</g>
	</g>
	<g>
		<g>
			<path style="fill:#FFFFFF;" d="M1058.745,171.777c7.661,0,7.674-11.906,0-11.906
				C1051.083,159.87,1051.071,171.777,1058.745,171.777L1058.745,171.777z"/>
		</g>
	</g>
	<g>
		<g>
			<path style="fill:#FFFFFF;" d="M1068.075,162.089c0.244,0.075,0.488,0.15,0.732,0.224c0.791,0.248,1.583,0.284,2.374,0.106
				c0.792-0.036,1.53-0.271,2.213-0.706c0.694-0.374,1.25-0.885,1.67-1.533c0.526-0.575,0.881-1.25,1.066-2.025
				c0.071-0.528,0.142-1.055,0.213-1.583c-0.003-1.075-0.274-2.076-0.813-3.005c-0.31-0.402-0.621-0.803-0.931-1.205
				c-0.743-0.738-1.618-1.248-2.627-1.531c-0.244-0.075-0.488-0.15-0.732-0.224c-0.791-0.248-1.583-0.284-2.374-0.106
				c-0.792,0.036-1.53,0.271-2.213,0.706c-0.694,0.374-1.25,0.885-1.67,1.533c-0.526,0.575-0.881,1.25-1.066,2.025
				c-0.071,0.528-0.142,1.055-0.213,1.583c0.003,1.075,0.274,2.076,0.813,3.005c0.31,0.402,0.621,0.803,0.931,1.205
				C1066.191,161.296,1067.066,161.806,1068.075,162.089L1068.075,162.089z"/>
		</g>
	</g>
	<g>
		<g>
			<path style="fill:#FFFFFF;" d="M1084.186,161.945c7.661,0,7.674-11.906,0-11.906
				C1076.525,150.039,1076.512,161.945,1084.186,161.945L1084.186,161.945z"/>
		</g>
	</g>
	<g>
		<g>
			<path style="fill:#FFFFFF;" d="M1096.907,157.03c7.661,0,7.674-11.906,0-11.906
				C1089.246,145.123,1089.233,157.03,1096.907,157.03L1096.907,157.03z"/>
		</g>
	</g>
	<g>
		<g>
			<path style="fill:#FFFFFF;" d="M1107.833,157.973c7.661,0,7.674-11.906,0-11.906
				C1100.172,146.067,1100.159,157.973,1107.833,157.973L1107.833,157.973z"/>
		</g>
	</g>
	<g>
		<g>
			<path style="fill:#FFFFFF;" d="M1112.214,148.901c7.661,0,7.674-11.906,0-11.906
				C1104.553,136.994,1104.54,148.901,1112.214,148.901L1112.214,148.901z"/>
		</g>
	</g>
	<g>
		<g>
			<path style="fill:#FFFFFF;" d="M1106.177,139.842c7.661,0,7.674-11.906,0-11.906
				C1098.516,127.936,1098.503,139.842,1106.177,139.842L1106.177,139.842z"/>
		</g>
	</g>
	<g>
		<g>
			<path style="fill:#FFFFFF;" d="M1095.758,139.855c7.661,0,7.674-11.906,0-11.906
				C1088.097,127.949,1088.085,139.855,1095.758,139.855L1095.758,139.855z"/>
		</g>
	</g>
	<g>
		<g>
			<path style="fill:#FFFFFF;" d="M1089.286,142.679c7.661,0,7.674-11.906,0-11.906
				C1081.625,130.773,1081.612,142.679,1089.286,142.679L1089.286,142.679z"/>
		</g>
	</g>
	<g>
		<g>
			<path style="fill:#FFFFFF;" d="M1076.341,148.327c7.661,0,7.674-11.906,0-11.906
				C1068.68,136.421,1068.667,148.327,1076.341,148.327L1076.341,148.327z"/>
		</g>
	</g>
	<g>
		<g>
			<path style="fill:#FFFFFF;" d="M1078.241,136.893c7.661,0,7.674-11.906,0-11.906
				C1070.58,124.987,1070.567,136.893,1078.241,136.893L1078.241,136.893z"/>
		</g>
	</g>
	<g>
		<g>
			<path style="fill:#FFFFFF;" d="M1080.365,124.726c7.661,0,7.674-11.906,0-11.906
				C1072.704,112.82,1072.691,124.726,1080.365,124.726L1080.365,124.726z"/>
		</g>
	</g>
	<g>
		<g>
			<path style="fill:#FFFFFF;" d="M1079.171,115.549c7.661,0,7.674-11.906,0-11.906
				C1071.51,103.642,1071.497,115.549,1079.171,115.549L1079.171,115.549z"/>
		</g>
	</g>
	<g>
		<g>
			<path style="fill:#FFFFFF;" d="M1069.709,115.054c7.661,0,7.674-11.906,0-11.906
				C1062.048,103.148,1062.036,115.054,1069.709,115.054L1069.709,115.054z"/>
		</g>
	</g>
	<g>
		<g>
			<path style="fill:#FFFFFF;" d="M1054.165,113.497c7.661,0,7.674-11.906,0-11.906
				C1046.504,101.591,1046.491,113.497,1054.165,113.497L1054.165,113.497z"/>
		</g>
	</g>
	<g>
		<g>
			<path style="fill:#FFFFFF;" d="M1056.599,123.856c7.661,0,7.674-11.906,0-11.906
				C1048.938,111.95,1048.926,123.856,1056.599,123.856L1056.599,123.856z"/>
		</g>
	</g>
	<g>
		<g>
			<path style="fill:#FFFFFF;" d="M1055.656,134.782c7.661,0,7.674-11.906,0-11.906
				C1047.995,122.876,1047.982,134.782,1055.656,134.782L1055.656,134.782z"/>
		</g>
	</g>
	<g>
		<g>
			<path style="fill:#FFFFFF;" d="M1052.859,149.146c7.661,0,7.674-11.906,0-11.906
				C1045.198,137.24,1045.185,149.146,1052.859,149.146L1052.859,149.146z"/>
		</g>
	</g>
	<g>
		<g>
			<path style="fill:#FFFFFF;" d="M1040.765,159.861c7.661,0,7.674-11.906,0-11.906
				C1033.104,147.955,1033.091,159.861,1040.765,159.861L1040.765,159.861z"/>
		</g>
	</g>
	<g>
		<g>
			<path style="fill:#FFFFFF;" d="M1028.612,168.155c7.661,0,7.674-11.906,0-11.906
				C1020.951,156.249,1020.938,168.155,1028.612,168.155L1028.612,168.155z"/>
		</g>
	</g>
	<g>
		<g>
			<path style="fill:#FFFFFF;" d="M1016.623,173.295c7.661,0,7.674-11.906,0-11.906
				C1008.962,161.389,1008.95,173.295,1016.623,173.295L1016.623,173.295z"/>
		</g>
	</g>
	<g>
		<g>
			<path style="fill:#FFFFFF;" d="M1002.154,176.073c7.661,0,7.674-11.906,0-11.906
				C994.493,164.167,994.48,176.073,1002.154,176.073L1002.154,176.073z"/>
		</g>
	</g>
	<g>
		<g>
			<path style="fill:#FFFFFF;" d="M984.815,180.375c7.661,0,7.674-11.906,0-11.906C977.154,168.469,977.141,180.375,984.815,180.375
				L984.815,180.375z"/>
		</g>
	</g>
	<g>
		<g>
			<path style="fill:#FFFFFF;" d="M971.421,187.488c7.661,0,7.674-11.906,0-11.906C963.76,175.582,963.747,187.488,971.421,187.488
				L971.421,187.488z"/>
		</g>
	</g>
	<g>
		<g>
			<path style="fill:#FFFFFF;" d="M980.242,171.765c7.661,0,7.674-11.906,0-11.906C972.581,159.859,972.569,171.765,980.242,171.765
				L980.242,171.765z"/>
		</g>
	</g>
	<g>
		<g>
			<path style="fill:#FFFFFF;" d="M986.926,157.79c7.661,0,7.674-11.906,0-11.906C979.265,145.884,979.252,157.79,986.926,157.79
				L986.926,157.79z"/>
		</g>
	</g>
	<g>
		<g>
			<path style="fill:#FFFFFF;" d="M996.987,143.248c7.661,0,7.674-11.906,0-11.906C989.326,131.342,989.314,143.248,996.987,143.248
				L996.987,143.248z"/>
		</g>
	</g>
	<g>
		<g>
			<path style="fill:#FFFFFF;" d="M1001.758,130.29c7.661,0,7.674-11.906,0-11.906C994.096,118.384,994.084,130.29,1001.758,130.29
				L1001.758,130.29z"/>
		</g>
	</g>
	<g>
		<g>
			<path style="fill:#FFFFFF;" d="M996.842,117.569c7.661,0,7.674-11.906,0-11.906C989.181,105.663,989.168,117.569,996.842,117.569
				L996.842,117.569z"/>
		</g>
	</g>
	<g>
		<g>
			<path style="fill:#FFFFFF;" d="M984.51,118.599c7.661,0,7.674-11.906,0-11.906C976.849,106.692,976.836,118.599,984.51,118.599
				L984.51,118.599z"/>
		</g>
	</g>
	<g>
		<g>
			<path style="fill:#FFFFFF;" d="M980.189,130.092c7.661,0,7.674-11.906,0-11.906C972.528,118.186,972.515,130.092,980.189,130.092
				L980.189,130.092z"/>
		</g>
	</g>
	<g>
		<g>
			<path style="fill:#FFFFFF;" d="M976.765,138.656c7.661,0,7.674-11.906,0-11.906C969.104,126.75,969.091,138.656,976.765,138.656
				L976.765,138.656z"/>
		</g>
	</g>
	<g>
		<g>
			<path style="fill:#FFFFFF;" d="M971.876,146.772c7.661,0,7.674-11.906,0-11.906C964.215,134.866,964.202,146.772,971.876,146.772
				L971.876,146.772z"/>
		</g>
	</g>
	<g>
		<g>
			<path style="fill:#FFFFFF;" d="M966.314,157.085c7.661,0,7.674-11.906,0-11.906C958.653,145.178,958.64,157.085,966.314,157.085
				L966.314,157.085z"/>
		</g>
	</g>
	<g>
		<g>
			<path style="fill:#FFFFFF;" d="M963.398,166.606c7.661,0,7.674-11.906,0-11.906C955.737,154.699,955.724,166.606,963.398,166.606
				L963.398,166.606z"/>
		</g>
	</g>
	<g>
		<g>
			<path style="fill:#FFFFFF;" d="M960.092,180.013c7.661,0,7.674-11.906,0-11.906C952.431,168.106,952.419,180.013,960.092,180.013
				L960.092,180.013z"/>
		</g>
	</g>
	<g>
		<g>
			<path style="fill:#FFFFFF;" d="M955.936,188.353c7.661,0,7.674-11.906,0-11.906C948.275,176.446,948.262,188.353,955.936,188.353
				L955.936,188.353z"/>
		</g>
	</g>
	<g>
		<g>
			<path style="fill:#FFFFFF;" d="M946.877,194.39c7.661,0,7.674-11.906,0-11.906C939.216,182.484,939.203,194.39,946.877,194.39
				L946.877,194.39z"/>
		</g>
	</g>
	<g>
		<g>
			<path style="fill:#FFFFFF;" d="M939.448,197.722c7.661,0,7.674-11.906,0-11.906C931.787,185.816,931.774,197.722,939.448,197.722
				L939.448,197.722z"/>
		</g>
	</g>
	<g>
		<g>
			<path style="fill:#FFFFFF;" d="M928.64,201.621c7.661,0,7.674-11.906,0-11.906C920.979,189.715,920.967,201.621,928.64,201.621
				L928.64,201.621z"/>
		</g>
	</g>
	<g>
		<g>
			<path style="fill:#FFFFFF;" d="M919.582,207.659c7.661,0,7.674-11.906,0-11.906C911.92,195.752,911.908,207.659,919.582,207.659
				L919.582,207.659z"/>
		</g>
	</g>
	<g>
		<g>
			<path style="fill:#FFFFFF;" d="M921.587,190.649c7.661,0,7.674-11.906,0-11.906C913.926,178.743,913.913,190.649,921.587,190.649
				L921.587,190.649z"/>
		</g>
	</g>
	<g>
		<g>
			<path style="fill:#FFFFFF;" d="M921.184,184.117c7.661,0,7.674-11.906,0-11.906C913.523,172.211,913.511,184.117,921.184,184.117
				L921.184,184.117z"/>
		</g>
	</g>
	<g>
		<g>
			<path style="fill:#FFFFFF;" d="M916.658,167.51c7.661,0,7.674-11.906,0-11.906C908.997,155.604,908.984,167.51,916.658,167.51
				L916.658,167.51z"/>
		</g>
	</g>
	<g>
		<g>
			<path style="fill:#FFFFFF;" d="M919.124,142.469c-0.244-0.075-0.488-0.15-0.732-0.224c-0.791-0.248-1.583-0.284-2.374-0.106
				c-0.792,0.036-1.53,0.271-2.213,0.706c-0.694,0.374-1.251,0.885-1.67,1.533c-0.526,0.575-0.881,1.25-1.066,2.025
				c-0.071,0.528-0.142,1.055-0.213,1.583c0.003,1.075,0.274,2.076,0.813,3.005c0.31,0.402,0.621,0.803,0.931,1.205
				c0.743,0.738,1.618,1.248,2.627,1.531c0.244,0.075,0.488,0.15,0.732,0.224c0.791,0.248,1.583,0.284,2.374,0.106
				c0.792-0.036,1.53-0.271,2.213-0.706c0.694-0.374,1.25-0.885,1.67-1.533c0.526-0.575,0.881-1.25,1.066-2.025
				c0.071-0.528,0.142-1.055,0.213-1.583c-0.003-1.075-0.274-2.076-0.813-3.005c-0.31-0.402-0.621-0.803-0.931-1.205
				C921.009,143.262,920.133,142.752,919.124,142.469L919.124,142.469z"/>
		</g>
	</g>
	<g>
		<g>
			<path style="fill:#FFFFFF;" d="M905.6,151.306c7.661,0,7.674-11.906,0-11.906C897.938,139.4,897.926,151.306,905.6,151.306
				L905.6,151.306z"/>
		</g>
	</g>
	<g>
		<g>
			<path style="fill:#FFFFFF;" d="M898.857,162.859c7.661,0,7.674-11.906,0-11.906C891.196,150.953,891.183,162.859,898.857,162.859
				L898.857,162.859z"/>
		</g>
	</g>
	<g>
		<g>
			<path style="fill:#FFFFFF;" d="M901.127,176.372c7.661,0,7.674-11.906,0-11.906C893.466,164.465,893.453,176.372,901.127,176.372
				L901.127,176.372z"/>
		</g>
	</g>
	<g>
		<g>
			<path style="fill:#FFFFFF;" d="M903.007,193.77c7.661,0,7.674-11.906,0-11.906C895.346,181.864,895.334,193.77,903.007,193.77
				L903.007,193.77z"/>
		</g>
	</g>
	<g>
		<g>
			<path style="fill:#FFFFFF;" d="M902.348,206.386c7.661,0,7.674-11.906,0-11.906C894.687,194.479,894.674,206.386,902.348,206.386
				L902.348,206.386z"/>
		</g>
	</g>
	<g>
		<g>
			<path style="fill:#FFFFFF;" d="M901.972,220.69c7.661,0,7.674-11.906,0-11.906C894.311,208.784,894.298,220.69,901.972,220.69
				L901.972,220.69z"/>
		</g>
	</g>
	<g>
		<g>
			<path style="fill:#FFFFFF;" d="M889.205,233.602c7.661,0,7.674-11.906,0-11.906C881.544,221.696,881.531,233.602,889.205,233.602
				L889.205,233.602z"/>
		</g>
	</g>
	<g>
		<g>
			<path style="fill:#FFFFFF;" d="M880.773,245.439c7.661,0,7.674-11.906,0-11.906C873.112,233.533,873.099,245.439,880.773,245.439
				L880.773,245.439z"/>
		</g>
	</g>
	<g>
		<g>
			<path style="fill:#FFFFFF;" d="M871.774,253.898c7.661,0,7.674-11.906,0-11.906C864.113,241.992,864.1,253.898,871.774,253.898
				L871.774,253.898z"/>
		</g>
	</g>
	<g>
		<g>
			<path style="fill:#FFFFFF;" d="M861.864,254.868c7.661,0,7.674-11.906,0-11.906C854.203,242.962,854.19,254.868,861.864,254.868
				L861.864,254.868z"/>
		</g>
	</g>
	<g>
		<g>
			<path style="fill:#FFFFFF;" d="M846.378,255.733c7.661,0,7.674-11.906,0-11.906C838.717,243.826,838.705,255.733,846.378,255.733
				L846.378,255.733z"/>
		</g>
	</g>
	<g>
		<g>
			<path style="fill:#FFFFFF;" d="M836.857,252.816c7.661,0,7.674-11.906,0-11.906C829.196,240.91,829.184,252.816,836.857,252.816
				L836.857,252.816z"/>
		</g>
	</g>
	<g>
		<g>
			<path style="fill:#FFFFFF;" d="M832.674,240.32c7.661,0,7.674-11.906,0-11.906C825.013,228.414,825,240.32,832.674,240.32
				L832.674,240.32z"/>
		</g>
	</g>
	<g>
		<g>
			<path style="fill:#FFFFFF;" d="M838.85,224.067c0.075-0.244,0.15-0.488,0.224-0.732c0.248-0.791,0.284-1.583,0.106-2.374
				c-0.036-0.792-0.271-1.53-0.706-2.213c-0.374-0.694-0.885-1.251-1.533-1.67c-0.575-0.526-1.25-0.881-2.024-1.066
				c-0.528-0.071-1.055-0.142-1.583-0.213c-1.075,0.003-2.076,0.274-3.005,0.813c-0.402,0.31-0.803,0.621-1.205,0.931
				c-0.738,0.743-1.248,1.618-1.531,2.627c-0.075,0.244-0.15,0.488-0.224,0.732c-0.248,0.791-0.284,1.583-0.106,2.374
				c0.036,0.792,0.271,1.53,0.706,2.213c0.374,0.694,0.885,1.251,1.533,1.67c0.575,0.526,1.25,0.881,2.025,1.066
				c0.528,0.071,1.055,0.142,1.583,0.213c1.075-0.003,2.076-0.274,3.005-0.813c0.402-0.31,0.803-0.621,1.205-0.931
				C838.057,225.951,838.567,225.075,838.85,224.067L838.85,224.067z"/>
		</g>
	</g>
	<g>
		<g>
			<path style="fill:#FFFFFF;" d="M836.534,219.873c7.661,0,7.674-11.906,0-11.906C828.872,207.967,828.86,219.873,836.534,219.873
				L836.534,219.873z"/>
		</g>
	</g>
	<g>
		<g>
			<path style="fill:#FFFFFF;" d="M839.615,207.198c7.661,0,7.674-11.906,0-11.906C831.953,195.292,831.941,207.198,839.615,207.198
				L839.615,207.198z"/>
		</g>
	</g>
</g>
</svg>
