<?xml version="1.0" encoding="utf-8"?>
<!-- Generator: Adobe Illustrator 23.1.0, SVG Export Plug-In . SVG Version: 6.00 Build 0)  -->
<svg version="1.1" id="Layer_1" xmlns="http://www.w3.org/2000/svg" xmlns:xlink="http://www.w3.org/1999/xlink" x="0px" y="0px"
	 viewBox="0 0 1920 1080" style="enable-background:new 0 0 1920 1080;" xml:space="preserve">
<g>
	<g>
		<circle style="fill:#FBB03B;" cx="311.472" cy="733.511" r="13.054"/>
	</g>
	<circle style="fill:#FBB03B;" cx="484.704" cy="579.84" r="10.087"/>
	<circle style="fill:#FBB03B;" cx="335.967" cy="748.111" r="13.054"/>
	<circle style="fill:#FBB03B;" cx="498.24" cy="597.77" r="10.087"/>
	<circle style="fill:#FBB03B;" cx="441.745" cy="550.94" r="11.867"/>
	<circle style="fill:#FBB03B;" cx="416.327" cy="544.044" r="12.461"/>
	<circle style="fill:#FBB03B;" cx="391.849" cy="537.874" r="10.68"/>
	<circle style="fill:#FBB03B;" cx="526.29" cy="676.067" r="8.9"/>
	<circle style="fill:#FBB03B;" cx="360.395" cy="755.865" r="10.087"/>
	<circle style="fill:#FBB03B;" cx="268.438" cy="650.97" r="10.68"/>
	<circle style="fill:#FBB03B;" cx="277.602" cy="583.809" r="12.461"/>
	<circle style="fill:#FBB03B;" cx="294.4" cy="563.046" r="9.494"/>
	<circle style="fill:#FBB03B;" cx="311.432" cy="550.712" r="7.12"/>
	<circle style="fill:#FBB03B;" cx="327.333" cy="542.753" r="6.527"/>
	<circle style="fill:#FBB03B;" cx="463.798" cy="564.052" r="10.087"/>
	<circle style="fill:#FBB03B;" cx="294.746" cy="711.05" r="11.274"/>
	<circle style="fill:#FBB03B;" cx="283.031" cy="692.247" r="9.494"/>
	<circle style="fill:#FBB03B;" cx="271.005" cy="604.958" r="8.307"/>
	<circle style="fill:#FBB03B;" cx="266.072" cy="625.894" r="11.274"/>
	<circle style="fill:#FBB03B;" cx="273.814" cy="673.124" r="9.494"/>
	<circle style="fill:#FBB03B;" cx="410.956" cy="767.799" r="11.867"/>
	<circle style="fill:#FBB03B;" cx="385.078" cy="763.824" r="9.494"/>
	<circle style="fill:#FBB03B;" cx="434.685" cy="767.236" r="8.9"/>
	<circle style="fill:#FBB03B;" cx="509.081" cy="720.396" r="10.087"/>
	<circle style="fill:#FBB03B;" cx="497.415" cy="739.042" r="8.9"/>
	<circle style="fill:#FBB03B;" cx="479.79" cy="755.164" r="8.9"/>
	<circle style="fill:#FBB03B;" cx="458.871" cy="763.709" r="9.494"/>
	<circle style="fill:#FBB03B;" cx="509.182" cy="616.299" r="9.494"/>
	<circle style="fill:#FBB03B;" cx="346.05" cy="536.972" r="9.494"/>
	<circle style="fill:#FBB03B;" cx="368.117" cy="537.529" r="9.494"/>
	<circle style="fill:#FBB03B;" cx="518.604" cy="634.882" r="7.714"/>
	<circle style="fill:#FBB03B;" cx="522.961" cy="655.663" r="9.494"/>
	<circle style="fill:#FBB03B;" cx="519.612" cy="697.56" r="8.9"/>
</g>
<g>
	<circle style="fill:#F15A24;" cx="355.391" cy="723.267" r="7.12"/>
	<circle style="fill:#F15A24;" cx="344.93" cy="579.871" r="4.747"/>
	<circle style="fill:#F15A24;" cx="467.296" cy="624.16" r="5.934"/>
	<circle style="fill:#F15A24;" cx="453.082" cy="720.318" r="4.747"/>
	<circle style="fill:#F15A24;" cx="369.051" cy="727.149" r="5.34"/>
	<circle style="fill:#F15A24;" cx="310.553" cy="676.696" r="4.747"/>
	<circle style="fill:#F15A24;" cx="333.015" cy="583.932" r="4.154"/>
	<circle style="fill:#F15A24;" cx="436.61" cy="588.854" r="4.154"/>
	<circle style="fill:#F15A24;" cx="301.206" cy="628.462" r="5.934"/>
	<circle style="fill:#F15A24;" cx="302.432" cy="652.867" r="3.56"/>
	<circle style="fill:#F15A24;" cx="460.05" cy="610.545" r="6.527"/>
	<circle style="fill:#F15A24;" cx="298.912" cy="642.542" r="5.34"/>
	<circle style="fill:#F15A24;" cx="315.137" cy="687.545" r="2.967"/>
	<circle style="fill:#F15A24;" cx="393.729" cy="733.455" r="5.934"/>
	<circle style="fill:#F15A24;" cx="303.568" cy="664.005" r="4.747"/>
	<circle style="fill:#F15A24;" cx="468.102" cy="704.56" r="2.967"/>
	<circle style="fill:#F15A24;" cx="442.504" cy="725.696" r="4.747"/>
	<circle style="fill:#F15A24;" cx="419.723" cy="731.688" r="5.934"/>
	<circle style="fill:#F15A24;" cx="359.768" cy="576.587" r="4.747"/>
	<circle style="fill:#F15A24;" cx="427.025" cy="584.142" r="4.154"/>
	<circle style="fill:#F15A24;" cx="373.812" cy="573.574" r="5.34"/>
	<circle style="fill:#F15A24;" cx="387.08" cy="573.484" r="5.34"/>
	<circle style="fill:#F15A24;" cx="451.996" cy="600.63" r="3.56"/>
	<circle style="fill:#F15A24;" cx="322.455" cy="591.964" r="5.34"/>
	<circle style="fill:#F15A24;" cx="305.9" cy="616.224" r="4.747"/>
	<circle style="fill:#F15A24;" cx="313.248" cy="603.967" r="5.934"/>
	<circle style="fill:#F15A24;" cx="343.938" cy="715.151" r="3.56"/>
	<circle style="fill:#F15A24;" cx="444.951" cy="594.926" r="3.56"/>
	<circle style="fill:#F15A24;" cx="334.606" cy="709.542" r="4.154"/>
	<circle style="fill:#F15A24;" cx="407.341" cy="576.629" r="4.154"/>
	<circle style="fill:#F15A24;" cx="416.646" cy="579.701" r="4.747"/>
	<circle style="fill:#F15A24;" cx="481.408" cy="670.769" r="4.747"/>
	<circle style="fill:#F15A24;" cx="478.573" cy="683.261" r="5.34"/>
	<circle style="fill:#F15A24;" cx="473.338" cy="693.91" r="4.154"/>
	<circle style="fill:#F15A24;" cx="462.578" cy="711.762" r="4.747"/>
	<circle style="fill:#F15A24;" cx="431.384" cy="729.486" r="4.747"/>
	<circle style="fill:#F15A24;" cx="327.176" cy="702.059" r="3.56"/>
	<circle style="fill:#F15A24;" cx="381.186" cy="731.32" r="4.154"/>
	<circle style="fill:#F15A24;" cx="407.791" cy="733.095" r="5.34"/>
	<circle style="fill:#F15A24;" cx="397.558" cy="574.803" r="3.56"/>
	<circle style="fill:#F15A24;" cx="320.751" cy="693.61" r="3.56"/>
	<circle style="fill:#F15A24;" cx="481.319" cy="657.502" r="5.934"/>
	<circle style="fill:#F15A24;" cx="476.988" cy="644.793" r="4.747"/>
	<circle style="fill:#F15A24;" cx="474.533" cy="634.991" r="4.154"/>
</g>
<g>
	<g>
		<circle style="fill:#FBB03B;" cx="436.536" cy="639.2" r="5.278"/>
	</g>
	<circle style="fill:#FBB03B;" cx="411.938" cy="619.813" r="4.078"/>
	<circle style="fill:#FBB03B;" cx="371.918" cy="611.127" r="5.278"/>
	<circle style="fill:#FBB03B;" cx="429.999" cy="629.976" r="4.078"/>
	<circle style="fill:#FBB03B;" cx="370.603" cy="695.501" r="4.798"/>
	<circle style="fill:#FBB03B;" cx="421.465" cy="625.449" r="5.038"/>
	<circle style="fill:#FBB03B;" cx="384.112" cy="611.615" r="4.318"/>
	<circle style="fill:#FBB03B;" cx="390.209" cy="702.278" r="3.598"/>
	<circle style="fill:#FBB03B;" cx="399.74" cy="702.952" r="4.078"/>
	<circle style="fill:#FBB03B;" cx="340.887" cy="673.345" r="4.318"/>
	<circle style="fill:#FBB03B;" cx="331.849" cy="653.466" r="5.038"/>
	<circle style="fill:#FBB03B;" cx="337.662" cy="636.421" r="3.838"/>
	<circle style="fill:#FBB03B;" cx="342.249" cy="629.262" r="2.879"/>
	<circle style="fill:#FBB03B;" cx="347.056" cy="623.917" r="2.639"/>
	<circle style="fill:#FBB03B;" cx="403.189" cy="616.22" r="4.078"/>
	<circle style="fill:#FBB03B;" cx="393.65" cy="612.938" r="4.558"/>
	<circle style="fill:#FBB03B;" cx="354.807" cy="687.187" r="3.838"/>
	<circle style="fill:#FBB03B;" cx="333.89" cy="643.316" r="3.359"/>
	<circle style="fill:#FBB03B;" cx="336.291" cy="664.258" r="4.558"/>
	<circle style="fill:#FBB03B;" cx="348.512" cy="681.353" r="3.838"/>
	<circle style="fill:#FBB03B;" cx="419.203" cy="701.275" r="4.798"/>
	<circle style="fill:#FBB03B;" cx="409.377" cy="702.408" r="3.838"/>
	<circle style="fill:#FBB03B;" cx="427.839" cy="697.672" r="3.598"/>
	<circle style="fill:#FBB03B;" cx="445.84" cy="666.187" r="4.078"/>
	<circle style="fill:#FBB03B;" cx="442.956" cy="676.805" r="3.598"/>
	<circle style="fill:#FBB03B;" cx="439.157" cy="684.693" r="3.598"/>
	<circle style="fill:#FBB03B;" cx="433.351" cy="691.746" r="3.838"/>
	<circle style="fill:#FBB03B;" cx="380.277" cy="698.881" r="3.838"/>
	<circle style="fill:#FBB03B;" cx="353.245" cy="618.975" r="3.838"/>
	<circle style="fill:#FBB03B;" cx="361.632" cy="615.923" r="3.838"/>
	<circle style="fill:#FBB03B;" cx="362.55" cy="691.272" r="3.119"/>
	<circle style="fill:#FBB03B;" cx="443.666" cy="646.347" r="3.838"/>
	<circle style="fill:#FBB03B;" cx="446.42" cy="654.897" r="3.598"/>
</g>
<g>
	<circle style="fill:#F15A24;" cx="416.611" cy="667.468" r="4.607"/>
	<circle style="fill:#F15A24;" cx="385.739" cy="656.104" r="3.456"/>
	<circle style="fill:#F15A24;" cx="363.494" cy="648.424" r="1.92"/>
	<circle style="fill:#F15A24;" cx="408.115" cy="663.962" r="3.839"/>
	<circle style="fill:#F15A24;" cx="357.408" cy="646.344" r="3.072"/>
	<circle style="fill:#F15A24;" cx="368.389" cy="650.199" r="2.304"/>
	<circle style="fill:#F15A24;" cx="393.452" cy="658.571" r="2.688"/>
	<circle style="fill:#F15A24;" cx="400.145" cy="660.794" r="3.456"/>
	<circle style="fill:#F15A24;" cx="379.186" cy="653.792" r="2.304"/>
	<circle style="fill:#F15A24;" cx="373.344" cy="652.125" r="2.304"/>
</g>
<g>
	<g>
		<g>
			<g>
				<path style="fill:#C7B299;" d="M827.915,745.528c7.661,0,7.674-11.906,0-11.906
					C820.254,733.621,820.241,745.528,827.915,745.528L827.915,745.528z"/>
			</g>
		</g>
		<g>
			<g>
				<path style="fill:#C7B299;" d="M833.277,756.251c7.661,0,7.674-11.906,0-11.906
					C825.615,744.345,825.603,756.251,833.277,756.251L833.277,756.251z"/>
			</g>
		</g>
		<g>
			<g>
				<path style="fill:#C7B299;" d="M841.702,767.74c7.661,0,7.674-11.906,0-11.906C834.041,755.834,834.028,767.74,841.702,767.74
					L841.702,767.74z"/>
			</g>
		</g>
		<g>
			<g>
				<path style="fill:#C7B299;" d="M851.66,777.698c7.661,0,7.674-11.906,0-11.906C843.998,765.792,843.986,777.698,851.66,777.698
					L851.66,777.698z"/>
			</g>
		</g>
		<g>
			<g>
				<path style="fill:#C7B299;" d="M859.319,789.953c7.661,0,7.674-11.906,0-11.906
					C851.658,778.047,851.645,789.953,859.319,789.953L859.319,789.953z"/>
			</g>
		</g>
		<g>
			<g>
				<path style="fill:#C7B299;" d="M846.298,792.251c7.661,0,7.674-11.906,0-11.906
					C838.637,780.345,838.624,792.251,846.298,792.251L846.298,792.251z"/>
			</g>
		</g>
		<g>
			<g>
				<path style="fill:#C7B299;" d="M834.043,796.847c7.661,0,7.674-11.906,0-11.906C826.381,784.94,826.369,796.847,834.043,796.847
					L834.043,796.847z"/>
			</g>
		</g>
		<g>
			<g>
				<path style="fill:#C7B299;" d="M821.787,797.613c7.661,0,7.674-11.906,0-11.906
					C814.126,785.706,814.113,797.613,821.787,797.613L821.787,797.613z"/>
			</g>
		</g>
		<g>
			<g>
				<path style="fill:#C7B299;" d="M808,796.081c7.661,0,7.674-11.906,0-11.906C800.339,784.175,800.326,796.081,808,796.081
					L808,796.081z"/>
			</g>
		</g>
		<g>
			<g>
				<path style="fill:#C7B299;" d="M869.277,800.677c7.661,0,7.674-11.906,0-11.906C861.615,788.77,861.603,800.677,869.277,800.677
					L869.277,800.677z"/>
			</g>
		</g>
		<g>
			<g>
				<path style="fill:#C7B299;" d="M881.532,810.634c7.661,0,7.674-11.906,0-11.906
					C873.871,798.728,873.858,810.634,881.532,810.634L881.532,810.634z"/>
			</g>
		</g>
		<g>
			<g>
				<path style="fill:#C7B299;" d="M889.191,800.677c7.661,0,7.674-11.906,0-11.906C881.53,788.77,881.518,800.677,889.191,800.677
					L889.191,800.677z"/>
			</g>
		</g>
		<g>
			<g>
				<path style="fill:#C7B299;" d="M890.723,786.123c7.661,0,7.674-11.906,0-11.906C883.062,774.217,883.05,786.123,890.723,786.123
					L890.723,786.123z"/>
			</g>
		</g>
		<g>
			<g>
				<path style="fill:#C7B299;" d="M890.723,769.272c7.661,0,7.674-11.906,0-11.906C883.062,757.366,883.05,769.272,890.723,769.272
					L890.723,769.272z"/>
			</g>
		</g>
		<g>
			<g>
				<path style="fill:#C7B299;" d="M890.723,752.421c7.661,0,7.674-11.906,0-11.906C883.062,740.515,883.05,752.421,890.723,752.421
					L890.723,752.421z"/>
			</g>
		</g>
		<g>
			<g>
				<path style="fill:#C7B299;" d="M890.723,738.634c7.661,0,7.674-11.906,0-11.906C883.062,726.728,883.05,738.634,890.723,738.634
					L890.723,738.634z"/>
			</g>
		</g>
		<g>
			<g>
				<path style="fill:#C7B299;" d="M883.064,726.379c7.661,0,7.674-11.906,0-11.906C875.403,714.472,875.39,726.379,883.064,726.379
					L883.064,726.379z"/>
			</g>
		</g>
		<g>
			<g>
				<path style="fill:#C7B299;" d="M900.681,760.081c7.661,0,7.674-11.906,0-11.906C893.02,748.175,893.007,760.081,900.681,760.081
					L900.681,760.081z"/>
			</g>
		</g>
		<g>
			<g>
				<path style="fill:#C7B299;" d="M914.468,757.783c7.661,0,7.674-11.906,0-11.906
					C906.807,745.877,906.794,757.783,914.468,757.783L914.468,757.783z"/>
			</g>
		</g>
		<g>
			<g>
				<path style="fill:#C7B299;" d="M928.255,749.357c7.661,0,7.674-11.906,0-11.906
					C920.594,737.451,920.582,749.357,928.255,749.357L928.255,749.357z"/>
			</g>
		</g>
		<g>
			<g>
				<path style="fill:#C7B299;" d="M896.851,816.762c7.661,0,7.674-11.906,0-11.906C889.19,804.855,889.177,816.762,896.851,816.762
					L896.851,816.762z"/>
			</g>
		</g>
		<g>
			<g>
				<path style="fill:#C7B299;" d="M908.34,826.719c7.661,0,7.674-11.906,0-11.906C900.679,814.813,900.667,826.719,908.34,826.719
					L908.34,826.719z"/>
			</g>
		</g>
		<g>
			<g>
				<path style="fill:#C7B299;" d="M922.894,834.379c7.661,0,7.674-11.906,0-11.906C915.232,822.472,915.22,834.379,922.894,834.379
					L922.894,834.379z"/>
			</g>
		</g>
		<g>
			<g>
				<path style="fill:#C7B299;" d="M938.213,836.677c7.661,0,7.674-11.906,0-11.906C930.552,824.77,930.539,836.677,938.213,836.677
					L938.213,836.677z"/>
			</g>
		</g>
		<g>
			<g>
				<path style="fill:#C7B299;" d="M953.532,844.336c7.661,0,7.674-11.906,0-11.906C945.871,832.43,945.858,844.336,953.532,844.336
					L953.532,844.336z"/>
			</g>
		</g>
		<g>
			<g>
				<path style="fill:#C7B299;" d="M969.617,845.102c7.661,0,7.674-11.906,0-11.906
					C961.956,833.196,961.943,845.102,969.617,845.102L969.617,845.102z"/>
			</g>
		</g>
		<g>
			<g>
				<path style="fill:#C7B299;" d="M985.702,848.932c7.661,0,7.674-11.906,0-11.906
					C978.041,837.026,978.028,848.932,985.702,848.932L985.702,848.932z"/>
			</g>
		</g>
		<g>
			<g>
				<path style="fill:#C7B299;" d="M1000.255,850.464c7.661,0,7.674-11.906,0-11.906
					C992.594,838.557,992.582,850.464,1000.255,850.464L1000.255,850.464z"/>
			</g>
		</g>
		<g>
			<g>
				<path style="fill:#C7B299;" d="M1014.809,852.762c7.661,0,7.674-11.906,0-11.906
					C1007.147,840.855,1007.135,852.762,1014.809,852.762L1014.809,852.762z"/>
			</g>
		</g>
		<g>
			<g>
				<path style="fill:#C7B299;" d="M1029.362,852.762c7.661,0,7.674-11.906,0-11.906
					C1021.701,840.855,1021.688,852.762,1029.362,852.762L1029.362,852.762z"/>
			</g>
		</g>
		<g>
			<g>
				<path style="fill:#C7B299;" d="M1043.915,857.357c7.661,0,7.674-11.906,0-11.906
					C1036.254,845.451,1036.241,857.357,1043.915,857.357L1043.915,857.357z"/>
			</g>
		</g>
		<g>
			<g>
				<path style="fill:#C7B299;" d="M1057.702,856.591c7.661,0,7.674-11.906,0-11.906
					C1050.041,844.685,1050.028,856.591,1057.702,856.591L1057.702,856.591z"/>
			</g>
		</g>
		<g>
			<g>
				<path style="fill:#C7B299;" d="M1072.255,863.485c7.661,0,7.674-11.906,0-11.906
					C1064.594,851.579,1064.582,863.485,1072.255,863.485L1072.255,863.485z"/>
			</g>
		</g>
		<g>
			<g>
				<path style="fill:#C7B299;" d="M1086.808,865.783c7.661,0,7.674-11.906,0-11.906
					C1079.147,853.877,1079.135,865.783,1086.808,865.783L1086.808,865.783z"/>
			</g>
		</g>
		<g>
			<g>
				<path style="fill:#C7B299;" d="M1099.064,874.974c7.661,0,7.674-11.906,0-11.906
					C1091.403,863.068,1091.39,874.974,1099.064,874.974L1099.064,874.974z"/>
			</g>
		</g>
		<g>
			<g>
				<path style="fill:#C7B299;" d="M1114.383,881.102c7.661,0,7.674-11.906,0-11.906
					C1106.722,869.196,1106.709,881.102,1114.383,881.102L1114.383,881.102z"/>
			</g>
		</g>
		<g>
			<g>
				<path style="fill:#C7B299;" d="M1128.17,889.528c7.661,0,7.674-11.906,0-11.906
					C1120.509,877.621,1120.496,889.528,1128.17,889.528L1128.17,889.528z"/>
			</g>
		</g>
		<g>
			<g>
				<path style="fill:#C7B299;" d="M1141.957,899.485c7.661,0,7.674-11.906,0-11.906
					C1134.296,887.579,1134.284,899.485,1141.957,899.485L1141.957,899.485z"/>
			</g>
		</g>
		<g>
			<g>
				<path style="fill:#C7B299;" d="M1154.979,909.443c7.661,0,7.674-11.906,0-11.906
					C1147.318,897.536,1147.305,909.443,1154.979,909.443L1154.979,909.443z"/>
			</g>
		</g>
		<g>
			<g>
				<path style="fill:#C7B299;" d="M1164.17,917.102c7.661,0,7.674-11.906,0-11.906
					C1156.509,905.196,1156.496,917.102,1164.17,917.102L1164.17,917.102z"/>
			</g>
		</g>
		<g>
			<g>
				<path style="fill:#C7B299;" d="M1176.426,927.825c7.661,0,7.674-11.906,0-11.906
					C1168.764,915.919,1168.752,927.825,1176.426,927.825L1176.426,927.825z"/>
			</g>
		</g>
		<g>
			<g>
				<path style="fill:#C7B299;" d="M1185.617,939.315c7.661,0,7.674-11.906,0-11.906
					C1177.956,927.409,1177.943,939.315,1185.617,939.315L1185.617,939.315z"/>
			</g>
		</g>
		<g>
			<g>
				<path style="fill:#C7B299;" d="M1195.574,951.57c7.661,0,7.674-11.906,0-11.906
					C1187.913,939.664,1187.901,951.57,1195.574,951.57L1195.574,951.57z"/>
			</g>
		</g>
		<g>
			<g>
				<path style="fill:#C7B299;" d="M1201.702,964.591c7.661,0,7.674-11.906,0-11.906
					C1194.041,952.685,1194.028,964.591,1201.702,964.591L1201.702,964.591z"/>
			</g>
		</g>
		<g>
			<g>
				<path style="fill:#C7B299;" d="M1187.915,921.698c7.661,0,7.674-11.906,0-11.906
					C1180.254,909.792,1180.241,921.698,1187.915,921.698L1187.915,921.698z"/>
			</g>
		</g>
		<g>
			<g>
				<path style="fill:#C7B299;" d="M1202.468,921.698c7.661,0,7.674-11.906,0-11.906
					C1194.807,909.792,1194.794,921.698,1202.468,921.698L1202.468,921.698z"/>
			</g>
		</g>
		<g>
			<g>
				<path style="fill:#C7B299;" d="M1212.046,924.55c0.255,0.255,0.511,0.511,0.766,0.766c0.539,0.581,1.178,0.991,1.916,1.231
					c0.709,0.373,1.474,0.544,2.294,0.513c0.82,0.031,1.584-0.14,2.294-0.513c0.738-0.24,1.377-0.65,1.916-1.231
					c0.31-0.402,0.621-0.803,0.931-1.205c0.539-0.929,0.809-1.93,0.813-3.005c-0.071-0.528-0.142-1.055-0.213-1.583
					c-0.283-1.008-0.793-1.884-1.531-2.627c-0.255-0.255-0.511-0.511-0.766-0.766c-0.539-0.581-1.178-0.991-1.916-1.231
					c-0.709-0.373-1.474-0.544-2.294-0.513c-0.82-0.031-1.584,0.14-2.294,0.513c-0.738,0.24-1.377,0.65-1.916,1.231
					c-0.31,0.402-0.62,0.803-0.931,1.205c-0.539,0.929-0.809,1.93-0.813,3.005c0.071,0.528,0.142,1.055,0.213,1.583
					C1210.798,922.932,1211.308,923.807,1212.046,924.55L1212.046,924.55z"/>
			</g>
		</g>
		<g>
			<g>
				<path style="fill:#C7B299;" d="M1230.808,937.017c7.661,0,7.674-11.906,0-11.906
					C1223.147,925.111,1223.135,937.017,1230.808,937.017L1230.808,937.017z"/>
			</g>
		</g>
		<g>
			<g>
				<path style="fill:#C7B299;" d="M1238.468,950.038c7.661,0,7.674-11.906,0-11.906
					C1230.807,938.132,1230.794,950.038,1238.468,950.038L1238.468,950.038z"/>
			</g>
		</g>
		<g>
			<g>
				<path style="fill:#C7B299;" d="M1210.877,907.948c0.509-0.259,1.017-0.518,1.526-0.778c0.694-0.374,1.251-0.885,1.67-1.533
					c0.526-0.575,0.881-1.25,1.066-2.024c0.248-0.791,0.284-1.583,0.106-2.374c-0.036-0.792-0.271-1.53-0.706-2.213
					c-0.819-1.271-2.04-2.39-3.558-2.736c-0.528-0.071-1.055-0.142-1.583-0.213c-1.075,0.003-2.076,0.274-3.005,0.813
					c-0.509,0.259-1.017,0.518-1.526,0.778c-0.694,0.374-1.25,0.885-1.67,1.533c-0.526,0.575-0.881,1.25-1.066,2.024
					c-0.248,0.791-0.284,1.583-0.106,2.374c0.036,0.792,0.271,1.53,0.706,2.213c0.82,1.271,2.04,2.39,3.558,2.736
					c0.527,0.071,1.055,0.142,1.583,0.213C1208.947,908.757,1209.949,908.486,1210.877,907.948L1210.877,907.948z"/>
			</g>
		</g>
		<g>
			<g>
				<path style="fill:#C7B299;" d="M1221.617,897.953c7.661,0,7.674-11.906,0-11.906
					C1213.956,886.047,1213.943,897.953,1221.617,897.953L1221.617,897.953z"/>
			</g>
		</g>
		<g>
			<g>
				<path style="fill:#C7B299;" d="M1128.936,904.081c7.661,0,7.674-11.906,0-11.906
					C1121.275,892.175,1121.262,904.081,1128.936,904.081L1128.936,904.081z"/>
			</g>
		</g>
		<g>
			<g>
				<path style="fill:#C7B299;" d="M1123.574,917.102c7.661,0,7.674-11.906,0-11.906
					C1115.913,905.196,1115.901,917.102,1123.574,917.102L1123.574,917.102z"/>
			</g>
		</g>
		<g>
			<g>
				<path style="fill:#C7B299;" d="M1115.149,927.825c7.661,0,7.674-11.906,0-11.906
					C1107.488,915.919,1107.475,927.825,1115.149,927.825L1115.149,927.825z"/>
			</g>
		</g>
		<g>
			<g>
				<path style="fill:#C7B299;" d="M1103.66,934.719c7.661,0,7.674-11.906,0-11.906
					C1095.998,922.813,1095.986,934.719,1103.66,934.719L1103.66,934.719z"/>
			</g>
		</g>
		<g>
			<g>
				<path style="fill:#C7B299;" d="M1119.745,868.081c7.661,0,7.674-11.906,0-11.906
					C1112.084,856.175,1112.071,868.081,1119.745,868.081L1119.745,868.081z"/>
			</g>
		</g>
		<g>
			<g>
				<path style="fill:#C7B299;" d="M1110.553,855.06c7.661,0,7.674-11.906,0-11.906
					C1102.892,843.153,1102.879,855.06,1110.553,855.06L1110.553,855.06z"/>
			</g>
		</g>
		<g>
			<g>
				<path style="fill:#C7B299;" d="M1106.723,839.74c7.661,0,7.674-11.906,0-11.906
					C1099.062,827.834,1099.05,839.74,1106.723,839.74L1106.723,839.74z"/>
			</g>
		</g>
		<g>
			<g>
				<path style="fill:#C7B299;" d="M1105.957,826.719c7.661,0,7.674-11.906,0-11.906
					C1098.296,814.813,1098.284,826.719,1105.957,826.719L1105.957,826.719z"/>
			</g>
		</g>
		<g>
			<g>
				<path style="fill:#C7B299;" d="M1084.511,879.57c7.661,0,7.674-11.906,0-11.906
					C1076.849,867.664,1076.837,879.57,1084.511,879.57L1084.511,879.57z"/>
			</g>
		</g>
		<g>
			<g>
				<path style="fill:#C7B299;" d="M1070.723,881.102c7.661,0,7.674-11.906,0-11.906
					C1063.062,869.196,1063.05,881.102,1070.723,881.102L1070.723,881.102z"/>
			</g>
		</g>
		<g>
			<g>
				<path style="fill:#C7B299;" d="M1057.702,884.932c7.661,0,7.674-11.906,0-11.906
					C1050.041,873.026,1050.028,884.932,1057.702,884.932L1057.702,884.932z"/>
			</g>
		</g>
		<g>
			<g>
				<path style="fill:#C7B299;" d="M1048.511,842.038c7.661,0,7.674-11.906,0-11.906
					C1040.849,830.132,1040.837,842.038,1048.511,842.038L1048.511,842.038z"/>
			</g>
		</g>
		<g>
			<g>
				<path style="fill:#C7B299;" d="M1038.553,829.017c7.661,0,7.674-11.906,0-11.906
					C1030.892,817.111,1030.879,829.017,1038.553,829.017L1038.553,829.017z"/>
			</g>
		</g>
		<g>
			<g>
				<path style="fill:#C7B299;" d="M1037.021,815.23c7.661,0,7.674-11.906,0-11.906
					C1029.36,803.323,1029.348,815.23,1037.021,815.23L1037.021,815.23z"/>
			</g>
		</g>
		<g>
			<g>
				<path style="fill:#C7B299;" d="M1033.192,803.74c7.661,0,7.674-11.906,0-11.906
					C1025.53,791.834,1025.518,803.74,1033.192,803.74L1033.192,803.74z"/>
			</g>
		</g>
		<g>
			<g>
				<path style="fill:#C7B299;" d="M1027.83,793.017c7.661,0,7.674-11.906,0-11.906
					C1020.169,781.111,1020.156,793.017,1027.83,793.017L1027.83,793.017z"/>
			</g>
		</g>
		<g>
			<g>
				<path style="fill:#C7B299;" d="M1022.468,776.932c7.661,0,7.674-11.906,0-11.906
					C1014.807,765.026,1014.794,776.932,1022.468,776.932L1022.468,776.932z"/>
			</g>
		</g>
		<g>
			<g>
				<path style="fill:#C7B299;" d="M969.617,832.847c7.661,0,7.674-11.906,0-11.906C961.956,820.94,961.943,832.847,969.617,832.847
					L969.617,832.847z"/>
			</g>
		</g>
		<g>
			<g>
				<path style="fill:#C7B299;" d="M980.34,822.889c7.661,0,7.674-11.906,0-11.906C972.679,810.983,972.667,822.889,980.34,822.889
					L980.34,822.889z"/>
			</g>
		</g>
		<g>
			<g>
				<path style="fill:#C7B299;" d="M991.064,812.932c7.661,0,7.674-11.906,0-11.906C983.403,801.026,983.39,812.932,991.064,812.932
					L991.064,812.932z"/>
			</g>
		</g>
		<g>
			<g>
				<path style="fill:#C7B299;" d="M997.957,801.443c7.661,0,7.674-11.906,0-11.906
					C990.296,789.536,990.284,801.443,997.957,801.443L997.957,801.443z"/>
			</g>
		</g>
		<g>
			<g>
				<path style="fill:#C7B299;" d="M919.064,847.4c7.661,0,7.674-11.906,0-11.906C911.403,835.494,911.39,847.4,919.064,847.4
					L919.064,847.4z"/>
			</g>
		</g>
		<g>
			<g>
				<path style="fill:#C7B299;" d="M919.83,861.187c7.661,0,7.674-11.906,0-11.906C912.169,849.281,912.156,861.187,919.83,861.187
					L919.83,861.187z"/>
			</g>
		</g>
		<g>
			<g>
				<path style="fill:#C7B299;" d="M921.362,873.443c7.661,0,7.674-11.906,0-11.906
					C913.701,861.536,913.688,873.443,921.362,873.443L921.362,873.443z"/>
			</g>
		</g>
		<g>
			<g>
				<path style="fill:#C7B299;" d="M927.489,886.464c7.661,0,7.674-11.906,0-11.906
					C919.828,874.557,919.816,886.464,927.489,886.464L927.489,886.464z"/>
			</g>
		</g>
		<g>
			<g>
				<path style="fill:#C7B299;" d="M994.894,864.251c7.661,0,7.674-11.906,0-11.906C987.232,852.345,987.22,864.251,994.894,864.251
					L994.894,864.251z"/>
			</g>
		</g>
		<g>
			<g>
				<path style="fill:#C7B299;" d="M983.404,877.272c7.661,0,7.674-11.906,0-11.906C975.743,865.366,975.73,877.272,983.404,877.272
					L983.404,877.272z"/>
			</g>
		</g>
		<g>
			<g>
				<path style="fill:#C7B299;" d="M974.979,885.698c7.661,0,7.674-11.906,0-11.906
					C967.318,873.792,967.305,885.698,974.979,885.698L974.979,885.698z"/>
			</g>
		</g>
		<g>
			<g>
				<path style="fill:#C7B299;" d="M962.723,895.655c7.661,0,7.674-11.906,0-11.906C955.062,883.749,955.05,895.655,962.723,895.655
					L962.723,895.655z"/>
			</g>
		</g>
		<g>
			<g>
				<path style="fill:#C7B299;" d="M950.468,901.017c7.661,0,7.674-11.906,0-11.906
					C942.807,889.111,942.794,901.017,950.468,901.017L950.468,901.017z"/>
			</g>
		</g>
		<g>
			<g>
				<path style="fill:#C7B299;" d="M937.447,908.677c7.661,0,7.674-11.906,0-11.906C929.786,896.77,929.773,908.677,937.447,908.677
					L937.447,908.677z"/>
			</g>
		</g>
		<g>
			<g>
				<path style="fill:#C7B299;" d="M929.787,916.336c7.661,0,7.674-11.906,0-11.906C922.126,904.43,922.113,916.336,929.787,916.336
					L929.787,916.336z"/>
			</g>
		</g>
		<g>
			<g>
				<path style="fill:#C7B299;" d="M984.936,894.889c7.661,0,7.674-11.906,0-11.906
					C977.275,882.983,977.262,894.889,984.936,894.889L984.936,894.889z"/>
			</g>
		</g>
		<g>
			<g>
				<path style="fill:#C7B299;" d="M990.298,908.677c7.661,0,7.674-11.906,0-11.906C982.637,896.77,982.624,908.677,990.298,908.677
					L990.298,908.677z"/>
			</g>
		</g>
		<g>
			<g>
				<path style="fill:#C7B299;" d="M998.723,920.166c7.661,0,7.674-11.906,0-11.906C991.062,908.26,991.05,920.166,998.723,920.166
					L998.723,920.166z"/>
			</g>
		</g>
		<g>
			<g>
				<path style="fill:#C7B299;" d="M1007.915,927.06c7.661,0,7.674-11.906,0-11.906
					C1000.254,915.153,1000.241,927.06,1007.915,927.06L1007.915,927.06z"/>
			</g>
		</g>
	</g>
	<g>
		<g>
			<path style="fill:#FFFFFF;" d="M880,717.953c7.661,0,7.674-11.906,0-11.906C872.339,706.047,872.326,717.953,880,717.953
				L880,717.953z"/>
		</g>
	</g>
	<g>
		<g>
			<path style="fill:#FFFFFF;" d="M873.872,727.911c7.661,0,7.674-11.906,0-11.906C866.211,716.004,866.199,727.911,873.872,727.911
				L873.872,727.911z"/>
		</g>
	</g>
	<g>
		<g>
			<path style="fill:#FFFFFF;" d="M877.702,738.634c7.661,0,7.674-11.906,0-11.906C870.041,726.728,870.028,738.634,877.702,738.634
				L877.702,738.634z"/>
		</g>
	</g>
	<g>
		<g>
			<path style="fill:#FFFFFF;" d="M883.064,749.357c7.661,0,7.674-11.906,0-11.906C875.403,737.451,875.39,749.357,883.064,749.357
				L883.064,749.357z"/>
		</g>
	</g>
	<g>
		<g>
			<path style="fill:#FFFFFF;" d="M883.064,760.847c7.661,0,7.674-11.906,0-11.906C875.403,748.94,875.39,760.847,883.064,760.847
				L883.064,760.847z"/>
		</g>
	</g>
	<g>
		<g>
			<path style="fill:#FFFFFF;" d="M883.064,775.4c7.661,0,7.674-11.906,0-11.906C875.403,763.494,875.39,775.4,883.064,775.4
				L883.064,775.4z"/>
		</g>
	</g>
	<g>
		<g>
			<path style="fill:#FFFFFF;" d="M880.766,792.251c7.661,0,7.674-11.906,0-11.906C873.105,780.345,873.092,792.251,880.766,792.251
				L880.766,792.251z"/>
		</g>
	</g>
	<g>
		<g>
			<path style="fill:#FFFFFF;" d="M870.043,786.889c7.661,0,7.674-11.906,0-11.906C862.381,774.983,862.369,786.889,870.043,786.889
				L870.043,786.889z"/>
		</g>
	</g>
	<g>
		<g>
			<path style="fill:#FFFFFF;" d="M864.681,780.762c7.661,0,7.674-11.906,0-11.906C857.02,768.855,857.007,780.762,864.681,780.762
				L864.681,780.762z"/>
		</g>
	</g>
	<g>
		<g>
			<path style="fill:#FFFFFF;" d="M857.021,770.804c7.661,0,7.674-11.906,0-11.906C849.36,758.898,849.347,770.804,857.021,770.804
				L857.021,770.804z"/>
		</g>
	</g>
	<g>
		<g>
			<path style="fill:#FFFFFF;" d="M850.128,759.315c7.661,0,7.674-11.906,0-11.906C842.467,747.409,842.454,759.315,850.128,759.315
				L850.128,759.315z"/>
		</g>
	</g>
	<g>
		<g>
			<path style="fill:#FFFFFF;" d="M844,749.357c7.661,0,7.674-11.906,0-11.906C836.339,737.451,836.326,749.357,844,749.357
				L844,749.357z"/>
		</g>
	</g>
	<g>
		<g>
			<path style="fill:#FFFFFF;" d="M837.872,740.932c7.661,0,7.674-11.906,0-11.906C830.211,729.026,830.199,740.932,837.872,740.932
				L837.872,740.932z"/>
		</g>
	</g>
	<g>
		<g>
			<path style="fill:#FFFFFF;" d="M830.979,729.443c7.661,0,7.674-11.906,0-11.906C823.318,717.536,823.305,729.443,830.979,729.443
				L830.979,729.443z"/>
		</g>
	</g>
	<g>
		<g>
			<path style="fill:#FFFFFF;" d="M822.553,734.038c7.661,0,7.674-11.906,0-11.906C814.892,722.132,814.879,734.038,822.553,734.038
				L822.553,734.038z"/>
		</g>
	</g>
	<g>
		<g>
			<path style="fill:#FFFFFF;" d="M812.004,731.149c0,0.255,0,0.511,0,0.766c-0.031,0.82,0.14,1.584,0.513,2.294
				c0.24,0.738,0.65,1.377,1.231,1.916c0.539,0.581,1.178,0.991,1.916,1.231c0.709,0.373,1.474,0.544,2.294,0.513
				c0.528-0.071,1.055-0.142,1.583-0.213c1.008-0.283,1.884-0.793,2.627-1.531c0.31-0.402,0.621-0.803,0.931-1.205
				c0.539-0.929,0.809-1.93,0.813-3.005c0-0.255,0-0.511,0-0.766c0.031-0.82-0.14-1.584-0.513-2.294
				c-0.24-0.738-0.65-1.377-1.231-1.916c-0.539-0.581-1.178-0.991-1.916-1.231c-0.709-0.373-1.474-0.544-2.294-0.513
				c-0.528,0.071-1.055,0.142-1.583,0.213c-1.008,0.283-1.884,0.793-2.627,1.531c-0.31,0.402-0.621,0.803-0.931,1.205
				C812.279,729.073,812.008,730.074,812.004,731.149L812.004,731.149z"/>
		</g>
	</g>
	<g>
		<g>
			<path style="fill:#FFFFFF;" d="M821.787,748.591c7.661,0,7.674-11.906,0-11.906C814.126,736.685,814.113,748.591,821.787,748.591
				L821.787,748.591z"/>
		</g>
	</g>
	<g>
		<g>
			<path style="fill:#FFFFFF;" d="M827.149,758.549c7.661,0,7.674-11.906,0-11.906C819.488,746.643,819.475,758.549,827.149,758.549
				L827.149,758.549z"/>
		</g>
	</g>
	<g>
		<g>
			<path style="fill:#FFFFFF;" d="M831.745,773.102c7.661,0,7.674-11.906,0-11.906C824.084,761.196,824.071,773.102,831.745,773.102
				L831.745,773.102z"/>
		</g>
	</g>
	<g>
		<g>
			<path style="fill:#FFFFFF;" d="M838.638,781.528c7.661,0,7.674-11.906,0-11.906C830.977,769.621,830.964,781.528,838.638,781.528
				L838.638,781.528z"/>
		</g>
	</g>
	<g>
		<g>
			<path style="fill:#FFFFFF;" d="M829.447,790.719c7.661,0,7.674-11.906,0-11.906C821.786,778.813,821.773,790.719,829.447,790.719
				L829.447,790.719z"/>
		</g>
	</g>
	<g>
		<g>
			<path style="fill:#FFFFFF;" d="M813.362,787.655c7.661,0,7.674-11.906,0-11.906C805.701,775.749,805.688,787.655,813.362,787.655
				L813.362,787.655z"/>
		</g>
	</g>
	<g>
		<g>
			<path style="fill:#FFFFFF;" d="M802.638,789.953c7.661,0,7.674-11.906,0-11.906C794.977,778.047,794.964,789.953,802.638,789.953
				L802.638,789.953z"/>
		</g>
	</g>
	<g>
		<g>
			<path style="fill:#FFFFFF;" d="M795.919,792.426c0,0.255,0,0.511,0,0.766c-0.031,0.82,0.14,1.584,0.513,2.294
				c0.24,0.738,0.65,1.377,1.231,1.916c0.539,0.581,1.178,0.991,1.916,1.231c0.709,0.373,1.474,0.544,2.294,0.513
				c0.528-0.071,1.055-0.142,1.583-0.213c1.008-0.283,1.884-0.793,2.627-1.531c0.31-0.402,0.621-0.803,0.931-1.205
				c0.539-0.929,0.809-1.93,0.813-3.005c0-0.255,0-0.511,0-0.766c0.031-0.82-0.14-1.584-0.513-2.294
				c-0.24-0.738-0.65-1.377-1.231-1.916c-0.539-0.581-1.178-0.991-1.916-1.231c-0.709-0.373-1.474-0.544-2.294-0.513
				c-0.528,0.071-1.055,0.142-1.583,0.213c-1.008,0.283-1.884,0.793-2.627,1.531c-0.31,0.402-0.621,0.803-0.931,1.205
				C796.193,790.349,795.923,791.351,795.919,792.426L795.919,792.426z"/>
		</g>
	</g>
	<g>
		<g>
			<path style="fill:#FFFFFF;" d="M808.766,809.102c7.661,0,7.674-11.906,0-11.906C801.105,797.196,801.092,809.102,808.766,809.102
				L808.766,809.102z"/>
		</g>
	</g>
	<g>
		<g>
			<path style="fill:#FFFFFF;" d="M818.723,811.4c7.661,0,7.674-11.906,0-11.906C811.062,799.494,811.05,811.4,818.723,811.4
				L818.723,811.4z"/>
		</g>
	</g>
	<g>
		<g>
			<path style="fill:#FFFFFF;" d="M828.681,808.336c7.661,0,7.674-11.906,0-11.906C821.02,796.43,821.007,808.336,828.681,808.336
				L828.681,808.336z"/>
		</g>
	</g>
	<g>
		<g>
			<path style="fill:#FFFFFF;" d="M843.234,807.57c7.661,0,7.674-11.906,0-11.906C835.573,795.664,835.56,807.57,843.234,807.57
				L843.234,807.57z"/>
		</g>
	</g>
	<g>
		<g>
			<path style="fill:#FFFFFF;" d="M855.489,802.974c7.661,0,7.674-11.906,0-11.906C847.828,791.068,847.816,802.974,855.489,802.974
				L855.489,802.974z"/>
		</g>
	</g>
	<g>
		<g>
			<path style="fill:#FFFFFF;" d="M867.745,810.634c7.661,0,7.674-11.906,0-11.906C860.084,798.728,860.071,810.634,867.745,810.634
				L867.745,810.634z"/>
		</g>
	</g>
	<g>
		<g>
			<path style="fill:#FFFFFF;" d="M880,818.294c7.661,0,7.674-11.906,0-11.906C872.339,806.387,872.326,818.294,880,818.294
				L880,818.294z"/>
		</g>
	</g>
	<g>
		<g>
			<path style="fill:#FFFFFF;" d="M890.723,824.421c7.661,0,7.674-11.906,0-11.906C883.062,812.515,883.05,824.421,890.723,824.421
				L890.723,824.421z"/>
		</g>
	</g>
	<g>
		<g>
			<path style="fill:#FFFFFF;" d="M901.447,832.847c7.661,0,7.674-11.906,0-11.906C893.786,820.94,893.773,832.847,901.447,832.847
				L901.447,832.847z"/>
		</g>
	</g>
	<g>
		<g>
			<path style="fill:#FFFFFF;" d="M912.17,842.804c7.661,0,7.674-11.906,0-11.906C904.509,830.898,904.496,842.804,912.17,842.804
				L912.17,842.804z"/>
		</g>
	</g>
	<g>
		<g>
			<path style="fill:#FFFFFF;" d="M909.106,853.528c7.661,0,7.674-11.906,0-11.906C901.445,841.621,901.433,853.528,909.106,853.528
				L909.106,853.528z"/>
		</g>
	</g>
	<g>
		<g>
			<path style="fill:#FFFFFF;" d="M910.638,865.017c7.661,0,7.674-11.906,0-11.906C902.977,853.111,902.964,865.017,910.638,865.017
				L910.638,865.017z"/>
		</g>
	</g>
	<g>
		<g>
			<path style="fill:#FFFFFF;" d="M914.468,876.506c7.661,0,7.674-11.906,0-11.906C906.807,864.6,906.794,876.506,914.468,876.506
				L914.468,876.506z"/>
		</g>
	</g>
	<g>
		<g>
			<path style="fill:#FFFFFF;" d="M916,885.698c7.661,0,7.674-11.906,0-11.906C908.339,873.792,908.326,885.698,916,885.698
				L916,885.698z"/>
		</g>
	</g>
	<g>
		<g>
			<path style="fill:#FFFFFF;" d="M919.83,898.719c7.661,0,7.674-11.906,0-11.906C912.169,886.813,912.156,898.719,919.83,898.719
				L919.83,898.719z"/>
		</g>
	</g>
	<g>
		<g>
			<path style="fill:#FFFFFF;" d="M932.465,892.38c0.255-0.255,0.511-0.511,0.766-0.766c0.581-0.539,0.991-1.178,1.231-1.916
				c0.373-0.709,0.544-1.474,0.513-2.294c0.031-0.82-0.14-1.584-0.513-2.294c-0.24-0.738-0.65-1.377-1.231-1.916
				c-0.402-0.31-0.803-0.621-1.205-0.931c-0.929-0.539-1.93-0.809-3.005-0.813c-0.528,0.071-1.055,0.142-1.583,0.213
				c-1.008,0.283-1.884,0.793-2.627,1.531c-0.255,0.255-0.511,0.511-0.766,0.766c-0.581,0.539-0.991,1.178-1.231,1.916
				c-0.373,0.709-0.544,1.474-0.513,2.294c-0.031,0.82,0.14,1.584,0.513,2.294c0.24,0.738,0.65,1.377,1.231,1.916
				c0.402,0.31,0.803,0.621,1.205,0.931c0.929,0.539,1.93,0.809,3.005,0.813c0.528-0.071,1.055-0.142,1.583-0.213
				C930.846,893.628,931.722,893.117,932.465,892.38L932.465,892.38z"/>
		</g>
	</g>
	<g>
		<g>
			<path style="fill:#FFFFFF;" d="M937.447,879.57c7.661,0,7.674-11.906,0-11.906C929.786,867.664,929.773,879.57,937.447,879.57
				L937.447,879.57z"/>
		</g>
	</g>
	<g>
		<g>
			<path style="fill:#FFFFFF;" d="M932.085,869.613c7.661,0,7.674-11.906,0-11.906C924.424,857.706,924.411,869.613,932.085,869.613
				L932.085,869.613z"/>
		</g>
	</g>
	<g>
		<g>
			<path style="fill:#FFFFFF;" d="M929.021,859.655c7.661,0,7.674-11.906,0-11.906C921.36,847.749,921.347,859.655,929.021,859.655
				L929.021,859.655z"/>
		</g>
	</g>
	<g>
		<g>
			<path style="fill:#FFFFFF;" d="M929.021,845.868c7.661,0,7.674-11.906,0-11.906C921.36,833.962,921.347,845.868,929.021,845.868
				L929.021,845.868z"/>
		</g>
	</g>
	<g>
		<g>
			<path style="fill:#FFFFFF;" d="M941.277,848.932c7.661,0,7.674-11.906,0-11.906C933.615,837.026,933.603,848.932,941.277,848.932
				L941.277,848.932z"/>
		</g>
	</g>
	<g>
		<g>
			<path style="fill:#FFFFFF;" d="M951.234,852.762c7.661,0,7.674-11.906,0-11.906C943.573,840.855,943.56,852.762,951.234,852.762
				L951.234,852.762z"/>
		</g>
	</g>
	<g>
		<g>
			<path style="fill:#FFFFFF;" d="M965.021,855.06c7.661,0,7.674-11.906,0-11.906C957.36,843.153,957.347,855.06,965.021,855.06
				L965.021,855.06z"/>
		</g>
	</g>
	<g>
		<g>
			<path style="fill:#FFFFFF;" d="M983.404,855.825c7.661,0,7.674-11.906,0-11.906C975.743,843.919,975.73,855.825,983.404,855.825
				L983.404,855.825z"/>
		</g>
	</g>
	<g>
		<g>
			<path style="fill:#FFFFFF;" d="M978.043,856.591c7.661,0,7.674-11.906,0-11.906C970.381,844.685,970.369,856.591,978.043,856.591
				L978.043,856.591z"/>
		</g>
	</g>
	<g>
		<g>
			<path style="fill:#FFFFFF;" d="M983.404,865.017c7.661,0,7.674-11.906,0-11.906C975.743,853.111,975.73,865.017,983.404,865.017
				L983.404,865.017z"/>
		</g>
	</g>
	<g>
		<g>
			<path style="fill:#FFFFFF;" d="M975.745,872.677c7.661,0,7.674-11.906,0-11.906C968.084,860.77,968.071,872.677,975.745,872.677
				L975.745,872.677z"/>
		</g>
	</g>
	<g>
		<g>
			<path style="fill:#FFFFFF;" d="M968.085,881.868c7.661,0,7.674-11.906,0-11.906C960.424,869.962,960.411,881.868,968.085,881.868
				L968.085,881.868z"/>
		</g>
	</g>
	<g>
		<g>
			<path style="fill:#FFFFFF;" d="M955.064,890.294c7.661,0,7.674-11.906,0-11.906C947.403,878.387,947.39,890.294,955.064,890.294
				L955.064,890.294z"/>
		</g>
	</g>
	<g>
		<g>
			<path style="fill:#FFFFFF;" d="M944.34,898.719c7.661,0,7.674-11.906,0-11.906C936.679,886.813,936.667,898.719,944.34,898.719
				L944.34,898.719z"/>
		</g>
	</g>
	<g>
		<g>
			<path style="fill:#FFFFFF;" d="M932.851,902.549c7.661,0,7.674-11.906,0-11.906C925.19,890.643,925.177,902.549,932.851,902.549
				L932.851,902.549z"/>
		</g>
	</g>
	<g>
		<g>
			<path style="fill:#FFFFFF;" d="M924.426,910.208c7.661,0,7.674-11.906,0-11.906C916.764,898.302,916.752,910.208,924.426,910.208
				L924.426,910.208z"/>
		</g>
	</g>
	<g>
		<g>
			<path style="fill:#FFFFFF;" d="M920.596,922.464c7.661,0,7.674-11.906,0-11.906C912.935,910.557,912.922,922.464,920.596,922.464
				L920.596,922.464z"/>
		</g>
	</g>
	<g>
		<g>
			<path style="fill:#FFFFFF;" d="M933.617,923.996c7.661,0,7.674-11.906,0-11.906C925.956,912.089,925.943,923.996,933.617,923.996
				L933.617,923.996z"/>
		</g>
	</g>
	<g>
		<g>
			<path style="fill:#FFFFFF;" d="M944.34,917.102c7.661,0,7.674-11.906,0-11.906C936.679,905.196,936.667,917.102,944.34,917.102
				L944.34,917.102z"/>
		</g>
	</g>
	<g>
		<g>
			<path style="fill:#FFFFFF;" d="M957.362,907.145c7.661,0,7.674-11.906,0-11.906C949.701,895.238,949.688,907.145,957.362,907.145
				L957.362,907.145z"/>
		</g>
	</g>
	<g>
		<g>
			<path style="fill:#FFFFFF;" d="M968.085,901.783c7.661,0,7.674-11.906,0-11.906C960.424,889.877,960.411,901.783,968.085,901.783
				L968.085,901.783z"/>
		</g>
	</g>
	<g>
		<g>
			<path style="fill:#FFFFFF;" d="M980.34,907.911c7.661,0,7.674-11.906,0-11.906C972.679,896.004,972.667,907.911,980.34,907.911
				L980.34,907.911z"/>
		</g>
	</g>
	<g>
		<g>
			<path style="fill:#FFFFFF;" d="M984.936,920.166c7.661,0,7.674-11.906,0-11.906C977.275,908.26,977.262,920.166,984.936,920.166
				L984.936,920.166z"/>
		</g>
	</g>
	<g>
		<g>
			<path style="fill:#FFFFFF;" d="M995.66,927.06c7.661,0,7.674-11.906,0-11.906C987.998,915.153,987.986,927.06,995.66,927.06
				L995.66,927.06z"/>
		</g>
	</g>
	<g>
		<g>
			<path style="fill:#FFFFFF;" d="M1007.149,933.187c7.661,0,7.674-11.906,0-11.906
				C999.488,921.281,999.475,933.187,1007.149,933.187L1007.149,933.187z"/>
		</g>
	</g>
	<g>
		<g>
			<path style="fill:#FFFFFF;" d="M1017.106,927.06c7.661,0,7.674-11.906,0-11.906
				C1009.445,915.153,1009.433,927.06,1017.106,927.06L1017.106,927.06z"/>
		</g>
	</g>
	<g>
		<g>
			<path style="fill:#FFFFFF;" d="M1009.447,915.57c7.661,0,7.674-11.906,0-11.906
				C1001.786,903.664,1001.773,915.57,1009.447,915.57L1009.447,915.57z"/>
		</g>
	</g>
	<g>
		<g>
			<path style="fill:#FFFFFF;" d="M1001.787,905.613c7.661,0,7.674-11.906,0-11.906
				C994.126,893.706,994.113,905.613,1001.787,905.613L1001.787,905.613z"/>
		</g>
	</g>
	<g>
		<g>
			<path style="fill:#FFFFFF;" d="M996.426,896.421c7.661,0,7.674-11.906,0-11.906C988.764,884.515,988.752,896.421,996.426,896.421
				L996.426,896.421z"/>
		</g>
	</g>
	<g>
		<g>
			<path style="fill:#FFFFFF;" d="M991.064,884.932c7.661,0,7.674-11.906,0-11.906C983.403,873.026,983.39,884.932,991.064,884.932
				L991.064,884.932z"/>
		</g>
	</g>
	<g>
		<g>
			<path style="fill:#FFFFFF;" d="M993.362,874.974c7.661,0,7.674-11.906,0-11.906C985.701,863.068,985.688,874.974,993.362,874.974
				L993.362,874.974z"/>
		</g>
	</g>
	<g>
		<g>
			<path style="fill:#FFFFFF;" d="M1003.319,863.485c7.661,0,7.674-11.906,0-11.906
				C995.658,851.579,995.645,863.485,1003.319,863.485L1003.319,863.485z"/>
		</g>
	</g>
	<g>
		<g>
			<path style="fill:#FFFFFF;" d="M1016.34,861.187c7.661,0,7.674-11.906,0-11.906
				C1008.679,849.281,1008.667,861.187,1016.34,861.187L1016.34,861.187z"/>
		</g>
	</g>
	<g>
		<g>
			<path style="fill:#FFFFFF;" d="M1029.362,860.421c7.661,0,7.674-11.906,0-11.906
				C1021.701,848.515,1021.688,860.421,1029.362,860.421L1029.362,860.421z"/>
		</g>
	</g>
	<g>
		<g>
			<path style="fill:#FFFFFF;" d="M1043.915,863.485c7.661,0,7.674-11.906,0-11.906
				C1036.254,851.579,1036.241,863.485,1043.915,863.485L1043.915,863.485z"/>
		</g>
	</g>
	<g>
		<g>
			<path style="fill:#FFFFFF;" d="M1059.234,863.485c7.661,0,7.674-11.906,0-11.906
				C1051.573,851.579,1051.56,863.485,1059.234,863.485L1059.234,863.485z"/>
		</g>
	</g>
	<g>
		<g>
			<path style="fill:#FFFFFF;" d="M1073.787,867.315c7.661,0,7.674-11.906,0-11.906
				C1066.126,855.409,1066.113,867.315,1073.787,867.315L1073.787,867.315z"/>
		</g>
	</g>
	<g>
		<g>
			<path style="fill:#FFFFFF;" d="M1062.298,874.208c7.661,0,7.674-11.906,0-11.906
				C1054.637,862.302,1054.624,874.208,1062.298,874.208L1062.298,874.208z"/>
		</g>
	</g>
	<g>
		<g>
			<path style="fill:#FFFFFF;" d="M1046.387,869.021c0,0.511,0,1.021,0,1.532c-0.031,0.82,0.14,1.584,0.513,2.294
				c0.24,0.738,0.65,1.377,1.231,1.916c0.539,0.581,1.178,0.991,1.916,1.231c0.709,0.373,1.474,0.544,2.294,0.513
				c0.527-0.071,1.055-0.142,1.583-0.213c1.009-0.283,1.884-0.793,2.627-1.531c1.069-1.165,1.744-2.596,1.744-4.21
				c0-0.511,0-1.021,0-1.532c0.031-0.82-0.14-1.584-0.513-2.294c-0.24-0.738-0.65-1.377-1.231-1.916
				c-0.539-0.581-1.178-0.991-1.916-1.231c-0.709-0.373-1.474-0.544-2.294-0.513c-0.528,0.071-1.055,0.142-1.583,0.213
				c-1.008,0.283-1.884,0.793-2.627,1.531C1047.062,865.977,1046.387,867.408,1046.387,869.021L1046.387,869.021z"/>
		</g>
	</g>
	<g>
		<g>
			<path style="fill:#FFFFFF;" d="M1045.447,887.23c7.661,0,7.674-11.906,0-11.906
				C1037.786,875.323,1037.773,887.23,1045.447,887.23L1045.447,887.23z"/>
		</g>
	</g>
	<g>
		<g>
			<path style="fill:#FFFFFF;" d="M1053.872,894.889c7.661,0,7.674-11.906,0-11.906
				C1046.211,882.983,1046.199,894.889,1053.872,894.889L1053.872,894.889z"/>
		</g>
	</g>
	<g>
		<g>
			<path style="fill:#FFFFFF;" d="M1065.362,890.294c7.661,0,7.674-11.906,0-11.906
				C1057.701,878.387,1057.688,890.294,1065.362,890.294L1065.362,890.294z"/>
		</g>
	</g>
	<g>
		<g>
			<path style="fill:#FFFFFF;" d="M1080.681,889.528c7.661,0,7.674-11.906,0-11.906
				C1073.02,877.621,1073.007,889.528,1080.681,889.528L1080.681,889.528z"/>
		</g>
	</g>
	<g>
		<g>
			<path style="fill:#FFFFFF;" d="M1095.234,884.932c7.661,0,7.674-11.906,0-11.906
				C1087.573,873.026,1087.56,884.932,1095.234,884.932L1095.234,884.932z"/>
		</g>
	</g>
	<g>
		<g>
			<path style="fill:#FFFFFF;" d="M1107.489,886.464c7.661,0,7.674-11.906,0-11.906
				C1099.828,874.557,1099.816,886.464,1107.489,886.464L1107.489,886.464z"/>
		</g>
	</g>
	<g>
		<g>
			<path style="fill:#FFFFFF;" d="M1120.511,894.123c7.661,0,7.674-11.906,0-11.906
				C1112.849,882.217,1112.837,894.123,1120.511,894.123L1120.511,894.123z"/>
		</g>
	</g>
	<g>
		<g>
			<path style="fill:#FFFFFF;" d="M1118.213,906.379c7.661,0,7.674-11.906,0-11.906
				C1110.552,894.472,1110.539,906.379,1118.213,906.379L1118.213,906.379z"/>
		</g>
	</g>
	<g>
		<g>
			<path style="fill:#FFFFFF;" d="M1115.149,919.4c7.661,0,7.674-11.906,0-11.906C1107.488,907.494,1107.475,919.4,1115.149,919.4
				L1115.149,919.4z"/>
		</g>
	</g>
	<g>
		<g>
			<path style="fill:#FFFFFF;" d="M1107.489,924.762c7.661,0,7.674-11.906,0-11.906
				C1099.828,912.855,1099.816,924.762,1107.489,924.762L1107.489,924.762z"/>
		</g>
	</g>
	<g>
		<g>
			<path style="fill:#FFFFFF;" d="M1096,930.123c7.661,0,7.674-11.906,0-11.906C1088.339,918.217,1088.326,930.123,1096,930.123
				L1096,930.123z"/>
		</g>
	</g>
	<g>
		<g>
			<path style="fill:#FFFFFF;" d="M1093.702,943.911c7.661,0,7.674-11.906,0-11.906
				C1086.041,932.004,1086.028,943.911,1093.702,943.911L1093.702,943.911z"/>
		</g>
	</g>
	<g>
		<g>
			<path style="fill:#FFFFFF;" d="M1107.489,942.379c7.661,0,7.674-11.906,0-11.906
				C1099.828,930.472,1099.816,942.379,1107.489,942.379L1107.489,942.379z"/>
		</g>
	</g>
	<g>
		<g>
			<path style="fill:#FFFFFF;" d="M1119.745,936.251c7.661,0,7.674-11.906,0-11.906
				C1112.084,924.345,1112.071,936.251,1119.745,936.251L1119.745,936.251z"/>
		</g>
	</g>
	<g>
		<g>
			<path style="fill:#FFFFFF;" d="M1132,927.06c7.661,0,7.674-11.906,0-11.906C1124.339,915.153,1124.326,927.06,1132,927.06
				L1132,927.06z"/>
		</g>
	</g>
	<g>
		<g>
			<path style="fill:#FFFFFF;" d="M1135.064,914.804c7.661,0,7.674-11.906,0-11.906
				C1127.403,902.898,1127.39,914.804,1135.064,914.804L1135.064,914.804z"/>
		</g>
	</g>
	<g>
		<g>
			<path style="fill:#FFFFFF;" d="M1141.957,904.081c7.661,0,7.674-11.906,0-11.906
				C1134.296,892.175,1134.284,904.081,1141.957,904.081L1141.957,904.081z"/>
		</g>
	</g>
	<g>
		<g>
			<path style="fill:#FFFFFF;" d="M1151.915,913.272c7.661,0,7.674-11.906,0-11.906
				C1144.254,901.366,1144.241,913.272,1151.915,913.272L1151.915,913.272z"/>
		</g>
	</g>
	<g>
		<g>
			<path style="fill:#FFFFFF;" d="M1160.34,925.528c7.661,0,7.674-11.906,0-11.906
				C1152.679,913.621,1152.667,925.528,1160.34,925.528L1160.34,925.528z"/>
		</g>
	</g>
	<g>
		<g>
			<path style="fill:#FFFFFF;" d="M1169.532,934.719c7.661,0,7.674-11.906,0-11.906
				C1161.871,922.813,1161.858,934.719,1169.532,934.719L1169.532,934.719z"/>
		</g>
	</g>
	<g>
		<g>
			<path style="fill:#FFFFFF;" d="M1176.426,946.208c7.661,0,7.674-11.906,0-11.906
				C1168.764,934.302,1168.752,946.208,1176.426,946.208L1176.426,946.208z"/>
		</g>
	</g>
	<g>
		<g>
			<path style="fill:#FFFFFF;" d="M1186.383,954.634c7.661,0,7.674-11.906,0-11.906
				C1178.722,942.728,1178.709,954.634,1186.383,954.634L1186.383,954.634z"/>
		</g>
	</g>
	<g>
		<g>
			<path style="fill:#FFFFFF;" d="M1194.043,968.421c7.661,0,7.674-11.906,0-11.906
				C1186.381,956.515,1186.369,968.421,1194.043,968.421L1194.043,968.421z"/>
		</g>
	</g>
	<g>
		<g>
			<path style="fill:#FFFFFF;" d="M1205.532,970.719c7.661,0,7.674-11.906,0-11.906
				C1197.871,958.813,1197.858,970.719,1205.532,970.719L1205.532,970.719z"/>
		</g>
	</g>
	<g>
		<g>
			<path style="fill:#FFFFFF;" d="M1213.192,958.464c7.661,0,7.674-11.906,0-11.906
				C1205.53,946.557,1205.518,958.464,1213.192,958.464L1213.192,958.464z"/>
		</g>
	</g>
	<g>
		<g>
			<path style="fill:#FFFFFF;" d="M1204,948.506c7.661,0,7.674-11.906,0-11.906C1196.339,936.6,1196.326,948.506,1204,948.506
				L1204,948.506z"/>
		</g>
	</g>
	<g>
		<g>
			<path style="fill:#FFFFFF;" d="M1196.34,937.783c7.661,0,7.674-11.906,0-11.906
				C1188.679,925.877,1188.667,937.783,1196.34,937.783L1196.34,937.783z"/>
		</g>
	</g>
	<g>
		<g>
			<path style="fill:#FFFFFF;" d="M1191.745,925.528c7.661,0,7.674-11.906,0-11.906
				C1184.084,913.621,1184.071,925.528,1191.745,925.528L1191.745,925.528z"/>
		</g>
	</g>
	<g>
		<g>
			<path style="fill:#FFFFFF;" d="M1206.298,930.889c7.661,0,7.674-11.906,0-11.906
				C1198.637,918.983,1198.624,930.889,1206.298,930.889L1206.298,930.889z"/>
		</g>
	</g>
	<g>
		<g>
			<path style="fill:#FFFFFF;" d="M1218.553,937.783c7.661,0,7.674-11.906,0-11.906
				C1210.892,925.877,1210.879,937.783,1218.553,937.783L1218.553,937.783z"/>
		</g>
	</g>
	<g>
		<g>
			<path style="fill:#FFFFFF;" d="M1230.043,946.208c7.661,0,7.674-11.906,0-11.906
				C1222.381,934.302,1222.369,946.208,1230.043,946.208L1230.043,946.208z"/>
		</g>
	</g>
	<g>
		<g>
			<path style="fill:#FFFFFF;" d="M1242.298,958.464c7.661,0,7.674-11.906,0-11.906
				C1234.637,946.557,1234.624,958.464,1242.298,958.464L1242.298,958.464z"/>
		</g>
	</g>
	<g>
		<g>
			<path style="fill:#FFFFFF;" d="M1252.255,948.506c7.661,0,7.674-11.906,0-11.906
				C1244.594,936.6,1244.582,948.506,1252.255,948.506L1252.255,948.506z"/>
		</g>
	</g>
	<g>
		<g>
			<path style="fill:#FFFFFF;" d="M1246.894,937.783c7.661,0,7.674-11.906,0-11.906
				C1239.233,925.877,1239.22,937.783,1246.894,937.783L1246.894,937.783z"/>
		</g>
	</g>
	<g>
		<g>
			<path style="fill:#FFFFFF;" d="M1241.532,933.187c7.661,0,7.674-11.906,0-11.906
				C1233.871,921.281,1233.858,933.187,1241.532,933.187L1241.532,933.187z"/>
		</g>
	</g>
	<g>
		<g>
			<path style="fill:#FFFFFF;" d="M1231.574,925.528c7.661,0,7.674-11.906,0-11.906
				C1223.913,913.621,1223.901,925.528,1231.574,925.528L1231.574,925.528z"/>
		</g>
	</g>
	<g>
		<g>
			<path style="fill:#FFFFFF;" d="M1223.149,918.634c7.661,0,7.674-11.906,0-11.906
				C1215.488,906.728,1215.475,918.634,1223.149,918.634L1223.149,918.634z"/>
		</g>
	</g>
	<g>
		<g>
			<path style="fill:#FFFFFF;" d="M1213.957,912.506c7.661,0,7.674-11.906,0-11.906
				C1206.296,900.6,1206.284,912.506,1213.957,912.506L1213.957,912.506z"/>
		</g>
	</g>
	<g>
		<g>
			<path style="fill:#FFFFFF;" d="M1223.149,906.379c7.661,0,7.674-11.906,0-11.906
				C1215.488,894.472,1215.475,906.379,1223.149,906.379L1223.149,906.379z"/>
		</g>
	</g>
	<g>
		<g>
			<path style="fill:#FFFFFF;" d="M1233.106,894.889c7.661,0,7.674-11.906,0-11.906
				C1225.445,882.983,1225.433,894.889,1233.106,894.889L1233.106,894.889z"/>
		</g>
	</g>
	<g>
		<g>
			<path style="fill:#FFFFFF;" d="M1229.277,884.166c7.661,0,7.674-11.906,0-11.906
				C1221.615,872.26,1221.603,884.166,1229.277,884.166L1229.277,884.166z"/>
		</g>
	</g>
	<g>
		<g>
			<path style="fill:#FFFFFF;" d="M1220.851,884.932c7.661,0,7.674-11.906,0-11.906
				C1213.19,873.026,1213.177,884.932,1220.851,884.932L1220.851,884.932z"/>
		</g>
	</g>
	<g>
		<g>
			<path style="fill:#FFFFFF;" d="M1213.957,891.825c7.661,0,7.674-11.906,0-11.906
				C1206.296,879.919,1206.284,891.825,1213.957,891.825L1213.957,891.825z"/>
		</g>
	</g>
	<g>
		<g>
			<path style="fill:#FFFFFF;" d="M1204.766,899.485c7.661,0,7.674-11.906,0-11.906
				C1197.105,887.579,1197.092,899.485,1204.766,899.485L1204.766,899.485z"/>
		</g>
	</g>
	<g>
		<g>
			<path style="fill:#FFFFFF;" d="M1197.872,903.315c7.661,0,7.674-11.906,0-11.906
				C1190.211,891.409,1190.199,903.315,1197.872,903.315L1197.872,903.315z"/>
		</g>
	</g>
	<g>
		<g>
			<path style="fill:#FFFFFF;" d="M1188.681,910.974c7.661,0,7.674-11.906,0-11.906
				C1181.02,899.068,1181.007,910.974,1188.681,910.974L1188.681,910.974z"/>
		</g>
	</g>
	<g>
		<g>
			<path style="fill:#FFFFFF;" d="M1178.723,914.038c7.661,0,7.674-11.906,0-11.906
				C1171.062,902.132,1171.05,914.038,1178.723,914.038L1178.723,914.038z"/>
		</g>
	</g>
	<g>
		<g>
			<path style="fill:#FFFFFF;" d="M1174.128,907.911c7.661,0,7.674-11.906,0-11.906
				C1166.467,896.004,1166.454,907.911,1174.128,907.911L1174.128,907.911z"/>
		</g>
	</g>
	<g>
		<g>
			<path style="fill:#FFFFFF;" d="M1161.106,901.017c7.661,0,7.674-11.906,0-11.906
				C1153.445,889.111,1153.433,901.017,1161.106,901.017L1161.106,901.017z"/>
		</g>
	</g>
	<g>
		<g>
			<path style="fill:#FFFFFF;" d="M1150.383,893.357c7.661,0,7.674-11.906,0-11.906
				C1142.722,881.451,1142.709,893.357,1150.383,893.357L1150.383,893.357z"/>
		</g>
	</g>
	<g>
		<g>
			<path style="fill:#FFFFFF;" d="M1138.894,882.634c7.661,0,7.674-11.906,0-11.906
				C1131.233,870.728,1131.22,882.634,1138.894,882.634L1138.894,882.634z"/>
		</g>
	</g>
	<g>
		<g>
			<path style="fill:#FFFFFF;" d="M1130.468,875.74c7.661,0,7.674-11.906,0-11.906
				C1122.807,863.834,1122.794,875.74,1130.468,875.74L1130.468,875.74z"/>
		</g>
	</g>
	<g>
		<g>
			<path style="fill:#FFFFFF;" d="M1128.17,863.485c7.661,0,7.674-11.906,0-11.906
				C1120.509,851.579,1120.496,863.485,1128.17,863.485L1128.17,863.485z"/>
		</g>
	</g>
	<g>
		<g>
			<path style="fill:#FFFFFF;" d="M1119.745,850.464c7.661,0,7.674-11.906,0-11.906
				C1112.084,838.557,1112.071,850.464,1119.745,850.464L1119.745,850.464z"/>
		</g>
	</g>
	<g>
		<g>
			<path style="fill:#FFFFFF;" d="M1115.149,835.145c7.661,0,7.674-11.906,0-11.906
				C1107.488,823.238,1107.475,835.145,1115.149,835.145L1115.149,835.145z"/>
		</g>
	</g>
	<g>
		<g>
			<path style="fill:#FFFFFF;" d="M1115.149,823.655c7.661,0,7.674-11.906,0-11.906
				C1107.488,811.749,1107.475,823.655,1115.149,823.655L1115.149,823.655z"/>
		</g>
	</g>
	<g>
		<g>
			<path style="fill:#FFFFFF;" d="M1112.085,812.166c7.661,0,7.674-11.906,0-11.906
				C1104.424,800.26,1104.411,812.166,1112.085,812.166L1112.085,812.166z"/>
		</g>
	</g>
	<g>
		<g>
			<path style="fill:#FFFFFF;" d="M1101.362,814.464c7.661,0,7.674-11.906,0-11.906
				C1093.701,802.557,1093.688,814.464,1101.362,814.464L1101.362,814.464z"/>
		</g>
	</g>
	<g>
		<g>
			<path style="fill:#FFFFFF;" d="M1096.766,826.719c7.661,0,7.674-11.906,0-11.906
				C1089.105,814.813,1089.092,826.719,1096.766,826.719L1096.766,826.719z"/>
		</g>
	</g>
	<g>
		<g>
			<path style="fill:#FFFFFF;" d="M1100.596,837.443c7.661,0,7.674-11.906,0-11.906
				C1092.935,825.536,1092.922,837.443,1100.596,837.443L1100.596,837.443z"/>
		</g>
	</g>
	<g>
		<g>
			<path style="fill:#FFFFFF;" d="M1102.128,854.294c7.661,0,7.674-11.906,0-11.906
				C1094.467,842.387,1094.454,854.294,1102.128,854.294L1102.128,854.294z"/>
		</g>
	</g>
	<g>
		<g>
			<path style="fill:#FFFFFF;" d="M1110.553,867.315c7.661,0,7.674-11.906,0-11.906
				C1102.892,855.409,1102.879,867.315,1110.553,867.315L1110.553,867.315z"/>
		</g>
	</g>
	<g>
		<g>
			<path style="fill:#FFFFFF;" d="M1099.064,861.953c7.661,0,7.674-11.906,0-11.906
				C1091.403,850.047,1091.39,861.953,1099.064,861.953L1099.064,861.953z"/>
		</g>
	</g>
	<g>
		<g>
			<path style="fill:#FFFFFF;" d="M1087.574,855.06c7.661,0,7.674-11.906,0-11.906
				C1079.913,843.153,1079.901,855.06,1087.574,855.06L1087.574,855.06z"/>
		</g>
	</g>
	<g>
		<g>
			<path style="fill:#FFFFFF;" d="M1079.149,851.996c7.661,0,7.674-11.906,0-11.906
				C1071.488,840.089,1071.475,851.996,1079.149,851.996L1079.149,851.996z"/>
		</g>
	</g>
	<g>
		<g>
			<path style="fill:#FFFFFF;" d="M1064.596,845.868c7.661,0,7.674-11.906,0-11.906
				C1056.935,833.962,1056.922,845.868,1064.596,845.868L1064.596,845.868z"/>
		</g>
	</g>
	<g>
		<g>
			<path style="fill:#FFFFFF;" d="M1053.872,837.443c7.661,0,7.674-11.906,0-11.906
				C1046.211,825.536,1046.199,837.443,1053.872,837.443L1053.872,837.443z"/>
		</g>
	</g>
	<g>
		<g>
			<path style="fill:#FFFFFF;" d="M1051.574,827.485c7.661,0,7.674-11.906,0-11.906
				C1043.913,815.579,1043.901,827.485,1051.574,827.485L1051.574,827.485z"/>
		</g>
	</g>
	<g>
		<g>
			<path style="fill:#FFFFFF;" d="M1047.745,813.698c7.661,0,7.674-11.906,0-11.906
				C1040.084,801.792,1040.071,813.698,1047.745,813.698L1047.745,813.698z"/>
		</g>
	</g>
	<g>
		<g>
			<path style="fill:#FFFFFF;" d="M1042.383,799.145c7.661,0,7.674-11.906,0-11.906
				C1034.722,787.238,1034.709,799.145,1042.383,799.145L1042.383,799.145z"/>
		</g>
	</g>
	<g>
		<g>
			<path style="fill:#FFFFFF;" d="M1039.319,786.123c7.661,0,7.674-11.906,0-11.906
				C1031.658,774.217,1031.645,786.123,1039.319,786.123L1039.319,786.123z"/>
		</g>
	</g>
	<g>
		<g>
			<path style="fill:#FFFFFF;" d="M1033.957,773.102c7.661,0,7.674-11.906,0-11.906
				C1026.296,761.196,1026.284,773.102,1033.957,773.102L1033.957,773.102z"/>
		</g>
	</g>
	<g>
		<g>
			<path style="fill:#FFFFFF;" d="M1023.234,763.911c7.661,0,7.674-11.906,0-11.906
				C1015.573,752.004,1015.56,763.911,1023.234,763.911L1023.234,763.911z"/>
		</g>
	</g>
	<g>
		<g>
			<path style="fill:#FFFFFF;" d="M1010.979,766.974c7.661,0,7.674-11.906,0-11.906
				C1003.318,755.068,1003.305,766.974,1010.979,766.974L1010.979,766.974z"/>
		</g>
	</g>
	<g>
		<g>
			<path style="fill:#FFFFFF;" d="M1013.277,779.996c7.661,0,7.674-11.906,0-11.906
				C1005.615,768.089,1005.603,779.996,1013.277,779.996L1013.277,779.996z"/>
		</g>
	</g>
	<g>
		<g>
			<path style="fill:#FFFFFF;" d="M1017.106,793.783c7.661,0,7.674-11.906,0-11.906
				C1009.445,781.877,1009.433,793.783,1017.106,793.783L1017.106,793.783z"/>
		</g>
	</g>
	<g>
		<g>
			<path style="fill:#FFFFFF;" d="M1025.532,806.804c7.661,0,7.674-11.906,0-11.906
				C1017.871,794.898,1017.858,806.804,1025.532,806.804L1025.532,806.804z"/>
		</g>
	</g>
	<g>
		<g>
			<path style="fill:#FFFFFF;" d="M1031.66,821.357c7.661,0,7.674-11.906,0-11.906
				C1023.998,809.451,1023.986,821.357,1031.66,821.357L1031.66,821.357z"/>
		</g>
	</g>
	<g>
		<g>
			<path style="fill:#FFFFFF;" d="M1036.255,835.145c7.661,0,7.674-11.906,0-11.906
				C1028.594,823.238,1028.582,835.145,1036.255,835.145L1036.255,835.145z"/>
		</g>
	</g>
	<g>
		<g>
			<path style="fill:#FFFFFF;" d="M1043.915,849.698c7.661,0,7.674-11.906,0-11.906
				C1036.254,837.792,1036.241,849.698,1043.915,849.698L1043.915,849.698z"/>
		</g>
	</g>
	<g>
		<g>
			<path style="fill:#FFFFFF;" d="M1028.596,842.804c7.661,0,7.674-11.906,0-11.906
				C1020.935,830.898,1020.922,842.804,1028.596,842.804L1028.596,842.804z"/>
		</g>
	</g>
	<g>
		<g>
			<path style="fill:#FFFFFF;" d="M1020.17,842.038c7.661,0,7.674-11.906,0-11.906
				C1012.509,830.132,1012.496,842.038,1020.17,842.038L1020.17,842.038z"/>
		</g>
	</g>
	<g>
		<g>
			<path style="fill:#FFFFFF;" d="M1007.915,842.038c7.661,0,7.674-11.906,0-11.906
				C1000.254,830.132,1000.241,842.038,1007.915,842.038L1007.915,842.038z"/>
		</g>
	</g>
	<g>
		<g>
			<path style="fill:#FFFFFF;" d="M994.128,838.208c7.661,0,7.674-11.906,0-11.906C986.467,826.302,986.454,838.208,994.128,838.208
				L994.128,838.208z"/>
		</g>
	</g>
	<g>
		<g>
			<path style="fill:#FFFFFF;" d="M981.106,836.677c7.661,0,7.674-11.906,0-11.906C973.445,824.77,973.433,836.677,981.106,836.677
				L981.106,836.677z"/>
		</g>
	</g>
	<g>
		<g>
			<path style="fill:#FFFFFF;" d="M988,825.953c7.661,0,7.674-11.906,0-11.906C980.339,814.047,980.326,825.953,988,825.953
				L988,825.953z"/>
		</g>
	</g>
	<g>
		<g>
			<path style="fill:#FFFFFF;" d="M994.894,815.23c7.661,0,7.674-11.906,0-11.906C987.232,803.323,987.22,815.23,994.894,815.23
				L994.894,815.23z"/>
		</g>
	</g>
	<g>
		<g>
			<path style="fill:#FFFFFF;" d="M1003.319,806.804c7.661,0,7.674-11.906,0-11.906
				C995.658,794.898,995.645,806.804,1003.319,806.804L1003.319,806.804z"/>
		</g>
	</g>
	<g>
		<g>
			<path style="fill:#FFFFFF;" d="M1005.617,792.251c7.661,0,7.674-11.906,0-11.906
				C997.956,780.345,997.943,792.251,1005.617,792.251L1005.617,792.251z"/>
		</g>
	</g>
	<g>
		<g>
			<path style="fill:#FFFFFF;" d="M993.362,790.719c7.661,0,7.674-11.906,0-11.906C985.701,778.813,985.688,790.719,993.362,790.719
				L993.362,790.719z"/>
		</g>
	</g>
	<g>
		<g>
			<path style="fill:#FFFFFF;" d="M984.936,799.911c7.661,0,7.674-11.906,0-11.906C977.275,788.004,977.262,799.911,984.936,799.911
				L984.936,799.911z"/>
		</g>
	</g>
	<g>
		<g>
			<path style="fill:#FFFFFF;" d="M975.745,810.634c7.661,0,7.674-11.906,0-11.906C968.084,798.728,968.071,810.634,975.745,810.634
				L975.745,810.634z"/>
		</g>
	</g>
	<g>
		<g>
			<path style="fill:#FFFFFF;" d="M966.553,824.421c7.661,0,7.674-11.906,0-11.906C958.892,812.515,958.879,824.421,966.553,824.421
				L966.553,824.421z"/>
		</g>
	</g>
	<g>
		<g>
			<path style="fill:#FFFFFF;" d="M957.362,831.315c7.661,0,7.674-11.906,0-11.906C949.701,819.409,949.688,831.315,957.362,831.315
				L957.362,831.315z"/>
		</g>
	</g>
	<g>
		<g>
			<path style="fill:#FFFFFF;" d="M947.404,829.017c7.661,0,7.674-11.906,0-11.906C939.743,817.111,939.73,829.017,947.404,829.017
				L947.404,829.017z"/>
		</g>
	</g>
	<g>
		<g>
			<path style="fill:#FFFFFF;" d="M938.213,825.187c7.661,0,7.674-11.906,0-11.906C930.552,813.281,930.539,825.187,938.213,825.187
				L938.213,825.187z"/>
		</g>
	</g>
	<g>
		<g>
			<path style="fill:#FFFFFF;" d="M924.426,821.357c7.661,0,7.674-11.906,0-11.906C916.764,809.451,916.752,821.357,924.426,821.357
				L924.426,821.357z"/>
		</g>
	</g>
	<g>
		<g>
			<path style="fill:#FFFFFF;" d="M912.17,815.23c7.661,0,7.674-11.906,0-11.906C904.509,803.323,904.496,815.23,912.17,815.23
				L912.17,815.23z"/>
		</g>
	</g>
	<g>
		<g>
			<path style="fill:#FFFFFF;" d="M905.277,806.804c7.661,0,7.674-11.906,0-11.906C897.615,794.898,897.603,806.804,905.277,806.804
				L905.277,806.804z"/>
		</g>
	</g>
	<g>
		<g>
			<path style="fill:#FFFFFF;" d="M897.617,796.081c7.661,0,7.674-11.906,0-11.906C889.956,784.175,889.943,796.081,897.617,796.081
				L897.617,796.081z"/>
		</g>
	</g>
	<g>
		<g>
			<path style="fill:#FFFFFF;" d="M899.149,780.762c7.661,0,7.674-11.906,0-11.906C891.488,768.855,891.475,780.762,899.149,780.762
				L899.149,780.762z"/>
		</g>
	</g>
	<g>
		<g>
			<path style="fill:#FFFFFF;" d="M902.979,770.804c7.661,0,7.674-11.906,0-11.906C895.318,758.898,895.305,770.804,902.979,770.804
				L902.979,770.804z"/>
		</g>
	</g>
	<g>
		<g>
			<path style="fill:#FFFFFF;" d="M915.234,764.677c7.661,0,7.674-11.906,0-11.906C907.573,752.77,907.56,764.677,915.234,764.677
				L915.234,764.677z"/>
		</g>
	</g>
	<g>
		<g>
			<path style="fill:#FFFFFF;" d="M928.255,760.081c7.661,0,7.674-11.906,0-11.906C920.594,748.175,920.582,760.081,928.255,760.081
				L928.255,760.081z"/>
		</g>
	</g>
	<g>
		<g>
			<path style="fill:#FFFFFF;" d="M936.681,751.655c7.661,0,7.674-11.906,0-11.906C929.02,739.749,929.007,751.655,936.681,751.655
				L936.681,751.655z"/>
		</g>
	</g>
	<g>
		<g>
			<path style="fill:#FFFFFF;" d="M935.149,737.102c7.661,0,7.674-11.906,0-11.906C927.488,725.196,927.475,737.102,935.149,737.102
				L935.149,737.102z"/>
		</g>
	</g>
	<g>
		<g>
			<path style="fill:#FFFFFF;" d="M924.426,739.4c7.661,0,7.674-11.906,0-11.906C916.764,727.494,916.752,739.4,924.426,739.4
				L924.426,739.4z"/>
		</g>
	</g>
	<g>
		<g>
			<path style="fill:#FFFFFF;" d="M916.766,746.294c7.661,0,7.674-11.906,0-11.906C909.105,734.387,909.092,746.294,916.766,746.294
				L916.766,746.294z"/>
		</g>
	</g>
	<g>
		<g>
			<path style="fill:#FFFFFF;" d="M909.106,747.825c7.661,0,7.674-11.906,0-11.906C901.445,735.919,901.433,747.825,909.106,747.825
				L909.106,747.825z"/>
		</g>
	</g>
	<g>
		<g>
			<path style="fill:#FFFFFF;" d="M900.681,748.591c7.661,0,7.674-11.906,0-11.906C893.02,736.685,893.007,748.591,900.681,748.591
				L900.681,748.591z"/>
		</g>
	</g>
	<g>
		<g>
			<path style="fill:#FFFFFF;" d="M897.617,738.634c7.661,0,7.674-11.906,0-11.906C889.956,726.728,889.943,738.634,897.617,738.634
				L897.617,738.634z"/>
		</g>
	</g>
	<g>
		<g>
			<path style="fill:#FFFFFF;" d="M894.553,727.145c7.661,0,7.674-11.906,0-11.906C886.892,715.238,886.879,727.145,894.553,727.145
				L894.553,727.145z"/>
		</g>
	</g>
	<g>
		<g>
			<path style="fill:#FFFFFF;" d="M890.723,713.357c7.661,0,7.674-11.906,0-11.906C883.062,701.451,883.05,713.357,890.723,713.357
				L890.723,713.357z"/>
		</g>
	</g>
</g>
</svg>
