<?xml version="1.0" encoding="utf-8"?>
<!-- Generator: Adobe Illustrator 23.1.0, SVG Export Plug-In . SVG Version: 6.00 Build 0)  -->
<svg version="1.1" id="Layer_1" xmlns="http://www.w3.org/2000/svg" xmlns:xlink="http://www.w3.org/1999/xlink" x="0px" y="0px"
	 viewBox="0 0 1920 1080" style="enable-background:new 0 0 1920 1080;" xml:space="preserve">
<g>
	<g>
		<g>
			<g>
				<g>
					<path style="fill:#9CAD2A;" d="M1002.597,550.517c-7.457-2.043-14.69-4.674-21.601-8.156
						c-3.367-1.697-7.198-3.445-10.005-6.033c-2.605-2.401-4.205-5.667-6.829-8.059c-5.47-4.987-13.333-7.138-20.066-9.818
						c-8.301-3.304-16.611-6.584-24.928-9.846c-7.136-2.798-10.23,8.71-3.165,11.481c8.009,3.141,16.012,6.299,24.006,9.479
						c4.068,1.618,8.338,3.033,12.257,4.998c3.451,1.73,5.319,4.208,7.672,7.202c4.441,5.652,11.051,9.002,17.425,12.038
						c7.106,3.385,14.48,6.117,22.069,8.196C1006.832,564.026,1009.99,552.543,1002.597,550.517L1002.597,550.517z"/>
				</g>
			</g>
			<g>
				<g>
					<path style="fill:#9CAD2A;" d="M995.972,553.819c-13.475-3.726-26.951-7.453-40.426-11.179
						c-13.256-3.666-26.463-7.939-40.164-9.557c-7.594-0.897-7.53,11.017,0,11.906c13.178,1.556,26.129,6.126,38.879,9.652
						c12.849,3.553,25.697,7.106,38.546,10.659C1000.203,567.345,1003.359,555.861,995.972,553.819L995.972,553.819z"/>
				</g>
			</g>
			<g>
				<g>
					<path style="fill:#9CAD2A;" d="M993.459,556.827c-26.27,6.482-54.187-3.429-79.842,7.092
						c-6.993,2.868-3.931,14.391,3.165,11.481c25.356-10.399,53.628-0.624,79.842-7.092
						C1004.059,566.473,1000.91,554.989,993.459,556.827L993.459,556.827z"/>
				</g>
			</g>
			<g>
				<g>
					<path style="fill:#9CAD2A;" d="M1000.262,557.367c-12.245-0.919-24.632,4.882-36.061,8.578
						c-12.332,3.987-24.663,7.975-36.995,11.962c-7.261,2.348-4.155,13.848,3.165,11.481c11.699-3.783,23.399-7.566,35.098-11.349
						c10.847-3.507,23.215-9.635,34.793-8.766C1007.905,569.847,1007.868,557.938,1000.262,557.367L1000.262,557.367z"/>
				</g>
			</g>
			<g>
				<g>
					<path style="fill:#9CAD2A;" d="M998.727,558.355c-12.103,4.264-23.18,10.868-32.353,19.89
						c-7.862,7.732-13.968,20.315-25.192,23.536c-7.352,2.11-4.226,13.602,3.165,11.481c11.758-3.375,18.411-13.081,26.024-21.873
						c8.499-9.815,19.268-17.236,31.52-21.553C1009.071,567.307,1005.981,555.799,998.727,558.355L998.727,558.355z"/>
				</g>
			</g>
			<g>
				<g>
					<path style="fill:#9CAD2A;" d="M1121.342,610.232c-31.167-17.922-68.588-22.944-103.384-13.91
						c-7.411,1.924-4.269,13.411,3.165,11.481c31.743-8.241,65.782-3.637,94.21,12.71
						C1121.986,624.339,1127.99,614.055,1121.342,610.232L1121.342,610.232z"/>
				</g>
			</g>
			<g>
				<g>
					<path style="fill:#9CAD2A;" d="M1117.477,612.769c-16.534-2.81-33.171-6.445-49.914-7.746
						c-14.424-1.12-29.482,0.476-41.585,9.027c-6.209,4.387-0.267,14.716,6.009,10.281c10.99-7.765,24.167-8.447,37.177-7.266
						c15.134,1.374,30.178,4.64,45.147,7.185C1121.807,625.524,1125.027,614.053,1117.477,612.769L1117.477,612.769z"/>
				</g>
			</g>
			<g>
				<g>
					<path style="fill:#9CAD2A;" d="M1061.116,610.795c-10.564,7.915-20.761,16.272-30.532,25.149
						c-5.683,5.164,2.756,13.564,8.419,8.419c9.016-8.192,18.373-15.983,28.122-23.288
						C1073.185,616.536,1067.256,606.194,1061.116,610.795L1061.116,610.795z"/>
				</g>
			</g>
			<g>
				<g>
					<path style="fill:#9CAD2A;" d="M1115.599,618.572c-13.664-8.64-30.354,3.262-41.392,11.196
						c-13.039,9.372-24.3,20.568-33.979,33.363c-4.623,6.111,5.711,12.05,10.281,6.009c7.7-10.179,16.871-19.403,27.036-27.125
						c4.835-3.673,9.94-7.032,15.213-10.042c4.859-2.774,11.459-6.517,16.831-3.12
						C1116.085,632.96,1122.066,622.661,1115.599,618.572L1115.599,618.572z"/>
				</g>
			</g>
			<g>
				<g>
					<path style="fill:#9CAD2A;" d="M1104.302,619.523c-7.13,8.858-14.175,17.795-21.418,26.561
						c-6.499,7.865-13.402,15.396-22.222,20.683c-6.565,3.935-0.585,14.234,6.009,10.281c19.21-11.515,32.272-31.99,46.05-49.106
						C1117.482,622.027,1109.109,613.551,1104.302,619.523L1104.302,619.523z"/>
				</g>
			</g>
			<g>
				<g>
					<path style="fill:#9CAD2A;" d="M1011.833,452.231c-9.032-2.088-12.22-17.241-14.94-24.599
						c-4.259-11.519-8.11-23.503-8.86-35.838c-1.405-23.098,7.155-47.591-6.449-68.605c-4.149-6.41-14.461-0.448-10.281,6.009
						c6.776,10.468,6.914,22.877,6.079,34.927c-0.941,13.582-2.151,26.647,0.311,40.162c2.318,12.722,6.978,24.883,11.699,36.87
						c3.726,9.459,8.356,20.031,19.275,22.555C1016.124,465.435,1019.307,453.959,1011.833,452.231L1011.833,452.231z"/>
				</g>
			</g>
			<g>
				<g>
					<path style="fill:#9CAD2A;" d="M978.398,404.169c-0.03,0.203-0.061,0.405-0.091,0.608c1.386-1.386,2.772-2.772,4.158-4.158
						c5.359-1.079,4.342,2.748,4.491-1.503c0.049-1.4,0.219-2.777,0.417-4.162c0.39-2.725,0.927-5.43,1.216-8.171
						c0.62-5.888-0.381-11.258-3.01-16.561c-5.743-11.589-13.573-22.477-20.333-33.501c-3.999-6.522-14.301-0.547-10.281,6.009
						c4.104,6.693,8.207,13.386,12.311,20.079c3.623,5.909,9.438,12.674,9.631,19.88c0.206,7.665-7.453,32.667,8.723,29.41
						c1.813-0.365,3.876-2.28,4.158-4.158c0.03-0.203,0.061-0.405,0.091-0.608C991.002,399.839,979.532,396.605,978.398,404.169
						L978.398,404.169z"/>
				</g>
			</g>
			<g>
				<g>
					<path style="fill:#9CAD2A;" d="M988.293,411.02c-9.632-7.456-12.949-20.063-20.198-29.499
						c-8.121-10.571-19.029-18.422-28.106-28.094c-5.254-5.599-13.661,2.832-8.419,8.419c9.08,9.676,20.498,17.441,28.221,28.339
						c6.893,9.726,10.338,21.711,20.083,29.254C985.86,424.073,994.346,415.706,988.293,411.02L988.293,411.02z"/>
				</g>
			</g>
			<g>
				<g>
					<path style="fill:#9CAD2A;" d="M985.832,420.049c-5.649-1.996-9.384-8.192-13.227-12.461
						c-4.361-4.844-9.029-9.409-13.962-13.668c-9.837-8.493-20.63-15.784-32.177-21.742c-6.799-3.508-12.828,6.762-6.009,10.281
						c12.174,6.281,23.487,13.989,33.574,23.274c4.986,4.59,9.556,9.539,13.975,14.67c4.213,4.893,8.468,8.939,14.662,11.128
						C989.905,434.087,993.019,422.588,985.832,420.049L985.832,420.049z"/>
				</g>
			</g>
			<g>
				<g>
					<path style="fill:#9CAD2A;" d="M991.288,404.775c5.33-14.487,10.639-29.004,16.895-43.124
						c2.976-6.716,5.805-13.083,5.852-20.574c0.045-7.132-1.912-14.173-3.877-20.962c-2.125-7.346-13.618-4.222-11.481,3.165
						c1.827,6.314,3.89,12.908,3.399,19.564c-0.514,6.955-4.538,13.508-7.211,19.827c-5.424,12.821-10.253,25.877-15.058,38.939
						C977.157,408.812,988.66,411.918,991.288,404.775L991.288,404.775z"/>
				</g>
			</g>
			<g>
				<g>
					<path style="fill:#9CAD2A;" d="M1117.491,467.888c20.159-12.847,24.157-36.685,26.797-58.638
						c1.568-13.033,3.125-26.067,4.683-39.101c1.442-12.065,2.382-23.704-2.687-35.083c-3.112-6.986-13.375-0.936-10.281,6.009
						c4.145,9.305,2.11,20.322,0.945,30.051c-1.366,11.404-2.732,22.809-4.098,34.213c-2.205,18.414-4.1,41.263-21.369,52.268
						C1105.038,461.714,1111.003,472.022,1117.491,467.888L1117.491,467.888z"/>
				</g>
			</g>
			<g>
				<g>
					<path style="fill:#9CAD2A;" d="M1113.977,447.647c-11.166-11.737-22.509-23.332-33.466-35.266
						c-9.571-10.424-18.462-21.699-22.058-35.639c-1.913-7.414-13.4-4.271-11.481,3.165c3.821,14.811,12.81,27.171,22.87,38.413
						c11.542,12.898,23.787,25.208,35.716,37.747C1110.85,461.628,1119.26,453.2,1113.977,447.647L1113.977,447.647z"/>
				</g>
			</g>
			<g>
				<g>
					<path style="fill:#9CAD2A;" d="M1118.088,453.513c5.392-35.236,13.834-71.707,10.556-107.508
						c-0.693-7.567-12.606-7.64-11.906,0c3.187,34.802-4.889,70.092-10.13,104.342
						C1105.459,457.844,1116.93,461.075,1118.088,453.513L1118.088,453.513z"/>
				</g>
			</g>
			<g>
				<g>
					<path style="fill:#9CAD2A;" d="M1117.24,435.17c-9.251-11.812-18.805-24.177-22.556-38.98
						c-3.432-13.546-3.755-27.474-13.342-38.549c-5.024-5.803-13.414,2.649-8.419,8.419c9.129,10.546,7.603,26.975,12.204,39.548
						c5.208,14.231,14.446,26.174,23.694,37.981C1113.542,449.616,1121.914,441.138,1117.24,435.17L1117.24,435.17z"/>
				</g>
			</g>
			<g>
				<g>
					<path style="fill:#9CAD2A;" d="M1119.273,426.042c-7.937-11.688-10.1-27.46-12.449-41.112
						c-2.641-15.352-3.883-30.893-4.004-46.464c-0.059-7.658-11.966-7.676-11.906,0c0.129,16.639,1.608,33.229,4.429,49.629
						c2.531,14.713,5.096,31.362,13.649,43.956C1113.272,438.354,1123.593,432.404,1119.273,426.042L1119.273,426.042z"/>
				</g>
			</g>
			<g>
				<g>
					<path style="fill:#9CAD2A;" d="M918.199,409.165c26.546,5.222,50.828,17.998,70.006,37.102
						c5.435,5.414,13.857-3.002,8.419-8.419c-20.532-20.452-46.81-34.568-75.26-40.164
						C913.88,396.211,910.676,407.685,918.199,409.165L918.199,409.165z"/>
				</g>
			</g>
			<g>
				<g>
					<path style="fill:#9CAD2A;" d="M1016.313,450.603c-13.186-12.255-1.008-33.239,3.523-46.665
						c3.044-9.019,5.563-18.202,7.983-27.405c2.358-8.964,5.243-18.104,4.469-27.478c-0.625-7.582-12.537-7.649-11.906,0
						c0.831,10.076-2.917,20.211-5.512,29.833c-2.792,10.354-5.871,20.611-9.665,30.646c-6.04,15.973-11.779,36.041,2.689,49.487
						C1013.501,464.234,1021.94,455.833,1016.313,450.603L1016.313,450.603z"/>
				</g>
			</g>
			<g>
				<g>
					<path style="fill:#9CAD2A;" d="M1006.835,557.849c-6.579-6.379-9.611-15.131-13.608-23.174
						c-4.677-9.412-10.851-17.939-17.429-26.102c-5.984-7.426-12.236-16.488-20.171-21.941c-8.905-6.121-19.588-4.257-29.375-1.681
						c-7.403,1.949-4.264,13.436,3.165,11.481c4.452-1.172,9.247-2.62,13.906-2.049c4.809,0.589,7.862,3.763,10.942,7.191
						c6.124,6.817,12.164,13.833,17.595,21.218c5.276,7.175,9.663,14.743,13.423,22.807c3.499,7.506,7.11,14.828,13.133,20.668
						C1003.92,571.605,1012.348,563.195,1006.835,557.849L1006.835,557.849z"/>
				</g>
			</g>
			<g>
				<g>
					<path style="fill:#9CAD2A;" d="M983.803,555.589c-3.18,14.21,1.467,28.62-1.702,42.858
						c-2.829,12.713-9.454,23.948-19.056,32.712c-5.671,5.177,2.767,13.578,8.419,8.419c10.238-9.346,17.72-21.534,21.365-34.922
						c1.795-6.592,2.661-13.519,2.508-20.348c-0.191-8.52-1.942-17.117-0.053-25.554
						C996.954,551.29,985.478,548.103,983.803,555.589L983.803,555.589z"/>
				</g>
			</g>
			<g>
				<g>
					<path style="fill:#9CAD2A;" d="M1133.481,606.001c-17.006,7.016-27.269,22.059-34.631,38.315
						c-7.612,16.808-13.066,35.548-27.761,47.771c-5.897,4.905,2.566,13.288,8.419,8.419c13.859-11.528,20.427-28.499,27.226-44.655
						c6.158-14.634,14.271-31.916,29.913-38.369C1143.63,614.6,1140.57,603.076,1133.481,606.001L1133.481,606.001z"/>
				</g>
			</g>
			<g>
				<g>
					<path style="fill:#9CAD2A;" d="M1233.698,563.832c-21.104-20.766-42.208-41.531-63.312-62.297
						c-5.467-5.379-13.892,3.034-8.419,8.419c21.104,20.766,42.208,41.531,63.312,62.297
						C1230.746,577.63,1239.171,569.217,1233.698,563.832L1233.698,563.832z"/>
				</g>
			</g>
			<g>
				<g>
					<path style="fill:#9CAD2A;" d="M1234.309,557.307c-13.797-15.916-19.123-36.736-23.768-56.788
						c-4.778-20.626-9.101-41.59-19.543-60.257c-3.741-6.688-14.029-0.692-10.281,6.009c21.087,37.697,15.846,85.625,45.173,119.455
						C1230.917,571.526,1239.308,563.074,1234.309,557.307L1234.309,557.307z"/>
				</g>
			</g>
			<g>
				<g>
					<path style="fill:#9CAD2A;" d="M1210.369,515.927c-9.721-16.84-19.441-33.681-29.162-50.521
						c-3.829-6.634-14.122-0.645-10.281,6.009c9.721,16.84,19.441,33.681,29.162,50.521
						C1203.917,528.57,1214.21,522.581,1210.369,515.927L1210.369,515.927z"/>
				</g>
			</g>
			<g>
				<g>
					<path style="fill:#9CAD2A;" d="M1226.071,551.313c-1.073-33.821-0.616-68.203-6.886-101.574
						c-1.413-7.521-12.89-4.336-11.481,3.165c6.064,32.275,5.422,65.694,6.461,98.409
						C1214.408,558.956,1226.315,558.99,1226.071,551.313L1226.071,551.313z"/>
				</g>
			</g>
			<g>
				<g>
					<path style="fill:#9CAD2A;" d="M1225.533,544.881c15.247-25.672,30.172-53.241,26.024-84.087
						c-0.432-3.211-4.518-4.897-7.323-4.158c-3.451,0.91-4.584,4.152-4.158,7.323c3.64,27.072-11.57,52.596-24.824,74.912
						C1211.331,545.475,1221.619,551.471,1225.533,544.881L1225.533,544.881z"/>
				</g>
			</g>
			<g>
				<g>
					<path style="fill:#9CAD2A;" d="M1231.66,566.865c19.995-26.232,40.502-56.051,33.496-90.806
						c-1.513-7.505-12.992-4.329-11.481,3.165c6.249,30.997-14.668,58.506-32.295,81.631
						C1216.735,566.948,1227.071,572.885,1231.66,566.865L1231.66,566.865z"/>
				</g>
			</g>
			<g>
				<g>
					<path style="fill:#9CAD2A;" d="M1311.064,668.814c-26.568-26.345-71.461-23.578-104.691-14.302
						c-7.37,2.057-4.239,13.548,3.165,11.481c28.887-8.063,69.756-11.915,93.106,11.24
						C1308.091,682.635,1316.515,674.22,1311.064,668.814L1311.064,668.814z"/>
				</g>
			</g>
			<g>
				<g>
					<path style="fill:#9CAD2A;" d="M1298.632,663.764c-25.731,1.69-52.406,2.732-75.526,15.441
						c-6.716,3.692-0.716,13.978,6.009,10.281c21.167-11.635,45.984-12.27,69.517-13.815
						C1306.239,675.17,1306.295,663.26,1298.632,663.764L1298.632,663.764z"/>
				</g>
			</g>
			<g>
				<g>
					<path style="fill:#9CAD2A;" d="M1295.256,666.196c-14.295,0.005-27.245,10.827-38.212,18.895
						c-5.795,4.263-11.458,8.717-16.939,13.377c-4.795,4.077-10.183,10.646-16.913,10.997c-7.623,0.397-7.67,12.306,0,11.906
						c13.764-0.717,23.667-13.458,33.805-21.411c5.818-4.564,11.856-8.859,18.031-12.926c6.102-4.019,12.628-8.929,20.227-8.932
						C1302.917,678.1,1302.93,666.194,1295.256,666.196L1295.256,666.196z"/>
				</g>
			</g>
			<g>
				<g>
					<path style="fill:#9CAD2A;" d="M1294.504,674.602c-13.203,15.979-26.406,31.958-39.609,47.938
						c-4.845,5.864,3.532,14.333,8.419,8.419c13.203-15.979,26.406-31.958,39.609-47.938
						C1307.768,677.157,1299.391,668.688,1294.504,674.602L1294.504,674.602z"/>
				</g>
			</g>
			<g>
				<g>
					<path style="fill:#9CAD2A;" d="M1005.935,458.02c10.045,23.645,27.151,41.432,47.734,56.309
						c21.201,15.323,42.942,29.994,65.023,44.017c43.369,27.543,88.912,52.081,137.43,69.29
						c25.353,8.992,53.207,14.985,74.498,32.388c5.885,4.81,14.357-3.565,8.419-8.419c-18.539-15.154-41.073-22.648-63.521-29.976
						c-24.309-7.935-47.978-17.363-70.994-28.518c-46.185-22.385-89.449-50.283-131.472-79.621
						c-11.93-8.329-24.101-16.523-34.257-27.034c-9.651-9.988-17.154-21.676-22.578-34.444
						C1013.229,444.981,1002.97,451.041,1005.935,458.02L1005.935,458.02z"/>
				</g>
			</g>
			<g>
				<g>
					<path style="fill:#9CAD2A;" d="M1000.836,567.984c14.089-2.958,27.731-7.557,40.744-13.718
						c12.501-5.918,24.252-13.384,37.749-16.915c7.407-1.937,4.266-13.425-3.165-11.481c-13.324,3.485-25.154,10.491-37.394,16.562
						c-13.05,6.472-26.852,11.079-41.099,14.07C990.177,558.076,993.348,569.556,1000.836,567.984L1000.836,567.984z"/>
				</g>
			</g>
			<g>
				<g>
					<path style="fill:#9CAD2A;" d="M1110.296,456.735c-5.81,5.882-6.161,13.872-5.369,21.67c0.955,9.402,2.612,18.739,5.052,27.87
						c4.814,18.012,12.564,35.223,22.737,50.837c4.167,6.396,14.48,0.436,10.281-6.009c-8.701-13.354-15.538-27.735-20.124-43.01
						c-2.233-7.438-3.97-15.033-5.151-22.71c-0.863-5.612-3.532-15.648,0.992-20.228
						C1124.104,459.697,1115.69,451.273,1110.296,456.735L1110.296,456.735z"/>
				</g>
			</g>
			<g>
				<g>
					<path style="fill:#9CAD2A;" d="M1131.265,616.26c10.38-1.948,14.977-13.155,24.969-16.274
						c10.123-3.16,21.307-1.568,31.563,0.069c7.496,1.196,10.723-10.275,3.165-11.481c-11.563-1.845-23.489-3.438-35.069-0.82
						c-5.24,1.184-10.247,3.44-14.51,6.707c-4.282,3.282-7.751,9.28-13.284,10.318
						C1120.578,606.19,1123.764,617.667,1131.265,616.26L1131.265,616.26z"/>
				</g>
			</g>
			<g>
				<g>
					<path style="fill:#9CAD2A;" d="M1222.183,569.164c4.168,3.921,5.538,9.35,7.411,14.577c2,5.58,4.486,10.994,7.588,16.05
						c6.258,10.2,14.623,18.743,24.411,25.577c6.296,4.396,12.254-5.921,6.009-10.281c-9.388-6.554-17.051-15.253-22.457-25.341
						c-5.108-9.532-6.387-21.327-14.544-29.001C1225.024,555.498,1216.588,563.901,1222.183,569.164L1222.183,569.164z"/>
				</g>
			</g>
			<g>
				<g>
					<path style="fill:#9CAD2A;" d="M1309.451,676.797c8.307-11.482,22.451-16.823,36.303-15.123c7.587,0.931,7.52-10.984,0-11.906
						c-18.223-2.236-35.949,6.321-46.584,21.02C1294.673,677.005,1304.997,682.954,1309.451,676.797L1309.451,676.797z"/>
				</g>
			</g>
		</g>
		<g>
			<g>
				<g>
					<path style="fill:#FBB03B;" d="M897.958,499.067c5.568-0.476,10.788-1.695,16.007-3.691c6.581-2.517,11.335-1.746,17.765,0.775
						c-0.239-1.828-0.478-3.656-0.717-5.483c-6.021,2.577-16.82,7.738-23.195,4.276c-0.505,1.863-1.009,3.727-1.514,5.59
						c7.291,0.867,14.226-0.707,20.512-4.477c1.997-1.198,1.972-5.099-0.717-5.483c-8.705-1.245-17.347,4.1-25.791,1.768
						c0.239,1.828,0.478,3.656,0.717,5.483c4.605-2.503,9.442-4.448,14.365-6.231c5.181-1.878,10.302-3.288,14.558,1.232
						c0.202-1.571,0.405-3.141,0.607-4.712c-4.707,2.526-10.174,2.135-15.205,3.602c-5.35,1.561-10.087,4.722-15.84,4.434
						c-3.859-0.193-3.849,5.807,0,6c6.393,0.32,11.495-2.916,17.435-4.649c5.607-1.635,11.369-1.38,16.638-4.207
						c1.753-0.941,1.885-3.355,0.607-4.712c-9.728-10.331-26.084-1.434-36.193,4.061c-2.294,1.247-1.718,4.811,0.717,5.483
						c8.898,2.458,17-3.025,25.791-1.768c-0.239-1.828-0.478-3.656-0.717-5.483c-5.446,3.266-11.197,4.406-17.483,3.658
						c-3.025-0.36-3.985,4.249-1.514,5.59c8.891,4.828,20.829-0.672,29.251-4.276c2.654-1.136,1.367-4.666-0.717-5.483
						c-5.24-2.054-10.594-3.777-16.24-2.426c-6.6,1.58-12.196,4.535-19.128,5.128C894.139,493.394,894.104,499.397,897.958,499.067
						L897.958,499.067z"/>
				</g>
			</g>
			<g>
				<g>
					<path style="fill:#FBB03B;" d="M903.066,513.751c4.613,0.366,7.899,5.252,11.538,7.674c4.043,2.691,8.716,3.781,13.529,3.698
						c1.472-0.025,3.203-1.362,3-3c-0.634-5.117-6.362-7.589-10.415-9.955c-5.772-3.371-11.924-6.005-18.27-8.081
						c-3.18-1.041-5.421,4.037-2.312,5.483c4.581,2.131,9.296,3.81,14.285,4.696c2.914,0.518,4.524,0.913,6.95,2.799
						c2.011,1.564,4.03,2.998,6.255,4.253c1.965,1.109,4.526-0.286,4.514-2.59c-0.026-4.907-3.487-7.678-7.987-8.801
						c-6.625-1.653-13.109-3.277-19.607-5.434c-2.962-0.983-4.876,2.941-2.919,5.014c3.996,4.234,8.402,7.911,13.241,11.143
						c3.22,2.151,6.227-3.044,3.028-5.181c-4.42-2.952-8.381-6.344-12.026-10.205c-0.973,1.671-1.946,3.343-2.919,5.014
						c3.75,1.245,7.501,2.493,11.315,3.531c2.256,0.614,11.856,1.527,11.873,4.918c1.505-0.863,3.009-1.727,4.514-2.59
						c-3.881-2.189-7.025-6.242-11.462-7.169c-5.61-1.172-10.76-2.13-16.028-4.58c-0.771,1.828-1.541,3.656-2.312,5.483
						c4.477,1.465,8.816,3.207,13.003,5.374c1.813,0.938,3.593,1.935,5.335,2.998c0.822,0.501,5.837,3.036,5.941,3.878c1-1,2-2,3-3
						c-6.618,0.113-10.534-2.903-15.342-6.926c-2.965-2.481-5.814-4.137-9.724-4.447
						C899.217,507.446,899.237,513.447,903.066,513.751L903.066,513.751z"/>
				</g>
			</g>
			<g>
				<g>
					<path style="fill:#FBB03B;" d="M896.376,538.718c4.962-0.159,9.925-0.361,14.888-0.473c5.059-0.115,9.98-0.008,13.42,4.204
						c0.202-1.571,0.405-3.141,0.607-4.712c-5.128,3.877-9.512,2.105-14.791-0.409c-4.092-1.949-8.409-2.407-12.647-3.866
						c-0.266,1.964-0.532,3.929-0.798,5.893c6.689-0.278,12.569,3.785,19.319,3.601c3.853-0.105,3.869-6.105,0-6
						c-6.692,0.182-12.55-3.883-19.319-3.601c-3.436,0.143-4.002,4.79-0.798,5.893c3.465,1.193,7.144,1.446,10.521,2.923
						c2.351,1.028,4.54,2.387,6.989,3.199c5.073,1.681,10.297,0.766,14.552-2.452c1.647-1.245,1.935-3.086,0.607-4.712
						c-7.411-9.077-22.371-5.814-32.551-5.488C892.524,532.842,892.507,538.842,896.376,538.718L896.376,538.718z"/>
				</g>
			</g>
			<g>
				<g>
					<path style="fill:#FBB03B;" d="M899.728,575.9c2.199-4.481,6.298-6.15,10.962-7.077c2.12-0.422,12.506-0.47,13.175-1.521
						c0.248-0.39-4.055,1.621-4.678,1.893c-2.11,0.92-4.294,1.656-6.513,2.261c-4.453,1.213-8.942,1.69-13.546,1.665
						c0.707,1.707,1.414,3.414,2.121,5.121c4.58-5.566,11.466-7.136,18.212-8.574c-0.771-1.828-1.541-3.656-2.312-5.483
						c-1.904,0.858-3.49,1.926-5.113,3.216c-2.298,1.827,0.191,6.107,2.919,5.014c1.733-0.694,3.072-1.476,4.529-2.633
						c3.021-2.402-1.249-6.623-4.243-4.243c-0.627,0.363-1.254,0.727-1.881,1.09c0.973,1.671,1.946,3.343,2.919,5.014
						c1.241-0.987,2.472-1.635,3.899-2.278c3.241-1.461,0.841-6.155-2.312-5.483c-7.725,1.646-15.642,3.775-20.86,10.117
						c-1.593,1.936-0.653,5.106,2.121,5.121c5.089,0.028,38.454-4.596,30.52-15.197c-3.418-4.567-14.133-1.917-18.797-1.179
						c-6.743,1.068-13.15,3.701-16.304,10.127C892.852,576.325,898.025,579.37,899.728,575.9L899.728,575.9z"/>
				</g>
			</g>
			<g>
				<g>
					<path style="fill:#FBB03B;" d="M915.765,593.097c3.256-2.947,6.729-5.54,10.544-7.721c2.305-1.318,8.363-5.46,10.943-4.539
						c-0.698-0.698-1.397-1.397-2.095-2.095c0.124,0.415-8.536,5.456-9.676,6.084c-3.802,2.096-7.767,3.76-11.886,5.123
						c-3.648,1.208-2.085,7.004,1.595,5.786c6.394-2.117,12.539-4.925,18.163-8.652c2.974-1.971,9.959-5.723,7.439-10.294
						c-2.495-4.526-9.131-0.699-12.43,0.805c-6.208,2.829-11.79,6.693-16.838,11.261
						C908.653,591.451,912.906,595.684,915.765,593.097L915.765,593.097z"/>
				</g>
			</g>
			<g>
				<g>
					<path style="fill:#FBB03B;" d="M921.442,615.037c4.199-2.053,8.471-3.918,12.87-5.501c2.318-0.834,4.661-1.602,7.024-2.3
						c1.678-0.496,5.651-0.555,4.953-2.481c-0.609-1.68-3.154,0.612-4.9,1.065c-1.918,0.498-3.924,0.555-5.876,0.867
						c-4.216,0.674-7.499,2.768-11.518,3.934c-3.788,1.1-2.141,6.384,1.595,5.786c5.87-0.94,11.74-1.88,17.61-2.82
						c3.802-0.609,2.189-6.392-1.595-5.786c-5.87,0.94-11.74,1.88-17.61,2.82c0.532,1.929,1.063,3.857,1.595,5.786
						c3.349-0.972,6.282-2.899,9.704-3.631c3.205-0.685,6.487-0.649,9.608-1.735c3.323-1.157,8.542-4.428,7.319-8.756
						c-1.503-5.318-9.28-1.779-12.48-0.833c-7.347,2.171-14.449,5.043-21.327,8.406
						C914.945,611.552,917.983,616.728,921.442,615.037L921.442,615.037z"/>
				</g>
			</g>
			<g>
				<g>
					<path style="fill:#FBB03B;" d="M949.501,644.933c-0.161,0.569-0.322,1.139-0.483,1.708c-0.941,3.33,3.688,5.157,5.483,2.312
						c2.373-3.76,4.797-9.795,8.73-12.144c4.157-2.482,9.785-3.588,14.406-4.915c-1.129-1.469-2.259-2.938-3.388-4.407
						c-5.283,7.151-11.927,12.816-19.712,17.087c1.212,1.571,2.424,3.141,3.635,4.712c1.115-1.261,2.445-2.25,3.392-3.668
						c0.682-1.02,1.994-5.678,3.83-5.262c3.76,0.851,5.365-4.932,1.595-5.786c-7.127-1.613-9.302,6.221-13.061,10.473
						c-2.223,2.515,0.559,6.399,3.635,4.712c8.713-4.78,15.966-11.256,21.864-19.239c1.604-2.171-1.042-5.08-3.388-4.407
						c-5.526,1.586-12.393,2.926-17.125,6.359c-4.284,3.108-6.854,9.11-9.597,13.457c1.828,0.771,3.656,1.541,5.483,2.312
						c0.161-0.569,0.322-1.139,0.483-1.708C956.338,642.806,950.551,641.217,949.501,644.933L949.501,644.933z"/>
				</g>
			</g>
			<g>
				<g>
					<path style="fill:#FBB03B;" d="M1008.71,611.092c1.177-0.673,1.837-1.425,2.731-2.417c1.992-2.21,3.169-2.537,6.084-3.328
						c5.291-1.437,10.297-3.03,15.841-2.289c-0.266-1.964-0.532-3.929-0.798-5.893c-3.649,1.449-7.298,2.898-10.947,4.346
						c-1.961,0.779-3.909,1.625-5.895,2.34c-0.46,0.172-0.921,0.344-1.381,0.516c-1.28-0.1-1.811,0.445-1.592,1.635
						c0.767-0.185,3.212-2.403,4.117-2.904c1.476-0.816,3.036-1.45,4.652-1.926c3.727-1.099,7.556-1.176,11.354-0.397
						c3.769,0.773,5.381-5.01,1.595-5.786c-5.591-1.146-11.237-0.917-16.611,1.103c-3.782,1.421-10.445,4.581-11.8,8.86
						c-1.385,4.376,3.622,6.165,7.018,5.831c3.221-0.317,6.327-1.974,9.295-3.153c3.93-1.56,7.859-3.121,11.789-4.681
						c3.249-1.29,2.588-5.44-0.797-5.893c-6.063-0.811-11.639,0.929-17.436,2.503c-2.015,0.547-4.269,0.839-6.064,1.965
						c-1.751,1.098-2.476,3.408-4.184,4.385C1002.33,607.828,1005.349,613.014,1008.71,611.092L1008.71,611.092z"/>
				</g>
			</g>
			<g>
				<g>
					<path style="fill:#FBB03B;" d="M1016.676,629.426c2.539-3.645,5.171-7.496,8.852-10.097c4.317-3.05,9.809-3.182,14.878-3.828
						c-0.964-0.734-1.928-1.468-2.893-2.202c0.687,2.465-8.135,6.671-9.975,7.79c-3.732,2.269-7.855,5.506-12.07,6.671
						c0.973,0.257,1.946,0.514,2.919,0.772c0.672,0.543,3.756-3.32,4.224-3.739c1.926-1.724,3.802-2.72,6.347-3.189
						c3.792-0.698,2.186-6.482-1.595-5.786c-5.584,1.028-10.38,5.19-13.566,9.774c-2.088,3.005-1.797,8.013,2.867,8.007
						c2.977-0.004,6.656-3.05,9.04-4.437c3.26-1.896,6.484-3.856,9.666-5.881c4.199-2.672,9.534-5.816,7.928-11.577
						c-0.317-1.136-1.608-2.366-2.893-2.203c-6.159,0.785-12.604,1.063-17.906,4.648c-4.602,3.111-7.876,7.758-11.005,12.249
						C1009.283,629.573,1014.482,632.576,1016.676,629.426L1016.676,629.426z"/>
				</g>
			</g>
			<g>
				<g>
					<path style="fill:#FBB03B;" d="M1026.053,650.134c3.182-2.151,6.48-4.456,8.415-7.874c0.888-1.569,1.219-3.349,2.221-4.84
						c0.434-0.646,5.884-5.886,5.865-5.905c-0.293-0.707-0.586-1.414-0.879-2.121c0.317,4.083-6.733,7.092-9.74,8.487
						c-3.22,1.494-6.171,3.247-7.654,6.615c-1.536,3.489,2.981,6.293,5.181,3.028c2.939-4.362,7.142-7.067,12.243-8.214
						c-1.23-0.698-2.46-1.397-3.69-2.095c0.836,5.09-10.37,9.074-13.852,10.967c1.368,1.368,2.736,2.736,4.104,4.105
						c2.289-3.751,4.748-7.372,7.392-10.881c2.323-3.085-2.884-6.078-5.181-3.028c-2.644,3.51-5.103,7.13-7.392,10.881
						c-1.61,2.638,1.54,5.499,4.105,4.105c7.153-3.889,18.259-7.707,16.609-17.743c-0.271-1.652-2.247-2.42-3.69-2.095
						c-6.634,1.492-12.046,5.358-15.828,10.972c1.727,1.009,3.454,2.019,5.181,3.028c1.234-2.803,3.967-3.738,6.57-4.943
						c2.574-1.191,4.926-2.576,7.006-4.528c2.701-2.535,7.458-8.458,2.903-11.586c-4.149-2.85-9.194,2.171-11.897,4.888
						c-2.022,2.033-3.041,3.863-4.161,6.462c-1.417,3.287-3.939,5.161-6.86,7.135
						C1019.843,647.104,1022.842,652.304,1026.053,650.134L1026.053,650.134z"/>
				</g>
			</g>
			<g>
				<g>
					<path style="fill:#FBB03B;" d="M1043.567,676.422c-0.265-7.327-0.671-17.886,7.591-21.202c-1.23-0.698-2.46-1.397-3.69-2.095
						c0.875,2.229-4.081,8.142-5.151,10.046c-1.747,3.107-3.109,6.27-3.675,9.806c-0.358,2.237,1.298,4.273,3.69,3.69
						c3.054-0.744,3.804-2.756,4.536-5.537c1.207-4.58,3.779-8.545,6.061-12.681c-1.571,0.202-3.141,0.405-4.712,0.607
						c4.426,4.884-6.921,12.581-9.437,16.321c-2.161,3.212,3.034,6.219,5.181,3.028c3.105-4.615,8.59-7.368,10.576-12.788
						c1.439-3.928,0.699-7.741-2.077-10.804c-1.284-1.417-3.811-1.026-4.712,0.607c-1.492,2.704-3.007,5.397-4.477,8.114
						c-0.337,0.623-2.844,7.422-2.535,7.347c1.23,1.23,2.46,2.46,3.69,3.69c0.784-4.899,3.358-8.797,5.816-12.993
						c1.717-2.93,4.373-6.58,3.01-10.049c-0.54-1.374-2.06-2.75-3.69-2.095c-11.218,4.502-12.383,16.32-11.996,26.988
						C1037.707,680.272,1043.707,680.291,1043.567,676.422L1043.567,676.422z"/>
				</g>
			</g>
			<g>
				<g>
					<path style="fill:#FBB03B;" d="M1055.191,682.47c3.535-1.947,6.817-4.284,9.739-7.076c2.721-2.599,5.034-5.787,8.955-6.448
						c2.81-0.473,2.576-4.146,0.717-5.483c-4.297-3.09-8.688-0.187-12.191,2.622c-4.213,3.38-7.05,7.44-6.08,13.021
						c0.407,2.344,3.504,2.729,5.014,1.324c3.984-3.708,7.839-8.126,12.833-10.459c-1.469-0.598-2.938-1.195-4.407-1.793
						c0.329-0.996,0.052-0.905-0.832,0.273c-0.645,0.596-1.301,1.181-1.966,1.754c-1.471,1.266-2.992,2.47-4.566,3.606
						c-2.854,2.059-5.858,3.876-8.956,5.54c-3.403,1.827-0.376,7.009,3.028,5.181c4.495-2.414,8.73-5.206,12.71-8.4
						c2.729-2.191,7.874-5.398,6.368-9.549c-0.703-1.937-2.557-2.657-4.407-1.793c-5.455,2.548-9.707,7.357-14.048,11.397
						c1.671,0.441,3.343,0.883,5.014,1.324c-0.53-3.049,6.181-11.224,9.457-8.868c0.239-1.828,0.478-3.656,0.717-5.483
						c-3.725,0.628-6.531,2.925-9.143,5.527c-3.381,3.368-6.782,6.287-10.984,8.601
						C1048.78,679.153,1051.803,684.336,1055.191,682.47L1055.191,682.47z"/>
				</g>
			</g>
			<g>
				<g>
					<path style="fill:#FBB03B;" d="M1065.351,705.941c1.962-3.16,4.175-6.084,6.783-8.742c2.314-2.359,5.445-5.768,8.601-6.917
						c-0.973-0.257-1.946-0.514-2.919-0.771c2.391,1.864-5.699,6.432-6.735,7.112c-2.865,1.882-5.73,3.765-8.594,5.647
						c-2.844,1.868-1.06,6.244,2.312,5.483c4.548-1.026,8.005-4.945,11.439-7.873c3.318-2.828,6.63-5.188,6.934-9.81
						c-1.707,0.707-3.414,1.414-5.121,2.121c3.333,4.14-13.797,13.462-16.509,14.745c1.505,0.863,3.009,1.727,4.514,2.59
						c0.484-0.605,0.968-1.21,1.452-1.815c3.441-1.754,0.408-6.933-3.028-5.181c-2.87,1.463-4.182,3.857-4.424,6.996
						c-0.19,2.463,2.64,3.477,4.514,2.59c5.837-2.761,12.35-6.94,16.795-11.716c3.409-3.663,4.138-8.464,0.928-12.452
						c-1.771-2.2-4.968-0.205-5.121,2.121c-0.16,2.425-4.703,5.165-6.354,6.571c-2.262,1.926-4.652,4.658-7.614,5.326
						c0.771,1.828,1.541,3.656,2.312,5.483c4.855-3.19,25.932-13.415,16.93-21.882c-3.46-3.254-8.328,1.835-10.975,4.067
						c-4.482,3.779-8.213,8.306-11.299,13.277C1058.127,706.203,1063.316,709.219,1065.351,705.941L1065.351,705.941z"/>
				</g>
			</g>
			<g>
				<g>
					<path style="fill:#FBB03B;" d="M1190.546,668.428c3.363-1.575,4.996-4.987,7.746-7.351c3.47-2.983,8.831-5.531,13.504-4.839
						c0.89,0.132,2.492,0.971,2.601,0.429c0.16-0.793-2.406,0.568-2.795,0.728c-2.368,0.977-4.731,1.967-7.106,2.928
						c-4.898,1.982-9.645,3.637-15.003,3.004c0.505,1.863,1.01,3.727,1.514,5.59c6.042-2.976,12.174-5.726,18.427-8.23
						c3.541-1.418,1.995-7.223-1.595-5.786c-6.733,2.696-13.353,5.63-19.86,8.835c-2.967,1.461-1.117,5.28,1.514,5.59
						c8.123,0.96,15.492-2.759,22.803-5.774c4.22-1.74,12.265-4.067,7.285-9.913c-3.815-4.479-10.867-3.967-15.891-2.304
						c-2.964,0.981-5.713,2.424-8.19,4.327c-2.827,2.172-4.795,6.092-7.983,7.585
						C1184.024,664.884,1187.066,670.058,1190.546,668.428L1190.546,668.428z"/>
				</g>
			</g>
			<g>
				<g>
					<path style="fill:#FBB03B;" d="M1210.349,694.198c3.311-3.804,6.455-8.17,10.253-11.51c3.678-3.234,10.706-4.721,15.556-4.417
						c-0.864-0.495-1.727-0.991-2.59-1.486c-0.905-1.578-3.936,0.954-5.329,1.615c-2.241,1.063-4.55,1.973-6.818,2.977
						c-4.075,1.803-7.794,3.934-10.954,7.109c-2.211,2.222,0.074,5.594,2.919,5.014c6.311-1.286,12.379-3.517,17.922-6.821
						c3.083-1.838,8.042-4.394,5.798-8.65c-1.802-3.417-6.983-0.388-5.181,3.028c-1.216-2.305-2.002-0.542-3.645,0.44
						c-1.816,1.086-3.692,2.048-5.631,2.895c-3.502,1.53-7.119,2.56-10.858,3.322c0.973,1.671,1.946,3.343,2.919,5.014
						c5.142-5.166,12.289-6.782,18.548-10.133c2.771-1.483,9.28-5.7,5.022-9.447c-1.719-1.513-4.16-0.789-6.191-0.486
						c-3.536,0.529-7.119,0.932-10.438,2.336c-6.551,2.77-11.029,9.768-15.544,14.956
						C1203.581,692.857,1207.808,697.118,1210.349,694.198L1210.349,694.198z"/>
				</g>
			</g>
			<g>
				<g>
					<path style="fill:#FBB03B;" d="M1200.593,729.887c3.461-5.003,7.855-8.981,13.555-11.255c2.319-0.925,4.737-1.597,7.135-2.278
						c1.064-0.302,2.844-0.415,3.766-1.057c0.494-0.138,0.988-0.277,1.483-0.415c0.152-2.323-0.327-2.976-1.438-1.96
						c-1.9,0.153-4.815,2.961-6.581,3.928c-2.742,1.501-5.577,2.844-8.58,3.737c-4.176,1.243-8.08,1.637-11.435,4.658
						c1.671,0.973,3.343,1.946,5.014,2.919c2.192-5.701,13.517-7.093,18.587-8.658c3.678-1.135,2.109-6.929-1.595-5.786
						c-8.077,2.493-19.349,3.933-22.778,12.848c-1.155,3.003,2.988,4.744,5.014,2.919c3.001-2.703,8.29-2.777,11.975-4.226
						c3.407-1.339,6.634-3.064,9.778-4.93c2.938-1.743,12.111-7.104,5.724-11.209c-2.408-1.548-5.784,0.114-8.247,0.805
						c-3.7,1.038-7.41,2.041-10.953,3.551c-6.593,2.808-11.563,7.535-15.607,13.381
						C1193.21,730.042,1198.408,733.045,1200.593,729.887L1200.593,729.887z"/>
				</g>
			</g>
			<g>
				<g>
					<path style="fill:#FBB03B;" d="M1249.646,739.535c5.709-3.674,5.703-11.571,11.204-15.026c0.486-0.169,0.972-0.338,1.457-0.507
						c-0.122-0.089-0.244-0.177-0.366-0.266c-0.284,0.843-1.477,1.719-2.158,2.276c-1.597,1.305-3.366,2.405-5.028,3.626
						c-3.749,2.753-7.365,5.677-10.866,8.738c1.671,0.441,3.343,0.883,5.014,1.324c-0.742-4.494,1.367-8.879,5.157-11.309
						c3.24-2.078,0.235-7.273-3.028-5.181c-6.23,3.995-9.113,10.829-7.915,18.085c0.397,2.401,3.491,2.656,5.014,1.324
						c5.225-4.568,11.375-8.155,16.459-12.819c2.67-2.45,5.681-7.887,2.07-10.911c-3.441-2.882-9.468,0.174-12.034,2.939
						c-3.325,3.582-3.833,9.839-8.007,12.525C1243.381,736.437,1246.386,741.633,1249.646,739.535L1249.646,739.535z"/>
				</g>
			</g>
			<g>
				<g>
					<path style="fill:#FBB03B;" d="M899.722,398.514c6.041,3.608,12.217,8.351,18.728,11.013
						c3.384,1.383,10.287,1.203,11.106-3.549c0.813-4.714-6.054-7.38-9.23-8.905c-6.891-3.307-13.908-6.331-21.013-9.148
						c-3.59-1.423-5.148,4.377-1.595,5.786c7.974,3.162,15.924,6.544,23.543,10.499c4.096,2.126-2.465-1.266-1.958-0.992
						c-1.692-0.913-3.315-1.979-4.966-2.966c-3.862-2.307-7.725-4.613-11.587-6.92C899.427,391.348,896.406,396.534,899.722,398.514
						L899.722,398.514z"/>
				</g>
			</g>
			<g>
				<g>
					<path style="fill:#FBB03B;" d="M908.227,370.539c7.438,5.662,15.362,10.489,23.805,14.5c2.439,1.159,4.905-0.738,4.407-3.388
						c-1.08-5.744-6.673-9.022-10.913-12.44c-1.918-1.546-3.766-3.225-6.09-4.134c-1.945-0.761-6.079-0.604-7.38-2.305
						c-1.129,1.469-2.259,2.938-3.388,4.407c3.262,1.273,6.294,5.902,8.606,8.494c2.721,3.05,5.103,6.21,6.877,9.91
						c1.571-1.212,3.141-2.424,4.712-3.635c-3.981-3.834-7.802-7.809-11.475-11.938c-2.571-2.891-6.802,1.365-4.243,4.243
						c3.673,4.13,7.494,8.105,11.475,11.938c2.544,2.45,6.155-0.626,4.712-3.635c-2.227-4.644-5.452-8.538-8.905-12.321
						c-3.062-3.356-5.838-7.152-10.165-8.84c-2.326-0.908-4.947,2.368-3.388,4.407c2.754,3.601,5.935,3.276,9.883,4.686
						c2.724,0.972,4.99,3.344,7.207,5.139c2.594,2.1,6.031,4.127,6.688,7.621c1.469-1.129,2.938-2.259,4.407-3.388
						c-8.443-4.011-16.368-8.838-23.805-14.5C908.184,363.02,905.191,368.228,908.227,370.539L908.227,370.539z"/>
				</g>
			</g>
			<g>
				<g>
					<path style="fill:#FBB03B;" d="M920.97,350.08c1.155,1.727,2.29,2.149,4.063,3.1c2.54,1.363,3.52,4.196,5.358,6.397
						c3.375,4.041,7.888,6.735,12.92,8.174c2.124,0.607,4.41-1.5,3.69-3.69c-1.447-4.405-3.696-8.397-6.959-11.72
						c-3.477-3.541-7.855-5.218-11.882-7.948c-2.194-1.487-5.117,0.973-4.407,3.388c1.296,4.411,3.416,8.188,6.437,11.645
						c1.212-1.571,2.424-3.141,3.635-4.712c-3.689-2.561-6.597-5.755-8.895-9.603c-1.978-3.312-7.167-0.298-5.181,3.028
						c2.839,4.754,6.505,8.601,11.047,11.755c2.942,2.043,5.759-2.282,3.635-4.712c-2.344-2.682-3.892-5.586-4.894-8.997
						c-1.469,1.129-2.938,2.259-4.407,3.388c3.212,2.177,6.839,3.464,9.744,6.115c2.992,2.731,5.08,6.133,6.34,9.967
						c1.23-1.23,2.46-2.46,3.69-3.69c-4.985-1.425-8.942-4.356-11.719-8.744c-0.873-1.379-1.595-2.808-2.855-3.885
						c-0.929-0.794-3.59-1.399-4.182-2.284C924.014,343.858,918.815,346.858,920.97,350.08L920.97,350.08z"/>
				</g>
			</g>
			<g>
				<g>
					<path style="fill:#FBB03B;" d="M949.512,327.791c2.343,1.521,2.682,4.943,3.668,7.348c0.941,2.298,2.122,4.015,3.945,5.696
						c1.117,1.03,2.236,1.818,3.186,3.041c0.735,0.946,1.093,2.233,1.983,3.093c1.531,1.479,3.548,1.958,5.527,1.204
						c2.067-0.788,3.016-3.289,1.324-5.014c-6.429-6.555-9.046-17.54-18.194-20.947c-2.1-0.782-4.406,1.626-3.69,3.69
						c3.208,9.254,7.99,17.58,14.347,25.027c2.185,2.56,6.721-0.866,4.712-3.635c-2.321-3.199-2.738-7.635-4.748-11.134
						c-2.052-3.573-4.5-6.731-5.252-10.877c-0.688-3.794-6.471-2.186-5.786,1.595c0.758,4.181,2.976,7.549,5.147,11.123
						c2.367,3.897,2.805,8.666,5.457,12.321c1.571-1.212,3.141-2.424,4.712-3.635c-5.669-6.643-9.944-14.13-12.804-22.38
						c-1.23,1.23-2.46,2.46-3.69,3.69c4.086,1.522,5.979,6.012,8.025,9.533c2.101,3.616,4.593,6.885,7.522,9.872
						c0.441-1.671,0.883-3.343,1.324-5.014c0.566-0.216-3.056-4.24-3.369-4.524c-2.058-1.867-3.526-3.306-4.508-5.972
						c-1.372-3.729-2.311-7.011-5.81-9.281C949.292,320.502,946.281,325.695,949.512,327.791L949.512,327.791z"/>
				</g>
			</g>
			<g>
				<g>
					<path style="fill:#FBB03B;" d="M966.632,313.279c3.719,2.983,3.879,8.935,5.872,13.094c2.09,4.361,5.146,8.083,8.949,11.052
						c2.625,2.049,6.312-0.424,4.712-3.635c-1.706-3.423-13.279-33.704-20.449-24.218c-1.171,1.549-0.819,3.294,0.06,4.836
						c0.641,1.124,1.808,1.914,2.485,3.043c1.047,1.748,1.497,3.872,2.207,5.768c2.377,6.35,6.017,11.92,10.752,16.761
						c1.699,1.737,4.239,0.707,5.014-1.324c2.875-7.531-0.035-13.261-4.794-19.025c-4.161-5.041-5.806-12.66-11.883-15.836
						c-3.419-1.787-6.455,3.39-3.028,5.181c4.345,2.271,5.388,8.076,8.142,11.839c3.925,5.364,8.568,8.937,5.777,16.247
						c1.671-0.441,3.343-0.883,5.014-1.324c-3.226-3.298-5.933-6.954-7.938-11.124c-1.786-3.713-2.451-8.076-4.901-11.45
						c-2.746-3.783-2.32,1.203-1.608,3.649c0.654,2.245,2.278,4.571,3.323,6.669c2.215,4.446,4.431,8.892,6.646,13.338
						c1.571-1.212,3.141-2.424,4.712-3.635c-4.478-3.495-7.616-7.924-9.322-13.358c-1.27-4.044-2.028-8.004-5.499-10.788
						C967.891,306.642,963.619,310.862,966.632,313.279L966.632,313.279z"/>
				</g>
			</g>
			<g>
				<g>
					<path style="fill:#FBB03B;" d="M994.711,303.672c-0.332,6.624,3.693,11.363,6.384,17.049
						c2.327,4.917,3.426,10.359,8.659,13.047c1.395,0.717,3.312,0.419,4.105-1.076c2.366-4.465-0.691-8.8-2.606-12.916
						c-2.93-6.3-5.86-12.6-8.789-18.9c-1.406-3.024-5.277-1.066-5.59,1.514c-1.143,9.405,0.937,22.546,7.138,30.037
						c2.464,2.977,6.688-1.288,4.243-4.243c-5.043-6.093-6.282-18.377-5.38-25.794c-1.864,0.505-3.727,1.009-5.59,1.514
						c1.998,4.296,3.995,8.591,5.993,12.887c0.932,2.005,1.864,4.009,2.797,6.014c0.659,1.416,3.403,5.354,2.606,6.859
						c1.368-0.359,2.736-0.717,4.105-1.076c-3.957-2.034-4.728-7.172-6.506-10.895c-2.192-4.589-5.833-8.669-5.564-14.021
						C1000.905,299.812,994.904,299.823,994.711,303.672L994.711,303.672z"/>
				</g>
			</g>
			<g>
				<g>
					<path style="fill:#FBB03B;" d="M1019.714,330.48c0.708,4.27-0.061,8.511-0.055,12.795c0.004,3.786,0.611,7.568,1.368,11.267
						c0.968,4.732,2.008,14.427,8.635,13.94c1.446-0.106,2.385-0.881,2.893-2.202c1.049-2.729-0.418-5.394-0.704-8.198
						c-0.325-3.176-0.126-6.377-0.517-9.551c-0.759-6.152-4.927-11.578-4.691-17.812c0.146-3.861-5.854-3.855-6,0
						c-0.223,5.902,2.989,10.51,4.346,16.055c0.767,3.137,0.576,6.381,0.757,9.576c0.109,1.928,1.645,6.722,1.025,8.335
						c0.964-0.734,1.929-1.468,2.893-2.202c-1.982,0.146-3.882-15.829-3.96-17.448c-0.261-5.443,0.699-10.721-0.201-16.149
						C1024.869,325.085,1019.086,326.697,1019.714,330.48L1019.714,330.48z"/>
				</g>
			</g>
			<g>
				<g>
					<path style="fill:#FBB03B;" d="M1041.824,364.474c3.402,6.224,5.43,12.637,7.764,19.277c1.48,4.21,3.957,7.623,8.424,8.786
						c2.377,0.619,4.063-1.48,3.69-3.69c-1.303-7.72-8.282-13.162-9.214-20.84c-1.707,0.707-3.414,1.414-5.121,2.121
						c3.717,4.258,5.774,9.329,6.1,14.968c1.964-0.266,3.929-0.532,5.893-0.798c-1.993-7.918-5.003-15.4-9.024-22.507
						c-1.901-3.361-7.087-0.34-5.181,3.028c3.773,6.669,6.549,13.645,8.419,21.074c0.812,3.224,6.091,2.629,5.893-0.798
						c-0.425-7.34-3.022-13.671-7.858-19.21c-1.608-1.842-5.435-0.462-5.121,2.121c1.031,8.489,8.038,14.194,9.429,22.435
						c1.23-1.23,2.46-2.46,3.69-3.69c-4.84-1.26-5.433-8.932-6.912-12.931c-1.58-4.27-3.507-8.382-5.69-12.375
						C1045.152,358.056,1039.969,361.081,1041.824,364.474L1041.824,364.474z"/>
				</g>
			</g>
			<g>
				<g>
					<path style="fill:#FBB03B;" d="M1063.764,341.969c0.126,15.238,9.686,28.734,21.719,37.335
						c1.671,1.194,3.843-0.115,4.407-1.793c2.01-5.976-4.541-13.438-7.416-18.277c-1.707-2.872-3.529-5.748-5.967-8.067
						c-1.198-1.139-2.059-1.475-2.545-3.173c-0.437-1.525,0.029-3.152-0.539-4.77c-1.271-3.619-7.07-2.062-5.786,1.595
						c0.838,2.385-0.128,4.989,1.217,7.279c1.23,2.095,3.686,3.433,5.213,5.314c1.94,2.388,3.394,5.138,4.923,7.796
						c1.221,2.122,5.98,8.134,5.114,10.708c1.469-0.598,2.938-1.195,4.407-1.793c-10.273-7.344-18.64-19.167-18.747-32.155
						C1069.732,338.11,1063.732,338.101,1063.764,341.969L1063.764,341.969z"/>
				</g>
			</g>
			<g>
				<g>
					<path style="fill:#FBB03B;" d="M1091.292,318.731c-3,11.649-1.699,23.484,3.632,34.251c1.134,2.29,4.935,1.733,5.483-0.717
						c2.365-10.563-2.815-20.698-1.157-31.193c-1.828,0.239-3.656,0.478-5.483,0.717c1.695,3.923,1.44,9.01,1.805,13.226
						c0.392,4.531,0.784,9.062,1.175,13.594c0.33,3.818,6.333,3.853,6,0c-0.504-5.826-1.007-11.652-1.511-17.477
						c-0.37-4.285-0.566-8.385-2.288-12.371c-0.989-2.289-5.095-1.744-5.483,0.717c-1.657,10.496,3.472,20.855,1.157,31.193
						c1.828-0.239,3.656-0.478,5.483-0.717c-4.6-9.29-5.608-19.605-3.027-29.628
						C1098.041,316.585,1092.255,314.989,1091.292,318.731L1091.292,318.731z"/>
				</g>
			</g>
			<g>
				<g>
					<path style="fill:#FBB03B;" d="M1117.26,329.726c-0.857,6.782-2.317,14.594-1.048,21.393c0.692,3.707,3.412,8.868,7.855,8.8
						c5.563-0.086,4.026-7.157,3.747-10.72c-0.591-7.536-1.182-15.071-1.772-22.607c-0.3-3.824-6.302-3.857-6,0
						c0.394,5.024,0.788,10.048,1.182,15.071c0.197,2.512,0.394,5.024,0.591,7.536c0.06,0.77,0.854,5.263,0.531,5.652
						c0.973-0.257,1.946-0.514,2.919-0.772c-6.488-0.919-2.531-20.181-2.003-24.353
						C1123.744,325.906,1117.739,325.941,1117.26,329.726L1117.26,329.726z"/>
				</g>
			</g>
			<g>
				<g>
					<path style="fill:#FBB03B;" d="M1133.325,325.647c2.211,3.998,3.365,8.209,3.195,12.784c-0.126,3.392-0.78,6.645-0.235,10.049
						c0.726,4.535,2.944,12.469,8.338,13.225c1.487,0.208,3.376-0.341,3.69-2.095c0.948-5.284-0.913-9.426-3.252-14.088
						c-3.045-6.07-5.309-12.083-4.96-18.971c-1.505,0.863-3.01,1.727-4.514,2.59c3.251,2.189,4.44,7.17,5.665,10.608
						c1.181,3.313,3.77,8.608,2.545,12.129c-1.272,3.654,4.522,5.225,5.786,1.595c1.883-5.407-1.3-12.05-3.19-17.081
						c-1.775-4.724-3.436-9.508-7.777-12.431c-1.996-1.344-4.407,0.468-4.514,2.59c-0.258,5.09,0.663,9.98,2.477,14.734
						c1.966,5.152,6.969,11.051,5.95,16.73c1.23-0.698,2.46-1.397,3.69-2.095c-2.546-0.357-3.625-6.166-3.967-8.25
						c-0.511-3.113,0.154-6.122,0.269-9.238c0.206-5.609-1.316-10.935-4.014-15.813
						C1136.636,319.239,1131.453,322.262,1133.325,325.647L1133.325,325.647z"/>
				</g>
			</g>
			<g>
				<g>
					<path style="fill:#FBB03B;" d="M1154.135,502c3.821,3.194,3.784,8.936,7.682,12.239c4.309,3.652,10.174,2.705,15.324,3.842
						c2.782,0.614,5.224-2.865,2.919-5.014c-6.659-6.208-13.829-11.781-21.485-16.707c-0.239,1.828-0.478,3.656-0.717,5.483
						c2.854-0.589,9.865,3.921,11.237,6.485c1.313,2.454,1.249,4.868,4.116,6.212c3.476,1.63,6.525-3.541,3.028-5.181
						c-1.374-0.644-1.636-3.799-2.47-5.066c-1.118-1.698-2.921-2.738-4.591-3.81c-4.086-2.622-7.851-5.472-12.914-4.426
						c-2.665,0.551-2.75,4.175-0.717,5.483c7.235,4.655,13.978,9.902,20.271,15.768c0.973-1.671,1.946-3.343,2.919-5.014
						c-4.52-0.998-11.517,0.204-14.334-4.179c-2.25-3.501-2.658-7.546-6.025-10.36C1155.434,495.296,1151.168,499.519,1154.135,502
						L1154.135,502z"/>
				</g>
			</g>
			<g>
				<g>
					<path style="fill:#FBB03B;" d="M1166.82,456.613c0.859,4.485,0.999,10.406,3.09,14.491c1.848,3.608,6.996,5.914,10.197,8.121
						c2.75,1.896,5.175-1.666,4.105-4.105c-3.25-7.405-6.178-15.074-10.745-21.792c-2.211-3.253-6.707-0.47-5.181,3.028
						c3.455,7.92,7.607,15.845,9.512,24.312c0.847,3.766,6.633,2.172,5.786-1.595c-2.015-8.957-6.464-17.372-10.117-25.745
						c-1.727,1.009-3.454,2.019-5.181,3.028c4.568,6.719,7.495,14.387,10.745,21.792c1.368-1.368,2.736-2.736,4.104-4.105
						c-3.089-2.13-7.227-3.964-8.357-7.68c-1.092-3.593-1.467-7.658-2.173-11.346C1171.88,451.229,1166.096,452.833,1166.82,456.613
						L1166.82,456.613z"/>
				</g>
			</g>
			<g>
				<g>
					<path style="fill:#FBB03B;" d="M1177.385,421.054c0.387,7.153,2.598,34.251,15.252,29.191c1.68-0.672,2.965-2.634,1.793-4.407
						c-4.829-7.304-8.015-15.151-9.663-23.751c-1.928,0.532-3.857,1.063-5.786,1.595c1.916,4.657,3.842,9.311,5.748,13.972
						c1.791,4.383,4.025,8.87,2.069,13.569c-1.482,3.561,4.321,5.114,5.786,1.595c1.884-4.526,0.911-9.106-0.767-13.555
						c-2.181-5.783-4.699-11.461-7.05-17.176c-1.449-3.523-6.528-2.277-5.786,1.595c1.733,9.044,5.19,17.504,10.268,25.184
						c0.598-1.469,1.195-2.938,1.793-4.407c-5.073,2.029-7.537-21.185-7.657-23.405
						C1183.178,417.213,1177.176,417.189,1177.385,421.054L1177.385,421.054z"/>
				</g>
			</g>
			<g>
				<g>
					<path style="fill:#FBB03B;" d="M1207.523,434.904c0.267,6.282,1.197,12.504,3.05,18.523c1.26,4.095,2.334,9.148,6.602,10.913
						c1.978,0.818,3.629-1.194,3.797-2.893c0.405-4.087-0.941-7.649-2.76-11.241c-2.547-5.03-4.3-9.569-5.158-15.208
						c-1.929,0.532-3.857,1.063-5.786,1.595c1.036,6.527,3.167,12.61,6.328,18.407c1.725,3.165,6.038,0.866,5.483-2.312
						c-0.778-4.462-1.543-8.954-2.933-13.275c-1.368-4.254-3.952-8.252-4.455-12.738c-0.426-3.794-6.43-3.838-6,0
						c0.522,4.65,2.565,8.388,4.126,12.726c1.73,4.806,2.601,9.867,3.476,14.882c1.828-0.771,3.656-1.541,5.483-2.312
						c-2.925-5.366-4.766-10.945-5.723-16.974c-0.605-3.812-6.36-2.18-5.786,1.595c0.676,4.444,1.632,8.546,3.62,12.591
						c1.98,4.028,4.548,7.563,4.083,12.262c1.266-0.964,2.532-1.929,3.798-2.893c-1.567-0.648-3.253-9.647-3.589-11.071
						c-0.981-4.15-1.477-8.324-1.658-12.58C1213.36,431.057,1207.359,431.036,1207.523,434.904L1207.523,434.904z"/>
				</g>
			</g>
			<g>
				<g>
					<path style="fill:#FBB03B;" d="M1244.007,442.736c1.607,4.436,0.337,9.753,0.88,14.434c0.527,4.544,1.737,8.846,3.506,13.056
						c0.698-1.23,1.397-2.46,2.095-3.69c-2.31,0.488-2.853-7.536-3.046-8.596c-0.694-3.813-1.317-6.43,0.09-10.1
						c1.712-4.466,1.876-7.991-0.135-12.401c-1.571,1.212-3.141,2.424-4.712,3.635c5.988,7.236,3.995,18.213,3.929,26.973
						c-0.029,3.862,5.971,3.866,6,0c0.083-10.952,1.755-22.225-5.686-31.216c-2.332-2.817-6.016,0.775-4.712,3.635
						c2.136,4.685-1.282,6.902-1.876,11.056c-0.539,3.775,1.002,8.287,1.671,11.962c1.084,5.956,2.488,12.439,10.072,10.836
						c1.444-0.305,2.698-2.255,2.095-3.69c-2.034-4.841-3.376-9.822-3.585-15.095c-0.168-4.231,0.675-8.321-0.8-12.395
						C1248.488,437.538,1242.687,439.093,1244.007,442.736L1244.007,442.736z"/>
				</g>
			</g>
			<g>
				<g>
					<path style="fill:#FBB03B;" d="M1255.346,463.191c-0.818,5.07-1.887,10.172-2.427,15.281
						c-0.567,5.359,1.677,8.549,3.312,13.426c0.652,1.945,3.481,3.185,5.014,1.324c2.951-3.583,2.301-7.243,1.786-11.597
						c-0.803-6.791-0.616-13.579,0.533-20.319c-1.23,0.698-2.46,1.397-3.69,2.095c1.308,0.307,3.188,10.271,3.515,12.444
						c0.791,5.258,0.649,10.595-0.237,15.828c-0.636,3.758,4.569,5.329,5.786,1.595c1.434-4.4,1.423-8.711-0.035-13.096
						c-1.015-3.05-6.115-2.75-5.893,0.798c0.212,3.389-0.215,6.437-1.629,9.544c-1.587,3.489,3.583,6.542,5.181,3.028
						c1.853-4.074,2.728-8.092,2.448-12.572c-1.964,0.266-3.928,0.532-5.893,0.798c1.161,3.49,1.166,6.435,0.036,9.906
						c1.929,0.532,3.857,1.063,5.786,1.595c1.172-6.919,1.271-13.833-0.063-20.743c-0.838-4.342-2.229-13.694-7.405-14.909
						c-1.457-0.342-3.409,0.447-3.69,2.095c-0.854,5.009-1.362,10.047-1.247,15.135c0.054,2.401,0.242,4.797,0.53,7.181
						c0.229,1.894,1.316,5.283-0.059,6.953c1.671,0.441,3.343,0.883,5.014,1.324c-1.598-4.765-3.692-7.48-2.932-12.835
						c0.602-4.237,1.365-8.457,2.047-12.682C1261.742,461.009,1255.961,459.383,1255.346,463.191L1255.346,463.191z"/>
				</g>
			</g>
		</g>
		<g>
			<g>
				<path style="fill:#FF7BAC;" d="M1072.218,524.035c-12.209,2.989-25.212,7.76-37.909,6.365c-3.833-0.421-3.803,5.582,0,6
					c13.24,1.454,26.793-3.468,39.504-6.579C1077.562,528.903,1075.974,523.116,1072.218,524.035L1072.218,524.035z"/>
			</g>
		</g>
		<g>
			<g>
				<path style="fill:#FF7BAC;" d="M1073.091,520.53c-8.417,0.41-17.242,1.618-25.553-0.169c-8.042-1.729-15.629-4.713-23.968-4.663
					c-3.86,0.023-3.868,6.023,0,6c8.944-0.054,17.09,3.777,25.827,5.08c7.776,1.16,15.884,0.132,23.694-0.249
					C1076.934,526.343,1076.957,520.342,1073.091,520.53L1073.091,520.53z"/>
			</g>
		</g>
		<g>
			<g>
				<path style="fill:#FF7BAC;" d="M1069.534,516.531c-8.831-0.976-16.081-3.162-24.099-6.943c-6.317-2.979-12.807-5.246-19.644-6.7
					c-3.766-0.801-5.376,4.982-1.595,5.786c8.228,1.749,15.488,4.94,23.099,8.418c7.172,3.277,14.45,4.578,22.238,5.439
					C1073.366,522.955,1073.336,516.951,1069.534,516.531L1069.534,516.531z"/>
			</g>
		</g>
		<g>
			<g>
				<path style="fill:#FF7BAC;" d="M1129.331,546.065c-5.72-4.282-9.43-10.398-12.867-16.536
					c-3.749-6.697-7.465-13.396-9.578-20.816c-1.056-3.707-6.847-2.132-5.786,1.595c2.392,8.401,6.652,16.069,10.955,23.621
					c3.79,6.652,8.068,12.692,14.246,17.317C1129.395,553.56,1132.389,548.354,1129.331,546.065L1129.331,546.065z"/>
			</g>
		</g>
		<g>
			<g>
				<path style="fill:#FF7BAC;" d="M1120.913,541.934c-2.813-3.049-6.024-5.659-8.934-8.606c-3.049-3.087-4.659-6.469-6.747-10.174
					c-1.59-2.821-3.667-4.955-6.528-6.494c-3.374-1.814-7.237-2.506-10.102-5.196c-2.813-2.642-7.065,1.593-4.243,4.243
					c2.441,2.292,5.217,3.526,8.269,4.803c4.52,1.891,6.599,4.044,8.809,8.421c3.593,7.116,9.943,11.513,15.231,17.245
					C1119.295,549.021,1123.529,544.77,1120.913,541.934L1120.913,541.934z"/>
			</g>
		</g>
		<g>
			<g>
				<path style="fill:#FF7BAC;" d="M1128.801,548.919c-4.514-13.324-8.067-26.909-10.654-40.737
					c-0.709-3.791-6.493-2.185-5.786,1.595c2.587,13.828,6.14,27.413,10.654,40.737
					C1124.247,554.152,1130.045,552.591,1128.801,548.919L1128.801,548.919z"/>
			</g>
		</g>
		<g>
			<g>
				<path style="fill:#FF7BAC;" d="M1152.559,571.739c-6.58-3.073-13.419-7.161-20.822-7.57c-4.633-0.256-8.725,0.052-13.252-1.32
					c-3.728-1.131-7.208-2.147-11.135-1.666c-3.784,0.463-3.83,6.468,0,6c3.72-0.455,6.809,0.688,10.336,1.701
					c3.499,1.004,6.653,1.361,10.303,1.297c8.055-0.142,14.419,3.413,21.542,6.739
					C1153.008,578.544,1156.059,573.374,1152.559,571.739L1152.559,571.739z"/>
			</g>
		</g>
		<g>
			<g>
				<path style="fill:#FF7BAC;" d="M1155.94,570.576c-14.091,0.438-28.179,0.925-42.204,2.434c-3.799,0.409-3.841,6.413,0,6
					c14.025-1.508,28.113-1.995,42.204-2.434C1159.792,576.456,1159.808,570.455,1155.94,570.576L1155.94,570.576z"/>
			</g>
		</g>
		<g>
			<g>
				<path style="fill:#FF7BAC;" d="M1166.379,575.794c-16.988-4.769-33.67,0.785-49.012,8.142c-3.48,1.669-0.44,6.844,3.028,5.181
					c13.858-6.645,29.023-11.851,44.389-7.537C1168.508,582.625,1170.097,576.838,1166.379,575.794L1166.379,575.794z"/>
			</g>
		</g>
		<g>
			<g>
				<path style="fill:#FF7BAC;" d="M1166.296,578.112c-4.706,4.665-14.171,4.394-20.272,6.02
					c-6.981,1.861-13.702,4.475-20.206,7.607c-3.478,1.674-0.438,6.85,3.028,5.181c7.684-3.699,15.714-6.495,24.061-8.267
					c6.264-1.33,12.84-1.548,17.631-6.298C1173.285,579.632,1169.043,575.389,1166.296,578.112L1166.296,578.112z"/>
			</g>
		</g>
		<g>
			<g>
				<path style="fill:#FF7BAC;" d="M1251.666,608.68c-10.039-10.217-20.078-20.434-30.117-30.652
					c-2.711-2.759-6.952,1.485-4.243,4.243c10.039,10.217,20.078,20.434,30.117,30.652
					C1250.134,615.682,1254.376,611.438,1251.666,608.68L1251.666,608.68z"/>
			</g>
		</g>
		<g>
			<g>
				<path style="fill:#FF7BAC;" d="M1253.123,609.272c-8.158-1.451-15.432-9.042-22.065-13.701
					c-6.849-4.811-13.937-9.049-21.735-12.144c-3.589-1.425-5.147,4.376-1.595,5.786c8.37,3.322,15.859,8.319,23.132,13.558
					c6.32,4.553,12.778,10.884,20.668,12.287C1255.303,615.729,1256.924,609.948,1253.123,609.272L1253.123,609.272z"/>
			</g>
		</g>
		<g>
			<g>
				<path style="fill:#FF7BAC;" d="M1243.852,609.086c-13.589-4.03-26.556-10.756-39.527-16.423
					c-3.504-1.531-6.562,3.637-3.028,5.181c13.442,5.873,26.872,12.85,40.96,17.028
					C1245.967,615.972,1247.552,610.183,1243.852,609.086L1243.852,609.086z"/>
			</g>
		</g>
		<g>
			<g>
				<path style="fill:#FF7BAC;" d="M1321.574,646.855c-18.543-2.524-34.808-13.252-53.122-16.832
					c-3.772-0.737-5.387,5.044-1.595,5.786c18.314,3.58,34.578,14.308,53.121,16.832
					C1323.755,653.155,1325.388,647.375,1321.574,646.855L1321.574,646.855z"/>
			</g>
		</g>
		<g>
			<g>
				<path style="fill:#FF7BAC;" d="M1323.188,648.999c-9.22-1.382-18.598-1.385-27.899-1.738c-9.286-0.352-18.266-0.975-27.42,0.936
					c-3.777,0.789-2.179,6.574,1.595,5.786c8.594-1.794,17.114-1.052,25.825-0.722c8.739,0.331,17.641,0.225,26.304,1.523
					C1325.371,655.351,1327,649.57,1323.188,648.999L1323.188,648.999z"/>
			</g>
		</g>
		<g>
			<g>
				<path style="fill:#FF7BAC;" d="M1315.582,653.016c0.479,0.47,0.958,0.939,1.436,1.409c0.441-1.671,0.883-3.343,1.324-5.014
					c-17.317,6.226-39.03-4.356-52.513,12.342c-2.404,2.978,1.816,7.249,4.243,4.243c5.626-6.968,14.266-8.933,22.873-8.784
					c9.365,0.162,17.967,1.23,26.992-2.015c2.061-0.741,3.033-3.337,1.324-5.014c-0.479-0.47-0.957-0.939-1.436-1.409
					C1317.067,646.067,1312.821,650.307,1315.582,653.016L1315.582,653.016z"/>
			</g>
		</g>
		<g>
			<g>
				<path style="fill:#FF7BAC;" d="M1322.83,652.79c-12.165,7.428-28.166,6.501-38.158,17.751c-2.557,2.878,1.672,7.137,4.243,4.243
					c9.373-10.552,25.376-9.75,36.944-16.813C1329.149,655.962,1326.138,650.771,1322.83,652.79L1322.83,652.79z"/>
			</g>
		</g>
		<g>
			<g>
				<path style="fill:#F2F25E;" d="M1014.112,503.402c3.181,0.704,5.7,2.94,8.539,4.44c2.683,1.417,5.503,2.529,8.398,3.426
					c1.85,0.573,3.827-0.989,3.797-2.893c-0.068-4.345-3.794-6.866-7.873-7.12c-3.194-0.199-5.173,0.389-8.029-1.533
					c-1.758-1.183-3.411-2.065-5.591-1.881c-3.819,0.323-3.854,6.326,0,6c2.255-0.191,4.52,2.69,6.818,3.246
					c1.292,0.313,8.645-0.587,8.675,1.287c1.266-0.964,2.532-1.929,3.797-2.893c-3.238-1.004-6.286-2.323-9.186-4.084
					c-2.529-1.536-4.818-3.133-7.751-3.782C1011.945,496.783,1010.338,502.566,1014.112,503.402L1014.112,503.402z"/>
			</g>
		</g>
		<g>
			<g>
				<path style="fill:#F2F25E;" d="M1016.78,518.644c4.62,1.914,9.354,3.404,14.238,4.481c0.266-1.964,0.532-3.929,0.797-5.893
					c-4.057,0.483-7.717-0.256-11.194-2.422c-3.287-2.047-6.302,3.141-3.028,5.181c4.276,2.664,9.209,3.839,14.223,3.241
					c3.077-0.367,4.399-5.099,0.797-5.893c-4.884-1.077-9.618-2.567-14.238-4.481
					C1014.812,511.382,1013.258,517.185,1016.78,518.644L1016.78,518.644z"/>
			</g>
		</g>
		<g>
			<g>
				<path style="fill:#F2F25E;" d="M1024.877,535.671c5.259,1.689,10.708,1.623,15.91-0.254c3.003-1.084,2.791-6.046-0.797-5.893
					c-5.807,0.248-11.614,0.496-17.421,0.745c-3.847,0.164-3.867,6.165,0,6c5.807-0.248,11.614-0.496,17.421-0.745
					c-0.266-1.964-0.532-3.929-0.797-5.893c-4.277,1.543-8.384,1.647-12.72,0.254
					C1022.787,528.702,1021.209,534.493,1024.877,535.671L1024.877,535.671z"/>
			</g>
		</g>
		<g>
			<g>
				<path style="fill:#F2F25E;" d="M1078.608,508.538c2.71,3.196,3.448,7.559,6.305,10.696c2.598,2.853,6.509,4.538,10.291,3.217
					c3.22-1.125,2.629-5.659-0.797-5.893c-0.245-0.017-1.953-4.43-2.227-4.914c-1.058-1.87-2.379-3.573-3.822-5.16
					c-2.603-2.863-6.836,1.39-4.243,4.243c2.116,2.327,3.278,4.878,4.637,7.665c1.177,2.416,2.927,3.98,5.655,4.167
					c-0.266-1.964-0.532-3.929-0.798-5.893c-3.052,1.067-5.1-2.28-6.255-4.613c-1.36-2.747-2.502-5.397-4.503-7.758
					C1080.35,501.346,1076.124,505.608,1078.608,508.538L1078.608,508.538z"/>
			</g>
		</g>
		<g>
			<g>
				<path style="fill:#F2F25E;" d="M1100.42,501.78c0.117,5.33,0.997,10.542,2.699,15.596c1.227,3.642,6.687,2.189,5.786-1.595
					c-0.948-3.979-2.655-7.649-5.146-10.895c-2.319-3.021-7.533-0.036-5.181,3.028c2.207,2.876,3.701,5.932,4.541,9.462
					c1.929-0.532,3.857-1.063,5.786-1.595c-1.538-4.567-2.38-9.182-2.485-14.001C1106.336,497.925,1100.336,497.911,1100.42,501.78
					L1100.42,501.78z"/>
			</g>
		</g>
		<g>
			<g>
				<path style="fill:#F2F25E;" d="M1110.227,494.544c3.074,7.847,5.573,15.852,7.508,24.055c1.828-0.771,3.656-1.541,5.483-2.312
					c-2.797-3.941-4.438-8.131-4.787-12.966c-0.276-3.829-6.278-3.859-6,0c0.424,5.879,2.186,11.174,5.606,15.994
					c1.923,2.71,6.298,1.14,5.483-2.312c-1.935-8.203-4.434-16.207-7.508-24.055C1114.62,489.394,1108.815,490.942,1110.227,494.544
					L1110.227,494.544z"/>
			</g>
		</g>
		<g>
			<g>
				<path style="fill:#F2F25E;" d="M1096.119,565.286c1.211-0.076,14.258-1.259,14.344-0.501c0.734-0.964,1.468-1.929,2.203-2.893
					c-5.351,1.284-10.617,0.479-15.373-2.277c-3.347-1.94-6.372,3.243-3.028,5.181c6.147,3.562,13.095,4.538,19.996,2.882
					c1.158-0.278,2.344-1.635,2.203-2.893c-1.048-9.292-14.016-5.893-20.344-5.499
					C1092.283,559.525,1092.256,565.527,1096.119,565.286L1096.119,565.286z"/>
			</g>
		</g>
		<g>
			<g>
				<path style="fill:#F2F25E;" d="M1102.604,581.627c1.087-0.41,11.92-4.008,11.494-5.037c0.698-1.23,1.397-2.46,2.095-3.69
					c-6.65,1.07-13.299,2.14-19.948,3.21c-3.802,0.612-2.188,6.394,1.595,5.786c6.649-1.07,13.299-2.14,19.948-3.21
					c1.471-0.237,2.667-2.307,2.095-3.69c-3.198-7.741-13.609-1.143-18.875,0.846
					C1097.431,577.193,1098.982,582.995,1102.604,581.627L1102.604,581.627z"/>
			</g>
		</g>
		<g>
			<g>
				<path style="fill:#F2F25E;" d="M1111.865,590.967c1.198-3.259,4.905-5.067,8.218-4.265c-0.239-1.828-0.478-3.656-0.717-5.483
					c-4.525,2.139-8.877,4.578-13.064,7.321c-3.217,2.107-0.214,7.305,3.028,5.181c4.187-2.743,8.539-5.181,13.064-7.321
					c2.353-1.112,1.677-4.904-0.717-5.483c-6.666-1.613-13.254,2.077-15.598,8.456
					C1104.745,593.002,1110.542,594.567,1111.865,590.967L1111.865,590.967z"/>
			</g>
		</g>
		<g>
			<g>
				<path style="fill:#F2F25E;" d="M1121.079,601.627c2.271-2.063,4.81-4.419,8.07-4.294c2.503,0.096,4.82,0.274,6.209-2.241
					c1.467-2.657-1.459-5.538-4.105-4.105c-3.747,2.03-7.494,4.059-11.242,6.089c-3.396,1.84-0.371,7.022,3.028,5.181
					c3.747-2.03,7.494-4.059,11.242-6.089c-1.368-1.368-2.736-2.736-4.105-4.105c0.594-1.075,0.818-0.394-0.284-0.656
					c-0.648-0.154-1.354-0.119-2.016-0.079c-1.384,0.083-2.694,0.472-3.958,1.017c-2.687,1.16-4.936,3.087-7.083,5.038
					C1113.972,599.986,1118.225,604.219,1121.079,601.627L1121.079,601.627z"/>
			</g>
		</g>
		<g>
			<g>
				<path style="fill:#F2F25E;" d="M1214.306,574.567c1.57,4.5,3.463,16.106,10.524,14.038c1.89-0.553,2.737-2.695,1.793-4.407
					c-2.731-4.951-5.463-9.903-8.194-14.854c-1.866-3.382-7.049-0.358-5.181,3.028c2.731,4.951,5.463,9.903,8.194,14.854
					c0.598-1.469,1.195-2.938,1.793-4.407c0.644-0.188-0.12-1.233-0.355-1.854c-0.312-0.824-0.581-1.666-0.871-2.498
					c-0.639-1.832-1.278-3.664-1.917-5.496C1218.828,569.349,1213.03,570.907,1214.306,574.567L1214.306,574.567z"/>
			</g>
		</g>
		<g>
			<g>
				<path style="fill:#F2F25E;" d="M1199.171,578.575c2.447,6.826,7.914,12.008,14.993,13.787c3.37,0.847,5.12-3.613,2.312-5.483
					c-2.914-1.941-5.047-4.528-6.588-7.656c-1.705-3.464-6.882-0.427-5.181,3.028c1.992,4.046,4.999,7.317,8.74,9.809
					c0.771-1.828,1.541-3.656,2.312-5.483c-4.965-1.248-9.059-4.733-10.802-9.597
					C1203.663,573.372,1197.864,574.928,1199.171,578.575L1199.171,578.575z"/>
			</g>
		</g>
		<g>
			<g>
				<path style="fill:#F2F25E;" d="M1184.004,588.516c2.942,1.938,5.941,3.781,8.954,5.606c2.054,1.244,8.434,3.771,8.771,6.515
					c1.707-0.707,3.414-1.414,5.121-2.121c-0.853-0.478-1.332-1.23-1.437-2.257c-0.326-3.819-6.329-3.853-6,0
					c0.228,2.661,1.083,4.782,3.195,6.5c1.737,1.413,5.474,0.751,5.121-2.121c-0.53-4.311-3.213-6.51-6.765-8.687
					c-4.657-2.854-9.37-5.61-13.933-8.615C1183.798,581.205,1180.789,586.399,1184.004,588.516L1184.004,588.516z"/>
			</g>
		</g>
		<g>
			<g>
				<path style="fill:#F2F25E;" d="M1259.35,634.594c2.646-0.774,5.351-1.115,8.097-0.685c1.265,0.198,5.394,0.869,5.63,2.623
					c1-1,2-2,3-3c-4.434-0.236-5.823-4.136-9.527-5.653c-2.958-1.211-5.69-0.323-7.557,2.161c-2.321,3.087,2.886,6.081,5.181,3.028
					c-0.243,0.323,4.279,4.043,4.861,4.408c2.16,1.354,4.52,1.921,7.043,2.055c1.467,0.078,3.208-1.447,3-3
					c-1.26-9.387-14.224-9.801-21.321-7.724C1254.057,629.891,1255.631,635.683,1259.35,634.594L1259.35,634.594z"/>
			</g>
		</g>
		<g>
			<g>
				<path style="fill:#F2F25E;" d="M1261.543,653.398c1.19-1.614,3.198-2.388,5.039-2.979c0.639-0.205,1.613-0.332,2.204-0.642
					c0.811,0.07,1.005-0.219,0.58-0.868c-0.338,0.282-0.727,0.45-1.168,0.505c-1.577,0.483-3.283,0.359-4.865,0.873
					c-1.857,0.603-3.178,1.649-4.309,3.214c-2.265,3.134,2.938,6.132,5.181,3.028c0.705-0.976,3.07-0.907,4.126-1.07
					c1.712-0.265,3.443-0.718,4.787-1.881c2.328-2.015,3.188-5.671,1.121-8.178c-2.353-2.854-6.259-1.727-9.252-0.767
					c-3.493,1.121-6.422,2.749-8.624,5.737C1254.069,653.48,1259.274,656.476,1261.543,653.398L1261.543,653.398z"/>
			</g>
		</g>
		<g>
			<g>
				<path style="fill:#F2F25E;" d="M1264,675.202c1.069-2.658,3.916-4.424,5.625-6.649c1.976-2.573,2.739-5.195,2.302-8.39
					c-0.319-2.333-3.574-2.745-5.014-1.324c-2.056,2.029-4.023,4.135-5.909,6.323c-2.509,2.912,1.717,7.174,4.243,4.243
					c1.886-2.188,3.853-4.293,5.909-6.323c-1.671-0.441-3.343-0.883-5.014-1.324c0.338,2.475-2.716,4.716-4.213,6.26
					c-1.626,1.678-2.841,3.42-3.713,5.588C1256.774,677.188,1262.575,678.745,1264,675.202L1264,675.202z"/>
			</g>
		</g>
		<g>
			<g>
				<path style="fill:#F2F25E;" d="M1286.052,680.025c1.921-2.47,4.102-4.651,6.571-6.574c1.016-0.791,1.098-2.604,0.469-3.635
					c-4.691-7.695-13.587,7.431-15.435,10.905c-1.813,3.407,3.365,6.442,5.181,3.028c1.088-2.045,2.295-4.025,3.686-5.881
					c0.651-0.868,1.347-1.702,2.07-2.51c0.324-0.362,0.647-0.733,0.993-1.074c1.585-1.558-0.331,0.766-1.676-1.44
					c0.156-1.212,0.313-2.424,0.469-3.635c-2.469,1.922-4.65,4.104-6.571,6.574c-1.002,1.288-1.233,2.983,0,4.243
					C1282.834,681.072,1285.058,681.301,1286.052,680.025L1286.052,680.025z"/>
			</g>
		</g>
	</g>
	<g>
		<g>
			<path style="fill:#FFFFFF;" d="M951.319,654.549c7.661,0,7.674-11.906,0-11.906C943.658,642.643,943.645,654.549,951.319,654.549
				L951.319,654.549z"/>
		</g>
	</g>
	<g>
		<g>
			<path style="fill:#FFFFFF;" d="M919.915,620.847c7.661,0,7.674-11.906,0-11.906C912.254,608.94,912.241,620.847,919.915,620.847
				L919.915,620.847z"/>
		</g>
	</g>
	<g>
		<g>
			<path style="fill:#FFFFFF;" d="M912.255,595.57c7.661,0,7.674-11.906,0-11.906C904.594,583.664,904.582,595.57,912.255,595.57
				L912.255,595.57z"/>
		</g>
	</g>
	<g>
		<g>
			<path style="fill:#FFFFFF;" d="M895.404,581.783c7.661,0,7.674-11.906,0-11.906C887.743,569.877,887.73,581.783,895.404,581.783
				L895.404,581.783z"/>
		</g>
	</g>
	<g>
		<g>
			<path style="fill:#FFFFFF;" d="M893.872,539.655c7.661,0,7.674-11.906,0-11.906C886.211,527.749,886.199,539.655,893.872,539.655
				L893.872,539.655z"/>
		</g>
	</g>
	<g>
		<g>
			<path style="fill:#FFFFFF;" d="M897.702,512.847c7.661,0,7.674-11.906,0-11.906C890.041,500.94,890.028,512.847,897.702,512.847
				L897.702,512.847z"/>
		</g>
	</g>
	<g>
		<g>
			<path style="fill:#FFFFFF;" d="M897.702,500.591c7.661,0,7.674-11.906,0-11.906C890.041,488.685,890.028,500.591,897.702,500.591
				L897.702,500.591z"/>
		</g>
	</g>
	<g>
		<g>
			<path style="fill:#FFFFFF;" d="M896.936,395.655c7.661,0,7.674-11.906,0-11.906C889.275,383.749,889.262,395.655,896.936,395.655
				L896.936,395.655z"/>
		</g>
	</g>
	<g>
		<g>
			<path style="fill:#FFFFFF;" d="M907.66,371.145c7.661,0,7.674-11.906,0-11.906C899.998,359.238,899.986,371.145,907.66,371.145
				L907.66,371.145z"/>
		</g>
	</g>
	<g>
		<g>
			<path style="fill:#FFFFFF;" d="M921.447,349.698c7.661,0,7.674-11.906,0-11.906C913.786,337.792,913.773,349.698,921.447,349.698
				L921.447,349.698z"/>
		</g>
	</g>
	<g>
		<g>
			<path style="fill:#FFFFFF;" d="M949.021,330.549c7.661,0,7.674-11.906,0-11.906C941.36,318.643,941.347,330.549,949.021,330.549
				L949.021,330.549z"/>
		</g>
	</g>
	<g>
		<g>
			<path style="fill:#FFFFFF;" d="M968.17,314.464c7.661,0,7.674-11.906,0-11.906C960.509,302.558,960.496,314.464,968.17,314.464
				L968.17,314.464z"/>
		</g>
	</g>
	<g>
		<g>
			<path style="fill:#FFFFFF;" d="M998.809,311.4c7.661,0,7.674-11.906,0-11.906C991.147,299.494,991.135,311.4,998.809,311.4
				L998.809,311.4z"/>
		</g>
	</g>
	<g>
		<g>
			<path style="fill:#FFFFFF;" d="M1021.021,331.315c7.661,0,7.674-11.906,0-11.906
				C1013.36,319.409,1013.347,331.315,1021.021,331.315L1021.021,331.315z"/>
		</g>
	</g>
	<g>
		<g>
			<path style="fill:#FFFFFF;" d="M1045.532,370.379c7.661,0,7.674-11.906,0-11.906
				C1037.871,358.472,1037.858,370.379,1045.532,370.379L1045.532,370.379z"/>
		</g>
	</g>
	<g>
		<g>
			<path style="fill:#FFFFFF;" d="M1069.277,348.932c7.661,0,7.674-11.906,0-11.906
				C1061.615,337.026,1061.603,348.932,1069.277,348.932L1069.277,348.932z"/>
		</g>
	</g>
	<g>
		<g>
			<path style="fill:#FFFFFF;" d="M1094.553,325.953c7.661,0,7.674-11.906,0-11.906
				C1086.892,314.047,1086.879,325.953,1094.553,325.953L1094.553,325.953z"/>
		</g>
	</g>
	<g>
		<g>
			<path style="fill:#FFFFFF;" d="M1122.128,335.145c7.661,0,7.674-11.906,0-11.906
				C1114.467,323.238,1114.454,335.145,1122.128,335.145L1122.128,335.145z"/>
		</g>
	</g>
	<g>
		<g>
			<path style="fill:#FFFFFF;" d="M1138.213,330.549c7.661,0,7.674-11.906,0-11.906
				C1130.552,318.643,1130.539,330.549,1138.213,330.549L1138.213,330.549z"/>
		</g>
	</g>
	<g>
		<g>
			<path style="fill:#FFFFFF;" d="M1159.66,504.421c7.661,0,7.674-11.906,0-11.906
				C1151.998,492.515,1151.986,504.421,1159.66,504.421L1159.66,504.421z"/>
		</g>
	</g>
	<g>
		<g>
			<path style="fill:#FFFFFF;" d="M1169.617,457.698c7.661,0,7.674-11.906,0-11.906
				C1161.956,445.792,1161.943,457.698,1169.617,457.698L1169.617,457.698z"/>
		</g>
	</g>
	<g>
		<g>
			<path style="fill:#FFFFFF;" d="M1181.106,423.996c7.661,0,7.674-11.906,0-11.906
				C1173.445,412.089,1173.433,423.996,1181.106,423.996L1181.106,423.996z"/>
		</g>
	</g>
	<g>
		<g>
			<path style="fill:#FFFFFF;" d="M1210.213,428.591c7.661,0,7.674-11.906,0-11.906
				C1202.552,416.685,1202.539,428.591,1210.213,428.591L1210.213,428.591z"/>
		</g>
	</g>
	<g>
		<g>
			<path style="fill:#FFFFFF;" d="M1250.808,429.706c-0.255,0-0.511,0-0.766,0c-0.82-0.031-1.584,0.14-2.294,0.513
				c-0.738,0.24-1.377,0.65-1.916,1.231c-0.58,0.539-0.991,1.178-1.231,1.916c-0.373,0.709-0.544,1.474-0.513,2.294
				c0.071,0.528,0.142,1.055,0.213,1.583c0.283,1.008,0.793,1.884,1.531,2.627c0.402,0.31,0.803,0.621,1.205,0.931
				c0.929,0.539,1.93,0.809,3.005,0.813c0.255,0,0.511,0,0.766,0c0.82,0.031,1.584-0.14,2.294-0.513
				c0.738-0.24,1.377-0.65,1.916-1.231c0.58-0.539,0.991-1.178,1.231-1.916c0.373-0.709,0.544-1.474,0.513-2.294
				c-0.071-0.528-0.142-1.055-0.213-1.583c-0.283-1.008-0.793-1.884-1.531-2.627c-0.402-0.31-0.803-0.621-1.205-0.931
				C1252.885,429.981,1251.883,429.71,1250.808,429.706L1250.808,429.706z"/>
		</g>
	</g>
	<g>
		<g>
			<path style="fill:#FFFFFF;" d="M1263.064,466.889c7.661,0,7.674-11.906,0-11.906
				C1255.403,454.983,1255.39,466.889,1263.064,466.889L1263.064,466.889z"/>
		</g>
	</g>
	<g>
		<g>
			<path style="fill:#FFFFFF;" d="M1008.766,613.187c7.661,0,7.674-11.906,0-11.906
				C1001.105,601.281,1001.092,613.187,1008.766,613.187L1008.766,613.187z"/>
		</g>
	</g>
	<g>
		<g>
			<path style="fill:#FFFFFF;" d="M1012.596,634.634c7.661,0,7.674-11.906,0-11.906
				C1004.935,622.728,1004.922,634.634,1012.596,634.634L1012.596,634.634z"/>
		</g>
	</g>
	<g>
		<g>
			<path style="fill:#FFFFFF;" d="M1023.319,654.549c7.661,0,7.674-11.906,0-11.906
				C1015.658,642.643,1015.645,654.549,1023.319,654.549L1023.319,654.549z"/>
		</g>
	</g>
	<g>
		<g>
			<path style="fill:#FFFFFF;" d="M1040.17,685.953c7.661,0,7.674-11.906,0-11.906
				C1032.509,674.047,1032.496,685.953,1040.17,685.953L1040.17,685.953z"/>
		</g>
	</g>
	<g>
		<g>
			<path style="fill:#FFFFFF;" d="M1053.957,686.719c7.661,0,7.674-11.906,0-11.906
				C1046.296,674.813,1046.284,686.719,1053.957,686.719L1053.957,686.719z"/>
		</g>
	</g>
	<g>
		<g>
			<path style="fill:#FFFFFF;" d="M1061.617,714.294c7.661,0,7.674-11.906,0-11.906
				C1053.956,702.387,1053.943,714.294,1061.617,714.294L1061.617,714.294z"/>
		</g>
	</g>
	<g>
		<g>
			<path style="fill:#FFFFFF;" d="M1194.128,672.932c7.661,0,7.674-11.906,0-11.906
				C1186.467,661.026,1186.454,672.932,1194.128,672.932L1194.128,672.932z"/>
		</g>
	</g>
	<g>
		<g>
			<path style="fill:#FFFFFF;" d="M1210.979,696.677c7.661,0,7.674-11.906,0-11.906
				C1203.318,684.77,1203.305,696.677,1210.979,696.677L1210.979,696.677z"/>
		</g>
	</g>
	<g>
		<g>
			<path style="fill:#FFFFFF;" d="M1200.255,733.443c7.661,0,7.674-11.906,0-11.906
				C1192.594,721.536,1192.582,733.443,1200.255,733.443L1200.255,733.443z"/>
		</g>
	</g>
	<g>
		<g>
			<path style="fill:#FFFFFF;" d="M1245.447,747.996c7.661,0,7.674-11.906,0-11.906
				C1237.786,736.089,1237.773,747.996,1245.447,747.996L1245.447,747.996z"/>
		</g>
	</g>
</g>
</svg>
