<?xml version="1.0" encoding="utf-8"?>
<!-- Generator: Adobe Illustrator 23.1.0, SVG Export Plug-In . SVG Version: 6.00 Build 0)  -->
<svg version="1.1" id="Layer_1" xmlns="http://www.w3.org/2000/svg" xmlns:xlink="http://www.w3.org/1999/xlink" x="0px" y="0px"
	 viewBox="0 0 1620 1080" style="enable-background:new 0 0 1620 1080;" xml:space="preserve">
<g>
	<rect id="rect2160" x="-0.3" y="891" style="fill:#009966;" width="1620.3" height="189"/>
	<rect id="rect3198" x="-0.3" y="-0.2" style="fill:#009966;" width="1620.3" height="189"/>
	<rect id="rect3200" x="-0.3" y="188.9" width="1620.3" height="54"/>
	<rect id="rect4171" x="-0.3" y="837" width="1620.3" height="54"/>
	<rect id="rect4173" x="-0.3" y="242.9" style="fill:#000099;" width="1620.3" height="594.1"/>
	<path id="path5162" style="fill:#FFFFFF;" d="M782.8,256.4c-270,81-256.5,283.5-170.1,469.9l-102.6,97.2l186.3-67.5V507.5
		c59.4-89.1,167.4-89.1,226.8,0v248.4l186.3,67.5L1007,726.2c86.4-186.3,99.9-388.9-170.1-469.9l-27,116.1L782.8,256.4z"/>
	<path id="path6829" style="fill:#FFFFFF;" d="M912.5,531.9l-63,48.5l23.9,78.3l-63.5-48.1l-63.4,48l23.8-78.2l-63.1-48.6l78.2-0.3
		l24.4-78l24.5,78.1L912.5,531.9z"/>
</g>
</svg>
