<?xml version="1.0" encoding="utf-8"?>
<!-- Generator: Adobe Illustrator 23.1.0, SVG Export Plug-In . SVG Version: 6.00 Build 0)  -->
<svg version="1.1" id="Layer_1" xmlns="http://www.w3.org/2000/svg" xmlns:xlink="http://www.w3.org/1999/xlink" x="0px" y="0px"
	 viewBox="0 0 1920 1080" style="enable-background:new 0 0 1920 1080;" xml:space="preserve">
<g>
	<polygon style="fill:#A0D195;" points="179.023,132.961 109.023,137.961 105.023,163.961 112.023,173.961 117.023,213.961 
		123.023,228.961 138.023,217.961 145.023,216.961 144.023,192.961 164.023,191.961 169.023,198.961 170.023,216.961 
		186.023,215.961 	"/>
	<polygon style="fill:#A0D195;" points="189.023,216.961 192.023,258.961 202.023,263.961 208.023,280.961 217.023,287.961 
		248.023,266.961 244.023,214.961 	"/>
	<polygon style="fill:#A0D195;" points="335.023,219.961 336.023,237.961 348.023,237.961 348.023,220.961 	"/>
	<polygon style="fill:#A0D195;" points="398.023,154.961 399.023,163.961 411.023,163.961 	"/>
	<polygon style="fill:#A0D195;" points="306.023,363.961 290.023,362.961 284.023,364.961 285.023,384.961 291.023,387.961 
		294.023,381.961 306.023,381.961 	"/>
	<path style="fill:#A0D195;" d="M441.023,272.961c0,1,1,10,1,10l-3,6l5,4l1-6l20-1l1-8h-13l-1-7L441.023,272.961z"/>
	<polygon style="fill:#A0D195;" points="393.023,358.961 388.023,363.961 388.023,366.961 395.023,366.961 396.023,374.961 
		408.023,374.961 408.023,357.961 	"/>
	<polygon style="fill:#A0D195;" points="333.023,492.961 325.023,492.961 326.023,496.961 321.023,497.961 324.023,547.961 
		370.023,543.961 374.023,541.961 374.023,527.961 381.023,526.961 379.023,494.961 341.023,488.961 342.023,499.961 
		335.023,500.961 	"/>
	<polygon style="fill:#A0D195;" points="166.023,451.961 179.023,447.961 180.023,454.961 178.023,461.961 167.023,461.961 	"/>
	<polygon style="fill:#A0D195;" points="161.023,559.961 169.023,561.961 202.023,551.961 214.023,561.961 234.023,557.961 
		231.023,548.961 235.023,545.961 264.023,538.961 266.023,541.961 268.023,541.961 269.023,534.961 183.023,553.961 	"/>
	<polygon style="fill:#A0D195;" points="187.023,640.961 244.023,638.961 240.023,682.961 271.023,658.961 273.023,697.961 
		270.023,708.961 249.023,728.961 246.023,745.961 242.023,748.961 244.023,756.961 237.023,760.961 232.023,745.961 
		219.023,741.961 	"/>
	<polygon style="fill:#A0D195;" points="337.023,746.961 309.023,767.961 309.023,776.961 302.023,795.961 339.023,793.961 
		353.023,773.961 375.023,771.961 376.023,762.961 382.023,762.961 381.023,744.961 	"/>
	<polygon style="fill:#A0D195;" points="696.023,718.961 697.023,732.961 712.023,732.961 710.023,718.961 	"/>
	<polygon style="fill:#A0D195;" points="723.023,721.961 726.023,720.961 735.023,730.961 734.023,733.961 724.023,734.961 
		721.023,729.961 	"/>
	<polygon style="fill:#A0D195;" points="657.023,857.961 657.023,870.961 669.023,870.961 668.023,857.961 	"/>
	<polygon style="fill:#A0D195;" points="728.023,847.961 747.023,846.961 747.023,852.961 729.023,853.961 	"/>
	<polygon style="fill:#A0D195;" points="463.023,785.961 468.023,784.961 477.023,796.961 464.023,802.961 	"/>
	<polygon style="fill:#A0D195;" points="707.023,1046.961 725.023,1046.961 724.023,1039.961 741.023,1040.961 741.023,1036.961 
		756.023,1036.961 762.023,1036.961 764.023,1070.961 760.023,1074.961 722.023,1076.961 717.023,1078.961 709.023,1078.961 	"/>
	<polygon style="fill:#A0D195;" points="771.023,977.961 777.023,977.961 776.023,973.961 788.023,979.961 789.023,992.961 
		773.023,992.961 	"/>
	<path style="fill:#A0D195;" d="M913.023,975.961l3,1l5,6l2-3l13,7v25l-2,3c0,0-17,0-18,0s-11-9-11-9l7-10l-2-7l4-5L913.023,975.961
		z"/>
	<polygon style="fill:#A0D195;" points="809.023,762.961 809.023,772.961 825.023,771.961 823.023,761.961 	"/>
	<path style="fill:#A0D195;" d="M985.023,795.961c1,0,28,0,28,0l1,18l4-2l15,17l-2,9l-42,4L985.023,795.961z"/>
	<polygon style="fill:#A0D195;" points="1061.023,762.961 1071.023,761.961 1076.023,756.961 1085.023,766.961 1075.023,774.961 
		1070.023,775.961 1069.023,770.961 1062.023,770.961 	"/>
	<polygon style="fill:#A0D195;" points="1035.023,646.961 1044.023,645.961 1045.023,667.961 1036.023,667.961 	"/>
	<polygon style="fill:#A0D195;" points="1279.023,514.961 1280.023,522.961 1258.023,520.961 1259.023,531.961 1302.023,528.961 
		1302.023,524.961 	"/>
	<polygon style="fill:#A0D195;" points="1214.023,439.961 1239.023,438.961 1241.023,469.961 1216.023,470.961 	"/>
	<polygon style="fill:#A0D195;" points="1150.023,445.961 1164.023,444.961 1162.023,459.961 1145.023,460.961 1145.023,453.961 
		1151.023,452.961 	"/>
	<polygon style="fill:#A0D195;" points="1117.023,526.961 1121.023,524.961 1122.023,532.961 1125.023,533.961 1126.023,539.961 
		1130.023,540.961 1129.023,545.961 1134.023,545.961 1133.023,553.961 1125.023,554.961 1122.023,539.961 1116.023,540.961 	"/>
	<polygon style="fill:#A0D195;" points="1079.023,69.961 1083.023,67.961 1091.023,69.961 1098.023,66.961 1105.023,82.961 
		1086.023,90.961 	"/>
	<polygon style="fill:#A0D195;" points="991.023,198.961 1008.023,184.961 1022.023,187.961 1038.023,169.961 1050.023,170.961 
		1052.023,171.961 1065.023,168.961 1065.023,164.961 1073.023,162.961 1077.023,163.961 1116.023,142.961 1136.023,132.961 
		1148.023,121.961 1153.023,118.961 1155.023,123.961 1146.023,133.961 1137.023,153.961 1141.023,158.961 1119.023,168.961 
		1112.023,157.961 1098.023,168.961 1087.023,169.961 1082.023,171.961 1084.023,173.961 1087.023,181.961 1075.023,190.961 
		1069.023,185.961 1059.023,189.961 1053.023,181.961 1041.023,184.961 1029.023,194.961 1018.023,202.961 1005.662,196.301 
		991.023,200.961 	"/>
	<polygon style="fill:#A0D195;" points="835.023,191.961 866.023,193.961 867.023,205.961 836.023,208.961 	"/>
	<polygon style="fill:#A0D195;" points="686.023,137.961 698.023,136.961 699.023,159.961 688.023,159.961 	"/>
	<polygon style="fill:#A0D195;" points="672.023,197.961 688.023,197.961 690.023,210.961 685.023,210.961 685.023,215.961 
		681.023,216.961 680.023,211.961 674.023,212.961 672.023,206.961 672.023,195.961 	"/>
	<polygon style="fill:#A0D195;" points="309.023,58.961 325.023,71.961 343.023,49.961 328.023,37.961 	"/>
	<polygon style="fill:#A0D195;" points="381.023,52.961 387.023,57.961 404.023,61.961 426.023,73.961 409.023,96.961 
		394.023,81.961 400.023,73.961 381.023,66.961 	"/>
	<polygon style="fill:#A0D195;" points="128.023,29.961 142.023,30.961 147.023,28.961 169.023,28.961 174.023,26.961 
		177.023,54.961 160.023,64.961 154.023,61.961 125.023,59.961 121.023,55.961 122.023,46.961 127.023,27.961 	"/>
	<path style="fill:#A0D195;" d="M1591.023,9.961l75-3l4.574,0.366l20.426,1.634l-6,7l-11-7l6,8l13,3l9,10l-3,19l-1,5l-1,12l-27,14v8
		l-9,11l-2,21l-20,7c0,0-12,11-14,11s-24-12-24-12l-9-15l-1-10l-37-12l-5-14l-2,2l1,15l40,12l11,22l-3,7l6,8l2,2l16-3h7l14-11l17-4
		l15,3l12,4l7,7l7,16l-9,13l8,10l6,9l-3,3l-3-3l-13,12l-4,12l-10,2v3l-10-5l-17-13l-14-1l-7-8l-9,7l-11,1l-9-7l-9,4l-16-7l-9-9h-21
		l-11,2l-3,2l-8-4l-7-10l-20-10l-12,4l-7,1l-1-26l26,1l10-2l4-11l-1-23l5,2l11-4v-7l8-10l-3-7l14-1l-6-11l-3-11l10-2v-22l28-5
		l7,25.021l11-8l-4-20.021h9L1591.023,9.961z"/>
	<polygon style="fill:#A0D195;" points="1513.023,180.961 1518.023,181.961 1515.023,189.961 1532.023,197.961 1537.023,187.961 
		1533.023,183.961 1558.023,180.961 1568.023,190.961 1587.023,198.961 1595.023,193.961 1601.023,198.961 1617.023,198.961 
		1623.023,194.961 1626.023,199.961 1631.023,199.961 1634.023,287.961 1628.023,284.961 1618.023,284.961 1606.023,265.961 
		1598.023,258.961 1579.023,258.961 1561.023,249.961 1556.023,237.961 1548.023,231.961 1537.023,208.961 1526.023,203.961 
		1514.023,198.961 	"/>
	<polygon style="fill:#A0D195;" points="1547.023,233.961 1554.023,239.961 1557.023,244.961 1559.023,250.961 1577.023,260.961 
		1597.023,260.961 1606.023,268.961 1607.023,290.961 1563.023,292.961 1562.023,296.961 1609.023,292.961 1609.023,273.961 
		1616.023,286.961 1620.023,286.961 1628.023,287.961 1651.023,295.961 1656.023,304.961 1653.023,316.961 1654.023,333.961 
		1661.023,346.961 1662.023,355.961 1651.023,365.961 1641.023,366.961 1630.023,384.961 1603.023,387.961 1596.023,392.961 
		1590.023,388.961 1593.023,382.961 1580.023,375.961 1576.023,376.961 1566.023,372.961 1567.023,375.961 1558.023,369.961 
		1556.023,365.961 1551.023,367.961 1545.023,363.961 1539.023,359.961 1534.023,366.961 1528.023,365.961 1522.023,356.961 
		1506.023,345.961 1504.023,335.961 1497.023,327.961 1491.023,330.961 1486.023,340.961 1453.023,324.961 1454.023,320.961 
		1450.023,320.961 1434.023,318.961 1432.023,305.961 1407.023,305.961 1405.023,241.961 1409.023,244.961 1416.023,250.961 
		1417.023,255.961 1435.023,260.961 1443.023,258.961 1448.023,263.961 1447.023,268.961 1458.023,276.961 1466.023,288.961 
		1474.641,304.94 1481.896,300.748 1493.023,292.961 1500.023,284.961 1514.023,263.961 	"/>
	<polygon style="fill:#A0D195;" points="1192.023,321.961 1204.023,321.961 1211.023,326.961 1223.023,330.961 1235.023,329.961 
		1236.023,326.961 1240.023,326.961 1242.023,331.961 1244.023,332.961 1247.023,337.961 1238.023,337.961 1239.023,351.961 
		1228.023,351.961 1226.023,353.961 1223.023,353.961 1220.023,333.961 1215.023,330.961 1211.023,328.961 1205.023,324.961 
		1200.023,324.961 	"/>
	<polygon style="fill:#A0D195;" points="1088.023,292.961 1088.023,301.961 1107.023,300.961 1107.023,291.961 	"/>
	<polygon style="fill:#A0D195;" points="1365.023,65.961 1368.023,73.961 1379.023,64.961 1394.023,57.961 1398.023,63.961 
		1409.023,60.961 1414.023,77.961 1412.023,82.961 1387.023,92.961 1373.023,83.961 1367.023,81.961 1365.023,73.961 
		1365.023,63.961 	"/>
	<polygon style="fill:#A0D195;" points="1341.023,415.961 1342.023,428.961 1349.023,427.961 1356.023,421.961 1359.023,415.961 	
		"/>
	<polygon style="fill:#A0D195;" points="1512.023,494.961 1505.023,502.961 1501.023,502.961 1502.023,511.961 1494.023,513.961 
		1493.023,509.961 1474.023,510.961 1472.023,506.961 1465.023,512.961 1462.023,511.961 1456.023,524.961 1449.023,532.961 
		1453.023,537.961 1457.023,556.961 1457.023,563.961 1461.023,573.961 1501.023,573.961 1505.023,578.961 1507.023,618.961 
		1517.023,628.961 1535.023,631.961 1537.023,568.961 1539.023,561.961 1543.023,513.961 1537.023,512.961 1513.023,512.961 	"/>
	<polygon style="fill:#A0D195;" points="1547.023,510.961 1582.023,508.961 1594.023,513.961 1594.023,521.961 1621.023,536.961 
		1631.023,546.961 1626.023,608.961 1620.023,606.961 1581.023,603.961 1589.023,539.961 1574.023,536.961 1562.023,525.961 
		1556.023,516.961 1545.023,510.961 	"/>
	<polygon style="fill:#A0D195;" points="1596.023,512.961 1663.023,540.961 1667.023,544.961 1668.023,546.961 1676.023,550.961 
		1679.023,554.961 1678.023,571.961 1649.023,560.961 1627.023,537.961 1596.023,520.961 	"/>
	<path style="fill:#A0D195;" d="M1291.023,700.961c1,0,40,19,40,19l17-23l9,4l32-15l12,2l16-5l4,1l3,8l9,5l5,12l6-1l13,6l24,9l3,8
		l33,15l15,13l8,2l15-3l-2,7l8,12l-5,15l-9,1v4l-13,9l-2,3l5,5l15,15l1,5l-22,23l-16-2l-3,12l4,21l8,5l-10,4l-2,6l2,6l-6,31l10,11
		l-11,4l-14-4l-4,3l12,15l-8,14l8,9l9,13l-12-5l-8,8l-6-4l-3,4l-4,9l11,7l-7,10l-8-5l-7,5l-17-7l-2-11l1-13l-8-13l2,11v7l-4,2l-4-31
		l-11-15l-43-10l-12-19l-9-30l-18-15c0,0-3-19-4-20s-24-37-24-37l18-11l-6-23l4-5l-12-19l3-10l-11-18l-10-6l11,2l7-7l-8-7l-6,6
		l-10-6l-7-20L1291.023,700.961z"/>
	<path style="fill:#A0D195;" d="M1134.023,811.961c1-2,5-2,7-3s16,16,16,16h8v8l-4,2l-4,12l-6-2L1134.023,811.961z"/>
	<polygon style="fill:#A0D195;" points="1157.023,781.961 1178.023,789.961 1184.023,788.961 1184.023,783.961 1205.023,782.961 
		1218.023,770.961 1211.023,757.961 1231.023,766.961 1237.023,765.961 1246.023,756.961 1243.023,751.961 1249.023,749.961 
		1258.023,751.961 1252.023,763.961 1265.023,771.961 1266.023,776.961 1244.023,776.961 1233.023,788.961 1230.023,801.961 
		1223.023,802.961 1217.023,790.961 1199.023,802.961 1192.023,805.961 1180.023,821.961 1177.023,817.961 1179.023,806.961 
		1175.023,798.961 1168.023,791.961 1156.023,786.961 	"/>
</g>
</svg>
