<?xml version="1.0" encoding="utf-8"?>
<!-- Generator: Adobe Illustrator 23.1.0, SVG Export Plug-In . SVG Version: 6.00 Build 0)  -->
<svg version="1.1" id="Layer_1" xmlns="http://www.w3.org/2000/svg" xmlns:xlink="http://www.w3.org/1999/xlink" x="0px" y="0px"
	 viewBox="0 0 1920 1252.1" style="enable-background:new 0 0 1920 1252.1;" xml:space="preserve">
<polygon style="fill:#A0D195;" points="732,395 663,465 677,587 674,616 656,633 656,654 676,681 688,684 699,734 969.4,719.3 
	966,624 913.7,579.4 893,469 894,444 876,415 796.3,390.9 "/>
<g>
	<polygon style="fill:#ECEDDF;" points="717,429 774,414 778,424 805,417 820,458 847,440 851,446 871,434 878,443 866,451 872,458 
		857,470 859,475 833,490 830,486 823,490 819,486 811,473 816,468 769,480 774,497 781,474 817,488 812,508 776,497 761,500 
		755,485 743,487 741,483 703,492 699,481 707,478 702,457 712,455 708,445 721,441 	"/>
	<polygon style="fill:#ECEDDF;" points="731,576 881,568 882,589 888,598 894,598 895,610 899,611 900,620 910,620 910,631 918,631 
		921,654 925,654 926,675 737,688 	"/>
	<path style="fill:#ECEDDF;" d="M673,526l6-2l3,2l12-2l11,2l8-3l12,22l14,1l16,5c0,0,16,5,17,4s28-3,28-3l10-4l8-1l2-10l13,3l16-6
		l19,12l10,9l1,10l-151,8l-48-23l-8.8-11.5L673,526z"/>
</g>
<g>
	<line style="fill:none;stroke:#FFFFFF;stroke-width:7;stroke-miterlimit:10;" x1="737.5" y1="731.5" x2="697.7" y2="735.1"/>
	<polygon style="fill:none;stroke:#FFFFFF;stroke-width:7;stroke-miterlimit:10;" points="733,392 661,465 670,543 678,552 722,573 
		728,580 733,688 736,693 738,732 967,719 971,716 966,624 960,619 915,581 893,469 894,444 876,415 793,389 	"/>
	<polyline style="fill:none;stroke:#FFFFFF;stroke-width:7;stroke-miterlimit:10;" points="250.5,94.5 279.5,157.5 661,468 	"/>
	<polyline style="fill:none;stroke:#FFFFFF;stroke-width:7;stroke-miterlimit:10;" points="732.5,391.5 715.5,379.5 695.5,23.6 	"/>
	<polyline style="fill:none;stroke:#FFFFFF;stroke-width:7;stroke-miterlimit:10;" points="792.5,388.5 832.5,346.5 825.5,207.6 	
		"/>
	<polyline style="fill:none;stroke:#FFFFFF;stroke-width:7;stroke-miterlimit:10;" points="1079.5,144.6 954.5,261.5 890.5,321.5 
		872.5,345.5 869.8,413.1 	"/>
	<polyline style="fill:none;stroke:#FFFFFF;stroke-width:7;stroke-miterlimit:10;" points="268.5,670.5 366.5,666.5 383.5,661.5 
		482.5,655.5 499.5,660.5 616.5,652.5 642.5,650.5 702.5,635.5 730.4,632 	"/>
	<polyline style="fill:none;stroke:#FFFFFF;stroke-width:7;stroke-miterlimit:10;" points="1389.5,37.6 1306.5,153.5 1234.5,212.5 
		1180.5,313.5 1067.5,370.5 960.5,523.5 910,555.6 	"/>
	<line style="fill:none;stroke:#FFFFFF;stroke-width:7;stroke-miterlimit:10;" x1="933.5" y1="145.6" x2="941.5" y2="272.5"/>
	<path style="fill:none;stroke:#FFFFFF;stroke-width:7;stroke-miterlimit:10;" d="M939.5,252.5l20,16l48,50l25,19l35,33l32,535
		l-631,38c0-3,95-143,95-143l90-162l10.5-14.7l12.3-22.5l-6.8-58.8"/>
	<polyline style="fill:none;stroke:#FFFFFF;stroke-width:7;stroke-miterlimit:10;" points="617.5,145.6 626.5,257.5 623.5,287.5 
		613.5,305.5 594.5,381.5 590.5,409.8 584.5,463.5 578.5,491.5 612.5,572.5 647.5,1155.6 	"/>
	<polyline style="fill:none;stroke:#FFFFFF;stroke-width:7;stroke-miterlimit:10;" points="490.4,329.2 497.5,432.5 470.5,507.5 
		476.5,596.5 497.5,596.5 524.5,1064.6 	"/>
	<polyline style="fill:none;stroke:#FFFFFF;stroke-width:7;stroke-miterlimit:10;" points="236.5,173.6 252.5,448.5 240.5,527.5 
		271.5,607.5 270.5,669.5 275.5,814.5 271.5,832.5 249.5,851.5 248.5,866.5 262.5,888.5 265.5,898.5 267.5,973.5 287.5,1006.5 
		391.5,1002.5 404.5,996.5 653.5,798.5 699.5,734 732.5,687.5 	"/>
	<line style="fill:none;stroke:#FFFFFF;stroke-width:7;stroke-miterlimit:10;" x1="298.5" y1="1217.5" x2="287.5" y2="1006.5"/>
	<path style="fill:none;stroke:#FFFFFF;stroke-width:7;stroke-miterlimit:10;" d="M1234.5,210.5c0,0,135-4,134-4s19,10,19,10l26,2
		l14-8l49-51"/>
	<path style="fill:none;stroke:#FFFFFF;stroke-width:7;stroke-miterlimit:10;" d="M1099.5,905.5l23,14l14,25l5,24l9,11l14,2l7-2
		c0,0,27-20,26-20s8-6,8-6l42-19h18l13,7l19,15l8,10l5,17l17,25l16,8l10,7l6,11l3,25l17,19l23,3l18,6l8,10l3,19l2,18l9,11l17,11l8,5
		l5,12l10,8l6,1l18,1l14,1l13,7l20,12l9,8l9,2l14-2l10-5l24-12l19-8l24-15l22-15l16-3l22,4l21,14l35,14l14,11l19,28"/>
</g>
<g>
	<path style="fill:#ECEDDF;" d="M929,484"/>
	<polyline style="fill:none;stroke:#FFFFFF;stroke-width:3;stroke-miterlimit:10;" points="729,575 894,565 910,555.6 	"/>
	<polyline style="fill:none;stroke:#FFFFFF;stroke-width:3;stroke-miterlimit:10;" points="768,282 777.4,388.9 775,411 788,473 
		801.9,482.3 802,511 818,725 806,746 787,768 504.7,941.9 366,1028 334,1036 238,1041 	"/>
	<path style="fill:#E6E2D4;" d="M169,618"/>
	<polyline style="fill:none;stroke:#FFFFFF;stroke-width:3;stroke-miterlimit:10;" points="881.5,588.5 726.5,596.5 676.5,586.5 
		440.5,595.5 402.5,616.5 378.5,613.5 340.5,607.5 174.5,613.5 	"/>
	<polyline style="fill:none;stroke:#FFFFFF;stroke-width:3;stroke-miterlimit:10;" points="1266.5,555.6 960.5,572.5 936.7,598.3 
		887.5,597.5 732.5,608.5 	"/>
	<polyline style="fill:none;stroke:#FFFFFF;stroke-width:3;stroke-miterlimit:10;" points="1311.5,592.5 1272.5,593.5 1254.5,602.5 
		967.5,620.5 942.5,619.5 735.5,632 	"/>
	<line style="fill:none;stroke:#FFFFFF;stroke-width:3;stroke-miterlimit:10;" x1="1340.5" y1="500.5" x2="960.5" y2="523.5"/>
	<path style="fill:none;stroke:#FFFFFF;stroke-width:3;stroke-miterlimit:10;" d="M503.5,739.5c3,0,161-7,164-9s23-1,26-1s6,4,6,4"
		/>
	<line style="fill:none;stroke:#FFFFFF;stroke-width:3;stroke-miterlimit:10;" x1="843.8" y1="566.6" x2="881.5" y2="1128.5"/>
	<polyline style="fill:none;stroke:#FFFFFF;stroke-width:3;stroke-miterlimit:10;" points="881,568 882.6,589.2 888,598 
		898.5,775.5 902.5,779.5 915.5,953.6 	"/>
	<line style="fill:none;stroke:#FFFFFF;stroke-width:3;stroke-miterlimit:10;" x1="969.4" y1="719.3" x2="989.5" y2="1013.6"/>
	<line style="fill:none;stroke:#FFFFFF;stroke-width:3;stroke-miterlimit:10;" x1="970.5" y1="718.5" x2="1177.5" y2="705.6"/>
	<line style="fill:none;stroke:#FFFFFF;stroke-width:3;stroke-miterlimit:10;" x1="736.5" y1="687.5" x2="925.5" y2="676.5"/>
	<path style="fill:none;stroke:#FFFFFF;stroke-width:3;stroke-miterlimit:10;" d="M736,665.7c2.5-0.1,30.5-2.1,30.5-2.1l5,4l5-3
		l-1-12h-8l1,11"/>
	<line style="fill:none;stroke:#FFFFFF;stroke-width:3;stroke-miterlimit:10;" x1="778.5" y1="663.5" x2="893.5" y2="655.5"/>
	<line style="fill:none;stroke:#FFFFFF;stroke-width:3;stroke-miterlimit:10;" x1="737.5" y1="676.5" x2="892" y2="666.4"/>
	<line style="fill:none;stroke:#FFFFFF;stroke-width:3;stroke-miterlimit:10;" x1="736.5" y1="654.5" x2="890.5" y2="645.2"/>
	<line style="fill:none;stroke:#FFFFFF;stroke-width:3;stroke-miterlimit:10;" x1="733.5" y1="619.2" x2="887.5" y2="610.5"/>
	<path style="fill:none;stroke:#FFFFFF;stroke-width:3;stroke-miterlimit:10;" d="M769,606.4c-0.5,1.1,3.5,45.1,3.5,45.1"/>
	<polyline style="fill:none;stroke:#FFFFFF;stroke-width:3;stroke-miterlimit:10;" points="768.5,593.5 764.5,519.5 768.5,507.5 
		767.4,498.4 734.5,395 489.5,213.5 	"/>
	<polyline style="fill:none;stroke:#FFFFFF;stroke-width:3;stroke-miterlimit:10;" points="654.5,468.5 634.5,473.5 585.5,431.5 
		212.5,453.5 	"/>
	<polyline style="fill:none;stroke:#FFFFFF;stroke-width:3;stroke-miterlimit:10;" points="818.5,486.5 811.5,517.5 796.5,528.5 
		786.5,540.5 783.5,540.5 765.2,539.8 751.5,540.5 698.5,497.5 689.5,474.5 693.5,445.5 708.5,431.5 706.9,423.4 681.5,400.5 
		676.5,392.5 605.8,336.8 	"/>
	<polyline style="fill:none;stroke:#FFFFFF;stroke-width:3;stroke-miterlimit:10;" points="803.4,536 818.5,534.5 832.5,540.5 
		848.5,534.5 840.5,512.5 834.5,512.5 810.5,473.5 821.5,465.5 801.5,404.5 784.5,395.5 773.5,414.5 716.5,429.5 731.5,481.5 
		815.5,458.5 839.5,444.5 858.5,475.5 832.5,490.5 830,486 	"/>
	<polyline style="fill:none;stroke:#FFFFFF;stroke-width:3;stroke-miterlimit:10;" points="892.5,468.5 867,462.4 823,490 	"/>
	<line style="fill:none;stroke:#FFFFFF;stroke-width:3;stroke-miterlimit:10;" x1="737.5" y1="731.5" x2="755.5" y2="1038.5"/>
</g>
</svg>
