<?xml version="1.0" encoding="utf-8"?>
<!-- Generator: Adobe Illustrator 23.1.0, SVG Export Plug-In . SVG Version: 6.00 Build 0)  -->
<svg version="1.1" id="Layer_1" xmlns="http://www.w3.org/2000/svg" xmlns:xlink="http://www.w3.org/1999/xlink" x="0px" y="0px"
	 viewBox="0 0 1920 1080" style="enable-background:new 0 0 1920 1080;" xml:space="preserve">
<polygon style="fill:#A0D195;" points="731.96,275.961 663.023,345.961 677.023,467.961 674.023,496.961 656.023,513.961 
	656.023,534.961 676.023,561.961 688.023,564.961 699.023,614.961 969.406,600.216 966.023,504.961 913.747,460.301 
	893.023,349.961 894.023,324.961 876.023,295.961 796.3,271.876 "/>
<g>
	<polygon style="fill:#ECEDDF;" points="717.023,309.961 774.023,294.961 778.023,304.961 805.023,297.961 820.023,338.961 
		847.023,320.961 851.023,326.961 871.023,314.961 878.023,323.961 866.023,331.961 872.023,338.961 857.023,350.961 
		859.023,355.961 833.023,370.961 830.023,366.961 823.023,370.961 819.023,366.961 811.023,353.961 816.023,348.961 
		769.023,360.961 774.023,377.961 781.023,354.961 817.023,368.961 812.023,388.961 776.023,377.961 761.023,380.961 
		755.023,365.961 743.023,367.961 741.023,363.961 703.023,372.961 699.023,361.961 707.023,358.961 702.023,337.961 
		712.023,335.961 708.023,325.961 721.023,321.961 	"/>
	<polygon style="fill:#ECEDDF;" points="731.023,456.961 881.023,448.961 882.023,469.961 888.023,478.961 894.023,478.961 
		895.023,490.961 899.023,491.961 900.023,500.961 910.023,500.961 910.023,511.961 918.023,511.961 921.023,534.961 
		925.023,534.961 926.023,555.961 737.023,568.961 	"/>
	<path style="fill:#ECEDDF;" d="M673.023,406.961l6-2l3,2l12-2l11,2l8-3l12,22l14,1l16,5c0,0,16,5,17,4s28-3,28-3l10-4l8-1l2-10
		l13,3l16-6l19,12l10,9l1,10l-151,8l-48-23l-8.83-11.511L673.023,406.961z"/>
</g>
<g>
	
		<line style="fill:none;stroke:#FFFFFF;stroke-width:7;stroke-miterlimit:10;" x1="737.523" y1="612.461" x2="697.747" y2="616.046"/>
	<polygon style="fill:none;stroke:#FFFFFF;stroke-width:7;stroke-miterlimit:10;" points="733.023,272.961 661.023,345.961 
		670.023,423.961 678.023,432.961 722.023,453.961 728.023,460.961 733.023,568.961 736.023,573.961 738.023,612.961 
		967.023,599.961 971.023,596.961 966.023,504.961 960.023,499.961 915.023,461.961 893.023,349.961 894.023,324.961 
		876.023,295.961 793.023,269.961 	"/>
	<polyline style="fill:none;stroke:#FFFFFF;stroke-width:7;stroke-miterlimit:10;" points="250.523,-24.539 279.523,38.461 
		661.023,348.982 	"/>
	<polyline style="fill:none;stroke:#FFFFFF;stroke-width:7;stroke-miterlimit:10;" points="732.523,272.461 715.523,260.461 
		695.5,-95.5 	"/>
	<polyline style="fill:none;stroke:#FFFFFF;stroke-width:7;stroke-miterlimit:10;" points="792.523,269.461 832.523,227.461 
		825.5,88.5 	"/>
	<polyline style="fill:none;stroke:#FFFFFF;stroke-width:7;stroke-miterlimit:10;" points="1079.5,25.5 954.523,142.461 
		890.523,202.461 872.523,226.461 869.806,294.013 	"/>
	<polyline style="fill:none;stroke:#FFFFFF;stroke-width:7;stroke-miterlimit:10;" points="268.523,551.461 366.523,547.461 
		383.523,542.461 482.523,536.461 499.523,541.461 616.523,533.461 642.523,531.461 702.523,516.461 730.428,512.893 	"/>
	<polyline style="fill:none;stroke:#FFFFFF;stroke-width:7;stroke-miterlimit:10;" points="1389.5,-81.5 1306.523,34.461 
		1234.523,93.461 1180.523,194.461 1067.523,251.461 960.523,404.461 910.03,436.539 	"/>
	<line style="fill:none;stroke:#FFFFFF;stroke-width:7;stroke-miterlimit:10;" x1="933.5" y1="26.5" x2="941.523" y2="153.461"/>
	<path style="fill:none;stroke:#FFFFFF;stroke-width:7;stroke-miterlimit:10;" d="M939.523,133.461l20,16l48,50l25,19l35,33l32,535
		l-631,38c0-3,95-143,95-143l90-162l10.521-14.734l12.255-22.468l-6.777-58.798"/>
	<polyline style="fill:none;stroke:#FFFFFF;stroke-width:7;stroke-miterlimit:10;" points="617.5,26.5 626.523,138.461 
		623.523,168.461 613.523,186.461 594.523,262.461 590.513,290.769 584.523,344.461 578.523,372.461 612.523,453.461 647.5,1036.5 	
		"/>
	<polyline style="fill:none;stroke:#FFFFFF;stroke-width:7;stroke-miterlimit:10;" points="490.428,210.089 497.523,313.461 
		470.523,388.461 476.523,477.461 497.523,477.461 524.5,945.5 	"/>
	<polyline style="fill:none;stroke:#FFFFFF;stroke-width:7;stroke-miterlimit:10;" points="236.5,54.5 252.523,329.461 
		240.523,408.461 271.523,488.461 270.523,550.461 275.523,695.461 271.523,713.461 249.523,732.461 248.523,747.461 
		262.523,769.461 265.523,779.461 267.523,854.461 287.523,887.461 391.523,883.461 404.523,877.461 653.523,679.461 
		699.45,614.931 732.523,568.461 	"/>
	
		<line style="fill:none;stroke:#FFFFFF;stroke-width:7;stroke-miterlimit:10;" x1="298.523" y1="1098.461" x2="287.523" y2="887.461"/>
	<path style="fill:none;stroke:#FFFFFF;stroke-width:7;stroke-miterlimit:10;" d="M1234.523,91.461c0,0,135-4,134-4s19,10,19,10
		l26,2l14-8l49-51"/>
	<path style="fill:none;stroke:#FFFFFF;stroke-width:7;stroke-miterlimit:10;" d="M1099.523,786.461l23,14l14,25l5,24l9,11l14,2l7-2
		c0,0,27-20,26-20s8-6,8-6l42-19h18l13,7l19,15l8,10l5,17l17,25l16,8l10,7l6,11l3,25l17,19l23,3l18,6l8,10l3,19l2,18l9,11l17,11l8,5
		l5,12l10,8l6,1l18,1l14,1l13,7l20,12l9,8l9,2l14-2l10-5l24-12l19-8l24-15l22-15l16-3l22,4l21,14l35,14l14,11l19,28"/>
</g>
<g>
	<path style="fill:#ECEDDF;" d="M929.023,364.961"/>
	<polyline style="fill:none;stroke:#FFFFFF;stroke-width:3;stroke-miterlimit:10;" points="729.023,455.961 894.023,445.961 
		910.03,436.539 	"/>
	<polyline style="fill:none;stroke:#FFFFFF;stroke-width:3;stroke-miterlimit:10;" points="768.023,162.961 777.406,269.833 
		775.023,291.961 788.023,353.961 801.917,363.28 802.023,391.961 818.023,605.961 806.023,626.961 787.023,648.961 
		504.726,822.855 366.023,908.961 334.023,916.961 238.023,921.961 	"/>
	<path style="fill:#E6E2D4;" d="M169.023,498.961"/>
	<polyline style="fill:none;stroke:#FFFFFF;stroke-width:3;stroke-miterlimit:10;" points="881.523,469.461 726.523,477.461 
		676.523,467.461 440.523,476.461 402.523,497.461 378.523,494.461 340.523,488.461 174.523,494.461 	"/>
	<polyline style="fill:none;stroke:#FFFFFF;stroke-width:3;stroke-miterlimit:10;" points="1266.5,436.5 960.523,453.461 
		936.726,479.195 887.523,478.461 732.47,489.408 	"/>
	<polyline style="fill:none;stroke:#FFFFFF;stroke-width:3;stroke-miterlimit:10;" points="1311.523,473.461 1272.523,474.461 
		1254.523,483.461 967.523,501.461 942.523,500.461 735.534,512.897 	"/>
	
		<line style="fill:none;stroke:#FFFFFF;stroke-width:3;stroke-miterlimit:10;" x1="1340.523" y1="381.461" x2="960.523" y2="404.461"/>
	<path style="fill:none;stroke:#FFFFFF;stroke-width:3;stroke-miterlimit:10;" d="M503.523,620.461c3,0,161-7,164-9s23-1,26-1
		s6,4,6,4"/>
	
		<line style="fill:none;stroke:#FFFFFF;stroke-width:3;stroke-miterlimit:10;" x1="843.789" y1="447.535" x2="881.523" y2="1009.461"/>
	<polyline style="fill:none;stroke:#FFFFFF;stroke-width:3;stroke-miterlimit:10;" points="881.023,448.961 882.598,470.174 
		888.023,478.961 898.523,656.461 902.523,660.461 915.5,834.5 	"/>
	<line style="fill:none;stroke:#FFFFFF;stroke-width:3;stroke-miterlimit:10;" x1="969.406" y1="600.216" x2="989.5" y2="894.5"/>
	<line style="fill:none;stroke:#FFFFFF;stroke-width:3;stroke-miterlimit:10;" x1="970.523" y1="599.461" x2="1177.5" y2="586.5"/>
	
		<line style="fill:none;stroke:#FFFFFF;stroke-width:3;stroke-miterlimit:10;" x1="736.523" y1="568.461" x2="925.523" y2="557.461"/>
	<path style="fill:none;stroke:#FFFFFF;stroke-width:3;stroke-miterlimit:10;" d="M736.045,546.599
		c2.479-0.138,30.479-2.138,30.479-2.138l5,4l5-3l-1-12h-8l1,11"/>
	
		<line style="fill:none;stroke:#FFFFFF;stroke-width:3;stroke-miterlimit:10;" x1="778.523" y1="544.461" x2="893.523" y2="536.461"/>
	
		<line style="fill:none;stroke:#FFFFFF;stroke-width:3;stroke-miterlimit:10;" x1="737.523" y1="557.461" x2="892.045" y2="547.365"/>
	
		<line style="fill:none;stroke:#FFFFFF;stroke-width:3;stroke-miterlimit:10;" x1="736.523" y1="535.461" x2="890.513" y2="526.174"/>
	
		<line style="fill:none;stroke:#FFFFFF;stroke-width:3;stroke-miterlimit:10;" x1="733.492" y1="500.131" x2="887.523" y2="491.461"/>
	<path style="fill:none;stroke:#FFFFFF;stroke-width:3;stroke-miterlimit:10;" d="M768.981,487.365
		c-0.457,1.096,3.543,45.096,3.543,45.096"/>
	<polyline style="fill:none;stroke:#FFFFFF;stroke-width:3;stroke-miterlimit:10;" points="768.523,474.461 764.523,400.461 
		768.523,388.461 767.449,379.365 734.513,275.961 489.523,94.461 	"/>
	<polyline style="fill:none;stroke:#FFFFFF;stroke-width:3;stroke-miterlimit:10;" points="654.523,349.461 634.523,354.461 
		585.523,312.461 212.523,334.461 	"/>
	<polyline style="fill:none;stroke:#FFFFFF;stroke-width:3;stroke-miterlimit:10;" points="818.523,367.461 811.523,398.461 
		796.523,409.461 786.523,421.461 783.523,421.461 765.151,420.727 751.523,421.461 698.523,378.461 689.523,355.461 
		693.523,326.461 708.523,312.461 706.938,304.301 681.523,281.461 676.523,273.461 605.832,217.748 	"/>
	<polyline style="fill:none;stroke:#FFFFFF;stroke-width:3;stroke-miterlimit:10;" points="803.449,416.897 818.523,415.461 
		832.523,421.461 848.523,415.461 840.523,393.461 834.523,393.461 810.523,354.461 821.523,346.461 801.523,285.461 
		784.523,276.461 773.523,295.461 716.523,310.461 731.523,362.461 815.523,339.461 839.523,325.461 858.523,356.461 
		832.523,371.461 830.023,366.961 	"/>
	<polyline style="fill:none;stroke:#FFFFFF;stroke-width:3;stroke-miterlimit:10;" points="892.523,349.461 867.023,343.365 
		823.023,370.961 	"/>
	
		<line style="fill:none;stroke:#FFFFFF;stroke-width:3;stroke-miterlimit:10;" x1="737.523" y1="612.461" x2="755.523" y2="919.461"/>
</g>
</svg>
