<?xml version="1.0" encoding="utf-8"?>
<!-- Generator: Adobe Illustrator 23.1.0, SVG Export Plug-In . SVG Version: 6.00 Build 0)  -->
<svg version="1.1" id="Layer_1" xmlns="http://www.w3.org/2000/svg" xmlns:xlink="http://www.w3.org/1999/xlink" x="0px" y="0px"
	 viewBox="0 0 1920 2160" style="enable-background:new 0 0 1920 2160;" xml:space="preserve">
<style type="text/css">
	.st0{opacity:0.4;fill:#FFEABF;enable-background:new    ;}
	.st1{opacity:0.4;fill:#F8DEFF;enable-background:new    ;}
	.st2{opacity:0.4;fill:#E5FFD1;enable-background:new    ;}
	.st3{opacity:0.4;fill:#D6F5FF;enable-background:new    ;}
	.st4{opacity:0.6;fill:#FFCCCC;enable-background:new    ;}
	.st5{opacity:0.6;fill:#E5FFD1;enable-background:new    ;}
	.st6{opacity:0.8;fill:#D6F5FF;enable-background:new    ;}
	.st7{opacity:0.8;fill:#FFEABF;enable-background:new    ;}
	.st8{fill:#F8DEFF;}
	.st9{fill:#E5FFD1;}
	.st10{fill:#FFCCCC;}
	.st11{fill:#FFEABF;}
	.st12{fill:#D6F5FF;}
	.st13{opacity:0.8;fill:#F8DEFF;enable-background:new    ;}
	.st14{opacity:0.6;fill:#F8DEFF;enable-background:new    ;}
	.st15{opacity:0.6;fill:#D6F5FF;enable-background:new    ;}
</style>
<circle class="st0" cx="342.9" cy="387.9" r="42"/>
<circle class="st1" cx="707.8" cy="217" r="42"/>
<circle class="st2" cx="1192.2" cy="217" r="42"/>
<circle class="st3" cx="1311.6" cy="411.9" r="42"/>
<circle class="st0" cx="1744.2" cy="345.9" r="42"/>
<circle class="st4" cx="630.4" cy="498.4" r="42"/>
<circle class="st5" cx="1460.7" cy="528.9" r="42"/>
<circle class="st6" cx="546.4" cy="675.9" r="42"/>
<circle class="st7" cx="918" cy="633.9" r="42"/>
<circle class="st6" cx="1702.2" cy="680.7" r="42"/>
<circle class="st8" cx="265.5" cy="828.9" r="42"/>
<circle class="st9" cx="726.2" cy="850.3" r="42"/>
<circle class="st10" cx="1515.1" cy="828.9" r="42"/>
<circle class="st10" cx="159.1" cy="997.2" r="42"/>
<circle class="st8" cx="1836" cy="957.5" r="42"/>
<circle class="st11" cx="223.5" cy="1287.8" r="42"/>
<circle class="st12" cx="1072.7" cy="1287.8" r="42"/>
<circle class="st6" cx="62" cy="1398.8" r="42"/>
<circle class="st7" cx="1376.7" cy="1428.5" r="42"/>
<circle class="st13" cx="1702.2" cy="1645.9" r="42"/>
<circle class="st14" cx="409" cy="1581.5" r="42"/>
<circle class="st4" cx="1030.7" cy="1593.8" r="42"/>
<circle class="st15" cx="1515.1" cy="1768.2" r="42"/>
<circle class="st11" cx="546.4" cy="1134.8" r="42"/>
<circle class="st9" cx="1634.6" cy="1134.8" r="42"/>
</svg>
