<?xml version="1.0" encoding="utf-8"?>
<!-- Generator: Adobe Illustrator 23.1.0, SVG Export Plug-In . SVG Version: 6.00 Build 0)  -->
<svg version="1.1" id="Layer_1" xmlns="http://www.w3.org/2000/svg" xmlns:xlink="http://www.w3.org/1999/xlink" x="0px" y="0px"
	 viewBox="0 0 1920 2160" style="enable-background:new 0 0 1920 2160;" xml:space="preserve">
<g style="opacity:0.2;">
	<circle style="fill:#FFFFFF;" cx="116.761" cy="268.833" r="39.41"/>
	<circle style="fill:#FFFFFF;" cx="268.261" cy="268.833" r="39.41"/>
	<circle style="fill:#FFFFFF;" cx="419.761" cy="268.833" r="39.41"/>
	<circle style="fill:#FFFFFF;" cx="571.261" cy="268.833" r="39.41"/>
	<circle style="fill:#FFFFFF;" cx="722.761" cy="268.833" r="39.41"/>
	<circle style="fill:#FFFFFF;" cx="874.261" cy="268.833" r="39.41"/>
	<circle style="fill:#FFFFFF;" cx="1025.761" cy="268.833" r="39.41"/>
	<circle style="fill:#FFFFFF;" cx="1177.26" cy="268.833" r="39.41"/>
	<circle style="fill:#FFFFFF;" cx="1328.76" cy="268.833" r="39.41"/>
	<circle style="fill:#FFFFFF;" cx="1480.26" cy="268.833" r="39.41"/>
	<circle style="fill:#FFFFFF;" cx="1631.76" cy="268.833" r="39.41"/>
	<circle style="fill:#FFFFFF;" cx="1783.26" cy="268.833" r="39.41"/>
</g>
<g style="opacity:0.3;">
	<circle style="fill:#FFFFFF;" cx="116.761" cy="412.381" r="39.41"/>
	<circle style="fill:#FFFFFF;" cx="268.261" cy="412.381" r="39.41"/>
	<circle style="fill:#FFFFFF;" cx="419.761" cy="412.381" r="39.41"/>
	<circle style="fill:#FFFFFF;" cx="571.261" cy="412.381" r="39.41"/>
	<circle style="fill:#FFFFFF;" cx="722.761" cy="412.381" r="39.41"/>
	<circle style="fill:#FFFFFF;" cx="874.261" cy="412.381" r="39.41"/>
	<circle style="fill:#FFFFFF;" cx="1025.761" cy="412.381" r="39.41"/>
	<circle style="fill:#FFFFFF;" cx="1177.26" cy="412.381" r="39.41"/>
	<circle style="fill:#FFFFFF;" cx="1328.76" cy="412.381" r="39.41"/>
	<circle style="fill:#FFFFFF;" cx="1480.26" cy="412.381" r="39.41"/>
	<circle style="fill:#FFFFFF;" cx="1631.76" cy="412.381" r="39.41"/>
	<circle style="fill:#FFFFFF;" cx="1783.26" cy="412.381" r="39.41"/>
</g>
<g style="opacity:0.4;">
	<circle style="fill:#FFFFFF;" cx="116.761" cy="555.929" r="39.41"/>
	<circle style="fill:#FFFFFF;" cx="268.261" cy="555.929" r="39.41"/>
	<circle style="fill:#FFFFFF;" cx="419.761" cy="555.929" r="39.41"/>
	<circle style="fill:#FFFFFF;" cx="571.261" cy="555.929" r="39.41"/>
	<circle style="fill:#FFFFFF;" cx="722.761" cy="555.929" r="39.41"/>
	<circle style="fill:#FFFFFF;" cx="874.261" cy="555.929" r="39.41"/>
	<circle style="fill:#FFFFFF;" cx="1025.761" cy="555.929" r="39.41"/>
	<circle style="fill:#FFFFFF;" cx="1177.26" cy="555.929" r="39.41"/>
	<circle style="fill:#FFFFFF;" cx="1328.76" cy="555.929" r="39.41"/>
	<circle style="fill:#FFFFFF;" cx="1480.26" cy="555.929" r="39.41"/>
	<circle style="fill:#FFFFFF;" cx="1631.76" cy="555.929" r="39.41"/>
	<circle style="fill:#FFFFFF;" cx="1783.26" cy="555.929" r="39.41"/>
</g>
<g style="opacity:0.5;">
	<circle style="fill:#FFFFFF;" cx="116.761" cy="699.478" r="39.41"/>
	<circle style="fill:#FFFFFF;" cx="268.261" cy="699.478" r="39.41"/>
	<circle style="fill:#FFFFFF;" cx="419.761" cy="699.478" r="39.41"/>
	<circle style="fill:#FFFFFF;" cx="571.261" cy="699.478" r="39.41"/>
	<circle style="fill:#FFFFFF;" cx="722.761" cy="699.478" r="39.41"/>
	<circle style="fill:#FFFFFF;" cx="874.261" cy="699.478" r="39.41"/>
	<circle style="fill:#FFFFFF;" cx="1025.761" cy="699.478" r="39.41"/>
	<circle style="fill:#FFFFFF;" cx="1177.26" cy="699.478" r="39.41"/>
	<circle style="fill:#FFFFFF;" cx="1328.76" cy="699.478" r="39.41"/>
	<circle style="fill:#FFFFFF;" cx="1480.26" cy="699.478" r="39.41"/>
	<circle style="fill:#FFFFFF;" cx="1631.76" cy="699.478" r="39.41"/>
	<circle style="fill:#FFFFFF;" cx="1783.26" cy="699.478" r="39.41"/>
</g>
<g style="opacity:0.5;">
	<circle style="fill:#FFFFFF;" cx="116.761" cy="843.026" r="39.41"/>
	<circle style="fill:#FFFFFF;" cx="268.261" cy="843.026" r="39.41"/>
	<circle style="fill:#FFFFFF;" cx="419.761" cy="843.026" r="39.41"/>
	<circle style="fill:#FFFFFF;" cx="571.261" cy="843.026" r="39.41"/>
	<circle style="fill:#FFFFFF;" cx="722.761" cy="843.026" r="39.41"/>
	<circle style="fill:#FFFFFF;" cx="874.261" cy="843.026" r="39.41"/>
	<circle style="fill:#FFFFFF;" cx="1025.761" cy="843.026" r="39.41"/>
	<circle style="fill:#FFFFFF;" cx="1177.26" cy="843.026" r="39.41"/>
	<circle style="fill:#FFFFFF;" cx="1328.76" cy="843.026" r="39.41"/>
	<circle style="fill:#FFFFFF;" cx="1480.26" cy="843.026" r="39.41"/>
	<circle style="fill:#FFFFFF;" cx="1631.76" cy="843.026" r="39.41"/>
	<circle style="fill:#FFFFFF;" cx="1783.26" cy="843.026" r="39.41"/>
</g>
<g style="opacity:0.5;">
	<circle style="fill:#FFFFFF;" cx="116.761" cy="986.574" r="39.41"/>
	<circle style="fill:#FFFFFF;" cx="268.261" cy="986.574" r="39.41"/>
	<circle style="fill:#FFFFFF;" cx="419.761" cy="986.574" r="39.41"/>
	<circle style="fill:#FFFFFF;" cx="571.261" cy="986.574" r="39.41"/>
	<circle style="fill:#FFFFFF;" cx="722.761" cy="986.574" r="39.41"/>
	<circle style="fill:#FFFFFF;" cx="874.261" cy="986.574" r="39.41"/>
	<circle style="fill:#FFFFFF;" cx="1025.761" cy="986.574" r="39.41"/>
	<circle style="fill:#FFFFFF;" cx="1177.26" cy="986.574" r="39.41"/>
	<circle style="fill:#FFFFFF;" cx="1328.76" cy="986.574" r="39.41"/>
	<circle style="fill:#FFFFFF;" cx="1480.26" cy="986.574" r="39.41"/>
	<circle style="fill:#FFFFFF;" cx="1631.76" cy="986.574" r="39.41"/>
	<circle style="fill:#FFFFFF;" cx="1783.26" cy="986.574" r="39.41"/>
</g>
<g style="opacity:0.1;">
	<circle style="fill:#FFFFFF;" cx="116.761" cy="125.284" r="39.41"/>
	<circle style="fill:#FFFFFF;" cx="268.261" cy="125.284" r="39.41"/>
	<circle style="fill:#FFFFFF;" cx="419.761" cy="125.284" r="39.41"/>
	<circle style="fill:#FFFFFF;" cx="571.261" cy="125.284" r="39.41"/>
	<circle style="fill:#FFFFFF;" cx="722.761" cy="125.284" r="39.41"/>
	<circle style="fill:#FFFFFF;" cx="874.261" cy="125.284" r="39.41"/>
	<circle style="fill:#FFFFFF;" cx="1025.761" cy="125.284" r="39.41"/>
	<circle style="fill:#FFFFFF;" cx="1177.26" cy="125.284" r="39.41"/>
	<circle style="fill:#FFFFFF;" cx="1328.76" cy="125.284" r="39.41"/>
	<circle style="fill:#FFFFFF;" cx="1480.26" cy="125.284" r="39.41"/>
	<circle style="fill:#FFFFFF;" cx="1631.76" cy="125.284" r="39.41"/>
	<circle style="fill:#FFFFFF;" cx="1783.26" cy="125.284" r="39.41"/>
</g>
<g style="opacity:0.5;">
	<circle style="fill:#FFFFFF;" cx="116.761" cy="1273.671" r="39.41"/>
	<circle style="fill:#FFFFFF;" cx="268.261" cy="1273.671" r="39.41"/>
	<circle style="fill:#FFFFFF;" cx="419.761" cy="1273.671" r="39.41"/>
	<circle style="fill:#FFFFFF;" cx="571.261" cy="1273.671" r="39.41"/>
	<circle style="fill:#FFFFFF;" cx="722.761" cy="1273.671" r="39.41"/>
	<circle style="fill:#FFFFFF;" cx="874.261" cy="1273.671" r="39.41"/>
	<circle style="fill:#FFFFFF;" cx="1025.761" cy="1273.671" r="39.41"/>
	<circle style="fill:#FFFFFF;" cx="1177.26" cy="1273.671" r="39.41"/>
	<circle style="fill:#FFFFFF;" cx="1328.76" cy="1273.671" r="39.41"/>
	<circle style="fill:#FFFFFF;" cx="1480.26" cy="1273.671" r="39.41"/>
	<circle style="fill:#FFFFFF;" cx="1631.76" cy="1273.671" r="39.41"/>
	<circle style="fill:#FFFFFF;" cx="1783.26" cy="1273.671" r="39.41"/>
</g>
<g style="opacity:0.5;">
	<circle style="fill:#FFFFFF;" cx="116.761" cy="1417.219" r="39.41"/>
	<circle style="fill:#FFFFFF;" cx="268.261" cy="1417.219" r="39.41"/>
	<circle style="fill:#FFFFFF;" cx="419.761" cy="1417.219" r="39.41"/>
	<circle style="fill:#FFFFFF;" cx="571.261" cy="1417.219" r="39.41"/>
	<circle style="fill:#FFFFFF;" cx="722.761" cy="1417.219" r="39.41"/>
	<circle style="fill:#FFFFFF;" cx="874.261" cy="1417.219" r="39.41"/>
	<circle style="fill:#FFFFFF;" cx="1025.761" cy="1417.219" r="39.41"/>
	<circle style="fill:#FFFFFF;" cx="1177.26" cy="1417.219" r="39.41"/>
	<circle style="fill:#FFFFFF;" cx="1328.76" cy="1417.219" r="39.41"/>
	<circle style="fill:#FFFFFF;" cx="1480.26" cy="1417.219" r="39.41"/>
	<circle style="fill:#FFFFFF;" cx="1631.76" cy="1417.219" r="39.41"/>
	<circle style="fill:#FFFFFF;" cx="1783.26" cy="1417.219" r="39.41"/>
</g>
<g style="opacity:0.4;">
	<circle style="fill:#FFFFFF;" cx="116.761" cy="1560.767" r="39.41"/>
	<circle style="fill:#FFFFFF;" cx="268.261" cy="1560.767" r="39.41"/>
	<circle style="fill:#FFFFFF;" cx="419.761" cy="1560.767" r="39.41"/>
	<circle style="fill:#FFFFFF;" cx="571.261" cy="1560.767" r="39.41"/>
	<circle style="fill:#FFFFFF;" cx="722.761" cy="1560.767" r="39.41"/>
	<circle style="fill:#FFFFFF;" cx="874.261" cy="1560.767" r="39.41"/>
	<circle style="fill:#FFFFFF;" cx="1025.761" cy="1560.767" r="39.41"/>
	<circle style="fill:#FFFFFF;" cx="1177.26" cy="1560.767" r="39.41"/>
	<circle style="fill:#FFFFFF;" cx="1328.76" cy="1560.767" r="39.41"/>
	<circle style="fill:#FFFFFF;" cx="1480.26" cy="1560.767" r="39.41"/>
	<circle style="fill:#FFFFFF;" cx="1631.76" cy="1560.767" r="39.41"/>
	<circle style="fill:#FFFFFF;" cx="1783.26" cy="1560.767" r="39.41"/>
</g>
<g style="opacity:0.3;">
	<circle style="fill:#FFFFFF;" cx="116.761" cy="1704.316" r="39.41"/>
	<circle style="fill:#FFFFFF;" cx="268.261" cy="1704.316" r="39.41"/>
	<circle style="fill:#FFFFFF;" cx="419.761" cy="1704.316" r="39.41"/>
	<circle style="fill:#FFFFFF;" cx="571.261" cy="1704.316" r="39.41"/>
	<circle style="fill:#FFFFFF;" cx="722.761" cy="1704.316" r="39.41"/>
	<circle style="fill:#FFFFFF;" cx="874.261" cy="1704.316" r="39.41"/>
	<circle style="fill:#FFFFFF;" cx="1025.761" cy="1704.316" r="39.41"/>
	<circle style="fill:#FFFFFF;" cx="1177.26" cy="1704.316" r="39.41"/>
	<circle style="fill:#FFFFFF;" cx="1328.76" cy="1704.316" r="39.41"/>
	<circle style="fill:#FFFFFF;" cx="1480.26" cy="1704.316" r="39.41"/>
	<circle style="fill:#FFFFFF;" cx="1631.76" cy="1704.316" r="39.41"/>
	<circle style="fill:#FFFFFF;" cx="1783.26" cy="1704.316" r="39.41"/>
</g>
<g style="opacity:0.2;">
	<circle style="fill:#FFFFFF;" cx="116.761" cy="1847.864" r="39.41"/>
	<circle style="fill:#FFFFFF;" cx="268.261" cy="1847.864" r="39.41"/>
	<circle style="fill:#FFFFFF;" cx="419.761" cy="1847.864" r="39.41"/>
	<circle style="fill:#FFFFFF;" cx="571.261" cy="1847.864" r="39.41"/>
	<circle style="fill:#FFFFFF;" cx="722.761" cy="1847.864" r="39.41"/>
	<circle style="fill:#FFFFFF;" cx="874.261" cy="1847.864" r="39.41"/>
	<circle style="fill:#FFFFFF;" cx="1025.761" cy="1847.864" r="39.41"/>
	<circle style="fill:#FFFFFF;" cx="1177.26" cy="1847.864" r="39.41"/>
	<circle style="fill:#FFFFFF;" cx="1328.76" cy="1847.864" r="39.41"/>
	<circle style="fill:#FFFFFF;" cx="1480.26" cy="1847.864" r="39.41"/>
	<circle style="fill:#FFFFFF;" cx="1631.76" cy="1847.864" r="39.41"/>
	<circle style="fill:#FFFFFF;" cx="1783.26" cy="1847.864" r="39.41"/>
</g>
<g style="opacity:0.1;">
	<circle style="fill:#FFFFFF;" cx="116.761" cy="1991.412" r="39.41"/>
	<circle style="fill:#FFFFFF;" cx="268.261" cy="1991.412" r="39.41"/>
	<circle style="fill:#FFFFFF;" cx="419.761" cy="1991.412" r="39.41"/>
	<circle style="fill:#FFFFFF;" cx="571.261" cy="1991.412" r="39.41"/>
	<circle style="fill:#FFFFFF;" cx="722.761" cy="1991.412" r="39.41"/>
	<circle style="fill:#FFFFFF;" cx="874.261" cy="1991.412" r="39.41"/>
	<circle style="fill:#FFFFFF;" cx="1025.761" cy="1991.412" r="39.41"/>
	<circle style="fill:#FFFFFF;" cx="1177.26" cy="1991.412" r="39.41"/>
	<circle style="fill:#FFFFFF;" cx="1328.76" cy="1991.412" r="39.41"/>
	<circle style="fill:#FFFFFF;" cx="1480.26" cy="1991.412" r="39.41"/>
	<circle style="fill:#FFFFFF;" cx="1631.76" cy="1991.412" r="39.41"/>
	<circle style="fill:#FFFFFF;" cx="1783.26" cy="1991.412" r="39.41"/>
</g>
<g style="opacity:0.5;">
	<circle style="fill:#FFFFFF;" cx="116.761" cy="1130.123" r="39.41"/>
	<circle style="fill:#FFFFFF;" cx="268.261" cy="1130.123" r="39.41"/>
	<circle style="fill:#FFFFFF;" cx="419.761" cy="1130.123" r="39.41"/>
	<circle style="fill:#FFFFFF;" cx="571.261" cy="1130.123" r="39.41"/>
	<circle style="fill:#FFFFFF;" cx="722.761" cy="1130.123" r="39.41"/>
	<circle style="fill:#FFFFFF;" cx="874.261" cy="1130.123" r="39.41"/>
	<circle style="fill:#FFFFFF;" cx="1025.761" cy="1130.123" r="39.41"/>
	<circle style="fill:#FFFFFF;" cx="1177.26" cy="1130.123" r="39.41"/>
	<circle style="fill:#FFFFFF;" cx="1328.76" cy="1130.123" r="39.41"/>
	<circle style="fill:#FFFFFF;" cx="1480.26" cy="1130.123" r="39.41"/>
	<circle style="fill:#FFFFFF;" cx="1631.76" cy="1130.123" r="39.41"/>
	<circle style="fill:#FFFFFF;" cx="1783.26" cy="1130.123" r="39.41"/>
</g>
<circle style="opacity:0.2;fill:#FFFFFF;" cx="62.011" cy="216.956" r="42"/>
<circle style="opacity:0.2;fill:#FFFFFF;" cx="223.465" cy="216.956" r="42"/>
<circle style="opacity:0.2;fill:#FFFFFF;" cx="384.92" cy="216.956" r="42"/>
<circle style="opacity:0.2;fill:#FFFFFF;" cx="546.374" cy="216.956" r="42"/>
<circle style="opacity:0.2;fill:#FFFFFF;" cx="707.829" cy="216.956" r="42"/>
<circle style="opacity:0.2;fill:#FFFFFF;" cx="869.283" cy="216.956" r="42"/>
<circle style="opacity:0.2;fill:#FFFFFF;" cx="1030.738" cy="216.956" r="42"/>
<circle style="opacity:0.2;fill:#FFFFFF;" cx="1192.193" cy="216.956" r="42"/>
<circle style="opacity:0.2;fill:#FFFFFF;" cx="1353.647" cy="216.956" r="42"/>
<circle style="opacity:0.2;fill:#FFFFFF;" cx="1515.102" cy="216.956" r="42"/>
<circle style="opacity:0.2;fill:#FFFFFF;" cx="1676.556" cy="216.956" r="42"/>
<circle style="opacity:0.2;fill:#FFFFFF;" cx="1838.011" cy="216.956" r="42"/>
<circle style="opacity:0.4;fill:#FFFFFF;" cx="62.011" cy="369.936" r="42"/>
<circle style="opacity:0.4;fill:#FFFFFF;" cx="223.465" cy="369.936" r="42"/>
<circle style="opacity:0.4;fill:#FFEABF;" cx="384.92" cy="369.936" r="42"/>
<circle style="opacity:0.4;fill:#FFFFFF;" cx="546.374" cy="369.936" r="42"/>
<circle style="opacity:0.4;fill:#F8DEFF;" cx="707.829" cy="369.936" r="42"/>
<circle style="opacity:0.4;fill:#FFFFFF;" cx="869.283" cy="369.936" r="42"/>
<circle style="opacity:0.4;fill:#FFCCCC;" cx="1030.738" cy="369.936" r="42"/>
<circle style="opacity:0.4;fill:#E5FFD1;" cx="1192.193" cy="369.936" r="42"/>
<circle style="opacity:0.4;fill:#D6F5FF;" cx="1353.647" cy="369.936" r="42"/>
<circle style="opacity:0.4;fill:#FFFFFF;" cx="1515.102" cy="369.936" r="42"/>
<circle style="opacity:0.4;fill:#FFEABF;" cx="1676.556" cy="369.936" r="42"/>
<circle style="opacity:0.4;fill:#FFFFFF;" cx="1838.011" cy="369.936" r="42"/>
<circle style="opacity:0.6;fill:#FFFFFF;" cx="62.011" cy="522.917" r="42"/>
<circle style="opacity:0.6;fill:#FFFFFF;" cx="223.465" cy="522.917" r="42"/>
<circle style="opacity:0.6;fill:#FFFFFF;" cx="384.92" cy="522.917" r="42"/>
<circle style="opacity:0.6;fill:#FFCCCC;" cx="546.374" cy="522.917" r="42"/>
<circle style="opacity:0.6;fill:#FFFFFF;" cx="707.829" cy="522.917" r="42"/>
<circle style="opacity:0.6;fill:#FFFFFF;" cx="869.283" cy="522.917" r="42"/>
<circle style="opacity:0.6;fill:#FFFFFF;" cx="1030.738" cy="522.917" r="42"/>
<circle style="opacity:0.6;fill:#FFFFFF;" cx="1192.193" cy="522.917" r="42"/>
<circle style="opacity:0.6;fill:#FFFFFF;" cx="1353.647" cy="522.917" r="42"/>
<circle style="opacity:0.6;fill:#E5FFD1;" cx="1515.102" cy="522.917" r="42"/>
<circle style="opacity:0.6;fill:#FFFFFF;" cx="1676.556" cy="522.917" r="42"/>
<circle style="opacity:0.6;fill:#FFFFFF;" cx="1838.011" cy="522.917" r="42"/>
<circle style="opacity:0.8;fill:#FFFFFF;" cx="62.011" cy="675.897" r="42"/>
<circle style="opacity:0.8;fill:#FFFFFF;" cx="223.465" cy="675.897" r="42"/>
<circle style="opacity:0.8;fill:#E5FFD1;" cx="384.92" cy="675.897" r="42"/>
<circle style="opacity:0.8;fill:#D6F5FF;" cx="546.374" cy="675.897" r="42"/>
<circle style="opacity:0.8;fill:#FFFFFF;" cx="707.829" cy="675.897" r="42"/>
<circle style="opacity:0.8;fill:#FFEABF;" cx="869.283" cy="675.897" r="42"/>
<circle style="opacity:0.8;fill:#FFFFFF;" cx="1030.738" cy="675.897" r="42"/>
<circle style="opacity:0.8;fill:#FFFFFF;" cx="1192.193" cy="675.897" r="42"/>
<circle style="opacity:0.8;fill:#FFCCCC;" cx="1353.647" cy="675.897" r="42"/>
<circle style="opacity:0.8;fill:#FFEABF;" cx="1515.102" cy="675.897" r="42"/>
<circle style="opacity:0.8;fill:#D6F5FF;" cx="1676.556" cy="675.897" r="42"/>
<circle style="opacity:0.8;fill:#FFFFFF;" cx="1838.011" cy="675.897" r="42"/>
<circle style="fill:#FFFFFF;" cx="62.011" cy="828.878" r="42"/>
<circle style="fill:#F8DEFF;" cx="223.465" cy="828.878" r="42"/>
<circle style="fill:#FFFFFF;" cx="384.92" cy="828.878" r="42"/>
<circle style="fill:#FFFFFF;" cx="546.374" cy="828.878" r="42"/>
<circle style="fill:#E5FFD1;" cx="707.829" cy="828.878" r="42"/>
<circle style="fill:#FFFFFF;" cx="869.283" cy="828.878" r="42"/>
<circle style="fill:#FFFFFF;" cx="1030.738" cy="828.878" r="42"/>
<circle style="fill:#FFFFFF;" cx="1192.193" cy="828.878" r="42"/>
<circle style="fill:#FFFFFF;" cx="1353.647" cy="828.878" r="42"/>
<circle style="fill:#FFCCCC;" cx="1515.102" cy="828.878" r="42"/>
<circle style="fill:#FFFFFF;" cx="1676.556" cy="828.878" r="42"/>
<circle style="fill:#FFFFFF;" cx="1838.011" cy="828.878" r="42"/>
<circle style="fill:#FFFFFF;" cx="62.011" cy="981.858" r="42"/>
<circle style="fill:#FFCCCC;" cx="223.465" cy="981.858" r="42"/>
<circle style="fill:#FFFFFF;" cx="384.92" cy="981.858" r="42"/>
<circle style="fill:#FFFFFF;" cx="546.374" cy="981.858" r="42"/>
<circle style="fill:#FFFFFF;" cx="707.829" cy="981.858" r="42"/>
<circle style="fill:#F8DEFF;" cx="869.283" cy="981.858" r="42"/>
<circle style="fill:#FFFFFF;" cx="1030.738" cy="981.858" r="42"/>
<circle style="fill:#FFFFFF;" cx="1192.193" cy="981.858" r="42"/>
<circle style="fill:#FFFFFF;" cx="1353.647" cy="981.858" r="42"/>
<circle style="fill:#FFFFFF;" cx="1515.102" cy="981.858" r="42"/>
<circle style="fill:#FFFFFF;" cx="1676.556" cy="981.858" r="42"/>
<circle style="fill:#F8DEFF;" cx="1838.011" cy="981.858" r="42"/>
<circle style="opacity:0.1;fill:#FFFFFF;" cx="62.011" cy="63.975" r="42"/>
<circle style="opacity:0.1;fill:#FFFFFF;" cx="223.465" cy="63.975" r="42"/>
<circle style="opacity:0.1;fill:#FFFFFF;" cx="384.92" cy="63.975" r="42"/>
<circle style="opacity:0.1;fill:#FFFFFF;" cx="546.374" cy="63.975" r="42"/>
<circle style="opacity:0.1;fill:#FFFFFF;" cx="707.829" cy="63.975" r="42"/>
<circle style="opacity:0.1;fill:#FFFFFF;" cx="869.283" cy="63.975" r="42"/>
<circle style="opacity:0.1;fill:#FFFFFF;" cx="1030.738" cy="63.975" r="42"/>
<circle style="opacity:0.1;fill:#FFFFFF;" cx="1192.193" cy="63.975" r="42"/>
<circle style="opacity:0.1;fill:#FFFFFF;" cx="1353.647" cy="63.975" r="42"/>
<circle style="opacity:0.1;fill:#FFFFFF;" cx="1515.102" cy="63.975" r="42"/>
<circle style="opacity:0.1;fill:#FFFFFF;" cx="1676.556" cy="63.975" r="42"/>
<circle style="opacity:0.1;fill:#FFFFFF;" cx="1838.011" cy="63.975" r="42"/>
<circle style="fill:#FFFFFF;" cx="62.011" cy="1287.819" r="42"/>
<circle style="fill:#FFEABF;" cx="223.465" cy="1287.819" r="42"/>
<circle style="fill:#FFCCCC;" cx="384.92" cy="1287.819" r="42"/>
<circle style="fill:#FFFFFF;" cx="546.374" cy="1287.819" r="42"/>
<circle style="fill:#FFFFFF;" cx="707.829" cy="1287.819" r="42"/>
<circle style="fill:#FFFFFF;" cx="869.283" cy="1287.819" r="42"/>
<circle style="fill:#D6F5FF;" cx="1030.738" cy="1287.819" r="42"/>
<circle style="fill:#FFFFFF;" cx="1192.193" cy="1287.819" r="42"/>
<circle style="fill:#FFFFFF;" cx="1353.647" cy="1287.819" r="42"/>
<circle style="fill:#FFFFFF;" cx="1515.102" cy="1287.819" r="42"/>
<circle style="fill:#FFFFFF;" cx="1676.556" cy="1287.819" r="42"/>
<circle style="fill:#FFFFFF;" cx="1838.011" cy="1287.819" r="42"/>
<circle style="opacity:0.8;fill:#D6F5FF;" cx="62.011" cy="1440.8" r="42"/>
<circle style="opacity:0.8;fill:#FFFFFF;" cx="223.465" cy="1440.8" r="42"/>
<circle style="opacity:0.8;fill:#FFFFFF;" cx="384.92" cy="1440.8" r="42"/>
<circle style="opacity:0.8;fill:#FFFFFF;" cx="546.374" cy="1440.8" r="42"/>
<circle style="opacity:0.8;fill:#FFFFFF;" cx="707.829" cy="1440.8" r="42"/>
<circle style="opacity:0.8;fill:#FFFFFF;" cx="869.283" cy="1440.8" r="42"/>
<circle style="opacity:0.8;fill:#FFFFFF;" cx="1030.738" cy="1440.8" r="42"/>
<circle style="opacity:0.8;fill:#FFFFFF;" cx="1192.193" cy="1440.8" r="42"/>
<circle style="opacity:0.8;fill:#FFEABF;" cx="1353.647" cy="1440.8" r="42"/>
<circle style="opacity:0.8;fill:#FFFFFF;" cx="1515.102" cy="1440.8" r="42"/>
<circle style="opacity:0.8;fill:#F8DEFF;" cx="1676.556" cy="1440.8" r="42"/>
<circle style="opacity:0.8;fill:#FFFFFF;" cx="1838.011" cy="1440.8" r="42"/>
<circle style="opacity:0.6;fill:#FFFFFF;" cx="62.011" cy="1593.78" r="42"/>
<circle style="opacity:0.6;fill:#FFFFFF;" cx="223.465" cy="1593.78" r="42"/>
<circle style="opacity:0.6;fill:#F8DEFF;" cx="384.92" cy="1593.78" r="42"/>
<circle style="opacity:0.6;fill:#E5FFD1;" cx="546.374" cy="1593.78" r="42"/>
<circle style="opacity:0.6;fill:#FFFFFF;" cx="707.829" cy="1593.78" r="42"/>
<circle style="opacity:0.6;fill:#FFFFFF;" cx="869.283" cy="1593.78" r="42"/>
<circle style="opacity:0.6;fill:#FFCCCC;" cx="1030.738" cy="1593.78" r="42"/>
<circle style="opacity:0.6;fill:#FFFFFF;" cx="1192.193" cy="1593.78" r="42"/>
<circle style="opacity:0.6;fill:#FFFFFF;" cx="1353.647" cy="1593.78" r="42"/>
<circle style="opacity:0.6;fill:#D6F5FF;" cx="1515.102" cy="1593.78" r="42"/>
<circle style="opacity:0.6;fill:#FFFFFF;" cx="1676.556" cy="1593.78" r="42"/>
<circle style="opacity:0.6;fill:#FFFFFF;" cx="1838.011" cy="1593.78" r="42"/>
<circle style="opacity:0.4;fill:#FFFFFF;" cx="62.011" cy="1746.761" r="42"/>
<circle style="opacity:0.4;fill:#FFFFFF;" cx="223.465" cy="1746.761" r="42"/>
<circle style="opacity:0.4;fill:#FFFFFF;" cx="384.92" cy="1746.761" r="42"/>
<circle style="opacity:0.4;fill:#FFFFFF;" cx="546.374" cy="1746.761" r="42"/>
<circle style="opacity:0.4;fill:#FFFFFF;" cx="707.829" cy="1746.761" r="42"/>
<circle style="opacity:0.4;fill:#E5FFD1;" cx="869.283" cy="1746.761" r="42"/>
<circle style="opacity:0.4;fill:#FFFFFF;" cx="1030.738" cy="1746.761" r="42"/>
<circle style="opacity:0.4;fill:#F8DEFF;" cx="1192.193" cy="1746.761" r="42"/>
<circle style="opacity:0.4;fill:#D6F5FF;" cx="1353.647" cy="1746.761" r="42"/>
<circle style="opacity:0.4;fill:#FFFFFF;" cx="1515.102" cy="1746.761" r="42"/>
<circle style="opacity:0.4;fill:#FFFFFF;" cx="1676.556" cy="1746.761" r="42"/>
<circle style="opacity:0.4;fill:#FFFFFF;" cx="1838.011" cy="1746.761" r="42"/>
<circle style="opacity:0.2;fill:#FFFFFF;" cx="62.011" cy="1899.741" r="42"/>
<circle style="opacity:0.2;fill:#FFFFFF;" cx="223.465" cy="1899.741" r="42"/>
<circle style="opacity:0.2;fill:#FFFFFF;" cx="384.92" cy="1899.741" r="42"/>
<circle style="opacity:0.2;fill:#FFFFFF;" cx="546.374" cy="1899.741" r="42"/>
<circle style="opacity:0.2;fill:#FFFFFF;" cx="707.829" cy="1899.741" r="42"/>
<circle style="opacity:0.2;fill:#FFFFFF;" cx="869.283" cy="1899.741" r="42"/>
<circle style="opacity:0.2;fill:#FFFFFF;" cx="1030.738" cy="1899.741" r="42"/>
<circle style="opacity:0.2;fill:#FFFFFF;" cx="1192.193" cy="1899.741" r="42"/>
<circle style="opacity:0.2;fill:#FFFFFF;" cx="1353.647" cy="1899.741" r="42"/>
<circle style="opacity:0.2;fill:#FFFFFF;" cx="1515.102" cy="1899.741" r="42"/>
<circle style="opacity:0.2;fill:#FFFFFF;" cx="1676.556" cy="1899.741" r="42"/>
<circle style="opacity:0.2;fill:#FFFFFF;" cx="1838.011" cy="1899.741" r="42"/>
<circle style="opacity:0.1;fill:#FFFFFF;" cx="62.011" cy="2052.722" r="42"/>
<circle style="opacity:0.1;fill:#FFFFFF;" cx="223.465" cy="2052.722" r="42"/>
<circle style="opacity:0.1;fill:#FFFFFF;" cx="384.92" cy="2052.722" r="42"/>
<circle style="opacity:0.1;fill:#FFFFFF;" cx="546.374" cy="2052.722" r="42"/>
<circle style="opacity:0.1;fill:#FFFFFF;" cx="707.829" cy="2052.722" r="42"/>
<circle style="opacity:0.1;fill:#FFFFFF;" cx="869.283" cy="2052.722" r="42"/>
<circle style="opacity:0.1;fill:#FFFFFF;" cx="1030.738" cy="2052.722" r="42"/>
<circle style="opacity:0.1;fill:#FFFFFF;" cx="1192.193" cy="2052.722" r="42"/>
<circle style="opacity:0.1;fill:#FFFFFF;" cx="1353.647" cy="2052.722" r="42"/>
<circle style="opacity:0.1;fill:#FFFFFF;" cx="1515.102" cy="2052.722" r="42"/>
<circle style="opacity:0.1;fill:#FFFFFF;" cx="1676.556" cy="2052.722" r="42"/>
<circle style="opacity:0.1;fill:#FFFFFF;" cx="1838.011" cy="2052.722" r="42"/>
<circle style="fill:#FFFFFF;" cx="62.011" cy="1134.839" r="42"/>
<circle style="fill:#FFFFFF;" cx="223.465" cy="1134.839" r="42"/>
<circle style="fill:#FFFFFF;" cx="384.92" cy="1134.839" r="42"/>
<circle style="fill:#FFEABF;" cx="546.374" cy="1134.839" r="42"/>
<circle style="fill:#FFFFFF;" cx="707.829" cy="1134.839" r="42"/>
<circle style="fill:#FFFFFF;" cx="869.283" cy="1134.839" r="42"/>
<circle style="fill:#FFFFFF;" cx="1030.738" cy="1134.839" r="42"/>
<circle style="fill:#FFFFFF;" cx="1192.193" cy="1134.839" r="42"/>
<circle style="fill:#FFFFFF;" cx="1353.647" cy="1134.839" r="42"/>
<circle style="fill:#FFFFFF;" cx="1515.102" cy="1134.839" r="42"/>
<circle style="fill:#E5FFD1;" cx="1676.556" cy="1134.839" r="42"/>
<circle style="fill:#FFFFFF;" cx="1838.011" cy="1134.839" r="42"/>
</svg>
