<?xml version="1.0" encoding="utf-8"?>
<!-- Generator: Adobe Illustrator 23.1.0, SVG Export Plug-In . SVG Version: 6.00 Build 0)  -->
<svg version="1.1" id="Layer_1" xmlns="http://www.w3.org/2000/svg" xmlns:xlink="http://www.w3.org/1999/xlink" x="0px" y="0px"
	 viewBox="0 0 1920 1080" style="enable-background:new 0 0 1920 1080;" xml:space="preserve">
<path style="opacity:0.2;fill:#E03A3E;" d="M522,278c104.125-85.662,217.467-79.019,289.532-84.555
	c72.065-5.536,145.553-4.113,239.643,72.51c87.597,71.335,101.329,189.702,92.687,269.767
	c-8.641,80.065-41.226,138.705-191.143,252.676c-138.554,105.332-328.384-18.8-381.123-55.767S457.93,616.058,456.159,539.541
	C454.388,463.024,451.861,335.702,522,278z"/>
<path style="opacity:0.25;fill:#E03A3E;" d="M557,391c33.825-141.17,129.248-137.136,208.898-153.439s156.32-0.434,207.279,27.227
	c50.96,27.661,91.021,134.689,104.554,183.871S1104.37,597.46,970,679s-307,44-359-25C567.592,596.4,543.012,449.381,557,391z"/>
<path style="opacity:0.3;fill:#E03A3E;" d="M705.957,290.389c152.705-34.369,240.716,24.464,283.602,72.514
	c42.887,48.049,47.574,164.617,20.828,227.408c-23.438,55.024-85.411,107.494-216.368,88.645
	c-130.957-18.849-213.375-73.321-207.621-193.277C591.135,386.932,650.083,302.964,705.957,290.389z"/>
<path style="opacity:0.45;fill:#E03A3E;" d="M662.5,367.5c0,0,49.17-44.941,121-40C878,334,899,369,916,396
	c29.88,47.457,56,119-9,176c-58.645,51.427-144,54-216.5,25.5c-34.679-13.633-64.5-62.5-71-120
	C614.405,432.433,632.5,398.5,662.5,367.5z"/>
<path style="opacity:0.55;fill:#E03A3E;" d="M720,354c-61.284,29.416-63,96-60,115s26,83,85,92s122-13,147-49s18-113-24-141
	S770,330,720,354z"/>
</svg>
