<?xml version="1.0" encoding="utf-8"?>
<!-- Generator: Adobe Illustrator 23.1.0, SVG Export Plug-In . SVG Version: 6.00 Build 0)  -->
<svg version="1.1" id="Layer_1" xmlns="http://www.w3.org/2000/svg" xmlns:xlink="http://www.w3.org/1999/xlink" x="0px" y="0px"
	 viewBox="0 0 1920 1080" style="enable-background:new 0 0 1920 1080;" xml:space="preserve">
<path style="opacity:0.2;fill:#963D97;" d="M443.684,470.133C483.542,341.325,553.73,281.365,613,240
	c96-67,145.31-83.191,266.032-70.938c112.392,11.407,188.954,102.717,225.767,174.34c36.813,71.623,41.846,138.52-20.69,316.153
	c-57.796,164.17-284.608,164.887-348.986,163.014c-64.378-1.872-159.042-34.853-202.6-97.787
	C488.965,661.849,416.836,556.898,443.684,470.133z"/>
<path style="opacity:0.25;fill:#963D97;" d="M529,400c33.825-141.17,129.248-137.136,208.898-153.439s156.32-0.434,207.279,27.227
	C996.137,301.448,1057.958,382.99,1058,434c0.064,76.587,14.625,180.08-116,254c-136.791,77.409-307,44-359-25
	C539.592,605.4,515.012,458.381,529,400z"/>
<path style="opacity:0.3;fill:#963D97;" d="M723,294c146.185-55.947,220.673,11.853,263.559,59.902
	c42.887,48.049,47.574,164.617,20.828,227.408c-23.438,55.024-85.411,107.494-216.368,88.645
	c-130.957-18.849-213.375-73.321-207.621-193.277C588.135,377.932,642,325,723,294z"/>
<path style="opacity:0.45;fill:#963D97;" d="M680.5,359.5c0,0,49.17-44.941,121-40C896,326,911,344,939,387
	c38.341,58.881,51,120-14,177c-58.645,51.427-144,54-216.5,25.5c-34.679-13.633-64.5-62.5-71-120
	C632.405,424.433,650.5,390.5,680.5,359.5z"/>
<path style="opacity:0.55;fill:#963D97;" d="M729,389c-61.284,29.416-63,96-60,115s26,83,85,92s122-13,147-49s18-113-24-141
	S779,365,729,389z"/>
</svg>
